<svg width="291" height="241" viewBox="0 0 291 241" fill="none" xmlns="http://www.w3.org/2000/svg">
<rect x="0.795898" y="0.916748" width="290" height="240" fill="#E6EEF0"/>
<path d="M32.1292 152.908L29.1782 158.55V161.969H27.9952V158.55L25.0312 152.908H26.3442L28.5802 157.497L30.8162 152.908H32.1292ZM36.484 162.086C35.8166 162.086 35.21 161.934 34.664 161.631C34.1266 161.327 33.702 160.898 33.39 160.344C33.0866 159.78 32.935 159.13 32.935 158.394C32.935 157.666 33.091 157.024 33.403 156.47C33.7236 155.906 34.157 155.477 34.703 155.183C35.249 154.879 35.86 154.728 36.536 154.728C37.212 154.728 37.823 154.879 38.369 155.183C38.915 155.477 39.344 155.902 39.656 156.457C39.9766 157.011 40.137 157.657 40.137 158.394C40.137 159.13 39.9723 159.78 39.643 160.344C39.3223 160.898 38.8846 161.327 38.33 161.631C37.7753 161.934 37.16 162.086 36.484 162.086ZM36.484 161.046C36.9086 161.046 37.3073 160.946 37.68 160.747C38.0526 160.547 38.3516 160.248 38.577 159.85C38.811 159.451 38.928 158.966 38.928 158.394C38.928 157.822 38.8153 157.336 38.59 156.938C38.3646 156.539 38.07 156.244 37.706 156.054C37.342 155.854 36.9476 155.755 36.523 155.755C36.0896 155.755 35.691 155.854 35.327 156.054C34.9716 156.244 34.6856 156.539 34.469 156.938C34.2523 157.336 34.144 157.822 34.144 158.394C34.144 158.974 34.248 159.464 34.456 159.863C34.6726 160.261 34.9586 160.56 35.314 160.76C35.6693 160.95 36.0593 161.046 36.484 161.046ZM48.0104 154.845V161.969H46.8274V160.916C46.6021 161.28 46.2857 161.566 45.8784 161.774C45.4797 161.973 45.0377 162.073 44.5524 162.073C43.9977 162.073 43.4994 161.96 43.0574 161.735C42.6154 161.501 42.2644 161.154 42.0044 160.695C41.7531 160.235 41.6274 159.676 41.6274 159.018V154.845H42.7974V158.862C42.7974 159.564 42.9751 160.105 43.3304 160.487C43.6857 160.859 44.1711 161.046 44.7864 161.046C45.4191 161.046 45.9174 160.851 46.2814 160.461C46.6454 160.071 46.8274 159.503 46.8274 158.758V154.845H48.0104ZM68.7745 154.845L66.5515 161.969H65.3295L63.6135 156.314L61.8975 161.969H60.6755L58.4395 154.845H59.6485L61.2865 160.825L63.0545 154.845H64.2635L65.9925 160.838L67.6045 154.845H68.7745ZM70.5596 153.688C70.3342 153.688 70.1436 153.61 69.9876 153.454C69.8316 153.298 69.7536 153.107 69.7536 152.882C69.7536 152.656 69.8316 152.466 69.9876 152.31C70.1436 152.154 70.3342 152.076 70.5596 152.076C70.7762 152.076 70.9582 152.154 71.1056 152.31C71.2616 152.466 71.3396 152.656 71.3396 152.882C71.3396 153.107 71.2616 153.298 71.1056 153.454C70.9582 153.61 70.7762 153.688 70.5596 153.688ZM71.1316 154.845V161.969H69.9486V154.845H71.1316ZM74.3308 152.349V161.969H73.1478V152.349H74.3308ZM77.53 152.349V161.969H76.347V152.349H77.53ZM90.0059 156.171C90.2486 155.746 90.6039 155.399 91.0719 155.131C91.5399 154.862 92.0729 154.728 92.6709 154.728C93.3123 154.728 93.8886 154.879 94.3999 155.183C94.9113 155.486 95.3143 155.915 95.6089 156.47C95.9036 157.016 96.0509 157.653 96.0509 158.381C96.0509 159.1 95.9036 159.741 95.6089 160.305C95.3143 160.868 94.9069 161.306 94.3869 161.618C93.8756 161.93 93.3036 162.086 92.6709 162.086C92.0556 162.086 91.5139 161.951 91.0459 161.683C90.5866 161.414 90.2399 161.072 90.0059 160.656V161.969H88.8229V152.349H90.0059V156.171ZM94.8419 158.381C94.8419 157.843 94.7336 157.375 94.5169 156.977C94.3003 156.578 94.0056 156.275 93.6329 156.067C93.2689 155.859 92.8659 155.755 92.4239 155.755C91.9906 155.755 91.5876 155.863 91.2149 156.08C90.8509 156.288 90.5563 156.595 90.3309 157.003C90.1143 157.401 90.0059 157.865 90.0059 158.394C90.0059 158.931 90.1143 159.403 90.3309 159.811C90.5563 160.209 90.8509 160.517 91.2149 160.734C91.5876 160.942 91.9906 161.046 92.4239 161.046C92.8659 161.046 93.2689 160.942 93.6329 160.734C94.0056 160.517 94.3003 160.209 94.5169 159.811C94.7336 159.403 94.8419 158.927 94.8419 158.381ZM104.108 158.134C104.108 158.359 104.095 158.597 104.069 158.849H98.3751C98.4184 159.551 98.6567 160.101 99.0901 160.5C99.5321 160.89 100.065 161.085 100.689 161.085C101.2 161.085 101.625 160.968 101.963 160.734C102.31 160.491 102.552 160.17 102.691 159.772H103.965C103.774 160.456 103.393 161.015 102.821 161.449C102.249 161.873 101.538 162.086 100.689 162.086C100.013 162.086 99.4064 161.934 98.8691 161.631C98.3404 161.327 97.9244 160.898 97.6211 160.344C97.3177 159.78 97.1661 159.13 97.1661 158.394C97.1661 157.657 97.3134 157.011 97.6081 156.457C97.9027 155.902 98.3144 155.477 98.8431 155.183C99.3804 154.879 99.9957 154.728 100.689 154.728C101.365 154.728 101.963 154.875 102.483 155.17C103.003 155.464 103.402 155.872 103.679 156.392C103.965 156.903 104.108 157.484 104.108 158.134ZM102.886 157.887C102.886 157.436 102.786 157.05 102.587 156.73C102.388 156.4 102.115 156.153 101.768 155.989C101.43 155.815 101.053 155.729 100.637 155.729C100.039 155.729 99.5277 155.919 99.1031 156.301C98.6871 156.682 98.4487 157.211 98.3881 157.887H102.886ZM115.557 153.688C115.332 153.688 115.141 153.61 114.985 153.454C114.829 153.298 114.751 153.107 114.751 152.882C114.751 152.656 114.829 152.466 114.985 152.31C115.141 152.154 115.332 152.076 115.557 152.076C115.774 152.076 115.956 152.154 116.103 152.31C116.259 152.466 116.337 152.656 116.337 152.882C116.337 153.107 116.259 153.298 116.103 153.454C115.956 153.61 115.774 153.688 115.557 153.688ZM116.129 154.845V161.969H114.946V154.845H116.129ZM121.617 154.715C122.483 154.715 123.185 154.979 123.723 155.508C124.26 156.028 124.529 156.782 124.529 157.77V161.969H123.359V157.939C123.359 157.228 123.181 156.686 122.826 156.314C122.47 155.932 121.985 155.742 121.37 155.742C120.746 155.742 120.247 155.937 119.875 156.327C119.511 156.717 119.329 157.284 119.329 158.03V161.969H118.146V154.845H119.329V155.859C119.563 155.495 119.879 155.213 120.278 155.014C120.685 154.814 121.131 154.715 121.617 154.715ZM129.36 155.82H127.865V161.969H126.682V155.82H125.759V154.845H126.682V154.338C126.682 153.54 126.886 152.96 127.293 152.596C127.709 152.223 128.372 152.037 129.282 152.037V153.025C128.762 153.025 128.394 153.129 128.177 153.337C127.969 153.536 127.865 153.87 127.865 154.338V154.845H129.36V155.82ZM133.846 162.086C133.179 162.086 132.572 161.934 132.026 161.631C131.489 161.327 131.064 160.898 130.752 160.344C130.449 159.78 130.297 159.13 130.297 158.394C130.297 157.666 130.453 157.024 130.765 156.47C131.086 155.906 131.519 155.477 132.065 155.183C132.611 154.879 133.222 154.728 133.898 154.728C134.574 154.728 135.185 154.879 135.731 155.183C136.277 155.477 136.706 155.902 137.018 156.457C137.339 157.011 137.499 157.657 137.499 158.394C137.499 159.13 137.335 159.78 137.005 160.344C136.685 160.898 136.247 161.327 135.692 161.631C135.138 161.934 134.522 162.086 133.846 162.086ZM133.846 161.046C134.271 161.046 134.67 160.946 135.042 160.747C135.415 160.547 135.714 160.248 135.939 159.85C136.173 159.451 136.29 158.966 136.29 158.394C136.29 157.822 136.178 157.336 135.952 156.938C135.727 156.539 135.432 156.244 135.068 156.054C134.704 155.854 134.31 155.755 133.885 155.755C133.452 155.755 133.053 155.854 132.689 156.054C132.334 156.244 132.048 156.539 131.831 156.938C131.615 157.336 131.506 157.822 131.506 158.394C131.506 158.974 131.61 159.464 131.818 159.863C132.035 160.261 132.321 160.56 132.676 160.76C133.032 160.95 133.422 161.046 133.846 161.046ZM140.238 156.002C140.446 155.594 140.74 155.278 141.122 155.053C141.512 154.827 141.984 154.715 142.539 154.715V155.937H142.227C140.901 155.937 140.238 156.656 140.238 158.095V161.969H139.055V154.845H140.238V156.002ZM152.471 154.715C153.026 154.715 153.52 154.832 153.953 155.066C154.387 155.291 154.729 155.633 154.98 156.093C155.232 156.552 155.357 157.111 155.357 157.77V161.969H154.187V157.939C154.187 157.228 154.01 156.686 153.654 156.314C153.308 155.932 152.835 155.742 152.237 155.742C151.622 155.742 151.132 155.941 150.768 156.34C150.404 156.73 150.222 157.297 150.222 158.043V161.969H149.052V157.939C149.052 157.228 148.875 156.686 148.519 156.314C148.173 155.932 147.7 155.742 147.102 155.742C146.487 155.742 145.997 155.941 145.633 156.34C145.269 156.73 145.087 157.297 145.087 158.043V161.969H143.904V154.845H145.087V155.872C145.321 155.499 145.633 155.213 146.023 155.014C146.422 154.814 146.86 154.715 147.336 154.715C147.934 154.715 148.463 154.849 148.922 155.118C149.382 155.386 149.724 155.781 149.949 156.301C150.149 155.798 150.478 155.408 150.937 155.131C151.397 154.853 151.908 154.715 152.471 154.715ZM163.798 158.134C163.798 158.359 163.785 158.597 163.759 158.849H158.065C158.108 159.551 158.347 160.101 158.78 160.5C159.222 160.89 159.755 161.085 160.379 161.085C160.89 161.085 161.315 160.968 161.653 160.734C162 160.491 162.242 160.17 162.381 159.772H163.655C163.464 160.456 163.083 161.015 162.511 161.449C161.939 161.873 161.228 162.086 160.379 162.086C159.703 162.086 159.096 161.934 158.559 161.631C158.03 161.327 157.614 160.898 157.311 160.344C157.008 159.78 156.856 159.13 156.856 158.394C156.856 157.657 157.003 157.011 157.298 156.457C157.593 155.902 158.004 155.477 158.533 155.183C159.07 154.879 159.686 154.728 160.379 154.728C161.055 154.728 161.653 154.875 162.173 155.17C162.693 155.464 163.092 155.872 163.369 156.392C163.655 156.903 163.798 157.484 163.798 158.134ZM162.576 157.887C162.576 157.436 162.476 157.05 162.277 156.73C162.078 156.4 161.805 156.153 161.458 155.989C161.12 155.815 160.743 155.729 160.327 155.729C159.729 155.729 159.218 155.919 158.793 156.301C158.377 156.682 158.139 157.211 158.078 157.887H162.576ZM164.917 158.381C164.917 157.653 165.065 157.016 165.359 156.47C165.654 155.915 166.057 155.486 166.568 155.183C167.088 154.879 167.669 154.728 168.31 154.728C168.865 154.728 169.381 154.858 169.857 155.118C170.334 155.369 170.698 155.703 170.949 156.119V152.349H172.145V161.969H170.949V160.63C170.715 161.054 170.369 161.405 169.909 161.683C169.45 161.951 168.913 162.086 168.297 162.086C167.665 162.086 167.088 161.93 166.568 161.618C166.057 161.306 165.654 160.868 165.359 160.305C165.065 159.741 164.917 159.1 164.917 158.381ZM170.949 158.394C170.949 157.856 170.841 157.388 170.624 156.99C170.408 156.591 170.113 156.288 169.74 156.08C169.376 155.863 168.973 155.755 168.531 155.755C168.089 155.755 167.686 155.859 167.322 156.067C166.958 156.275 166.668 156.578 166.451 156.977C166.235 157.375 166.126 157.843 166.126 158.381C166.126 158.927 166.235 159.403 166.451 159.811C166.668 160.209 166.958 160.517 167.322 160.734C167.686 160.942 168.089 161.046 168.531 161.046C168.973 161.046 169.376 160.942 169.74 160.734C170.113 160.517 170.408 160.209 170.624 159.811C170.841 159.403 170.949 158.931 170.949 158.394ZM184.604 156.171C184.847 155.746 185.202 155.399 185.67 155.131C186.138 154.862 186.671 154.728 187.269 154.728C187.911 154.728 188.487 154.879 188.998 155.183C189.51 155.486 189.913 155.915 190.207 156.47C190.502 157.016 190.649 157.653 190.649 158.381C190.649 159.1 190.502 159.741 190.207 160.305C189.913 160.868 189.505 161.306 188.985 161.618C188.474 161.93 187.902 162.086 187.269 162.086C186.654 162.086 186.112 161.951 185.644 161.683C185.185 161.414 184.838 161.072 184.604 160.656V161.969H183.421V152.349H184.604V156.171ZM189.44 158.381C189.44 157.843 189.332 157.375 189.115 156.977C188.899 156.578 188.604 156.275 188.231 156.067C187.867 155.859 187.464 155.755 187.022 155.755C186.589 155.755 186.186 155.863 185.813 156.08C185.449 156.288 185.155 156.595 184.929 157.003C184.713 157.401 184.604 157.865 184.604 158.394C184.604 158.931 184.713 159.403 184.929 159.811C185.155 160.209 185.449 160.517 185.813 160.734C186.186 160.942 186.589 161.046 187.022 161.046C187.464 161.046 187.867 160.942 188.231 160.734C188.604 160.517 188.899 160.209 189.115 159.811C189.332 159.403 189.44 158.927 189.44 158.381ZM198.342 154.845L194.052 165.323H192.83L194.234 161.891L191.361 154.845H192.674L194.91 160.617L197.12 154.845H198.342ZM209.991 156.002C210.199 155.594 210.494 155.278 210.875 155.053C211.265 154.827 211.738 154.715 212.292 154.715V155.937H211.98C210.654 155.937 209.991 156.656 209.991 158.095V161.969H208.808V154.845H209.991V156.002ZM220.158 158.134C220.158 158.359 220.145 158.597 220.119 158.849H214.425C214.468 159.551 214.707 160.101 215.14 160.5C215.582 160.89 216.115 161.085 216.739 161.085C217.25 161.085 217.675 160.968 218.013 160.734C218.36 160.491 218.602 160.17 218.741 159.772H220.015C219.824 160.456 219.443 161.015 218.871 161.449C218.299 161.873 217.588 162.086 216.739 162.086C216.063 162.086 215.456 161.934 214.919 161.631C214.39 161.327 213.974 160.898 213.671 160.344C213.368 159.78 213.216 159.13 213.216 158.394C213.216 157.657 213.363 157.011 213.658 156.457C213.953 155.902 214.364 155.477 214.893 155.183C215.43 154.879 216.046 154.728 216.739 154.728C217.415 154.728 218.013 154.875 218.533 155.17C219.053 155.464 219.452 155.872 219.729 156.392C220.015 156.903 220.158 157.484 220.158 158.134ZM218.936 157.887C218.936 157.436 218.836 157.05 218.637 156.73C218.438 156.4 218.165 156.153 217.818 155.989C217.48 155.815 217.103 155.729 216.687 155.729C216.089 155.729 215.578 155.919 215.153 156.301C214.737 156.682 214.499 157.211 214.438 157.887H218.936ZM221.277 158.394C221.277 157.657 221.425 157.016 221.719 156.47C222.014 155.915 222.421 155.486 222.941 155.183C223.47 154.879 224.072 154.728 224.748 154.728C225.624 154.728 226.343 154.94 226.906 155.365C227.478 155.789 227.855 156.379 228.037 157.133H226.763C226.642 156.699 226.404 156.357 226.048 156.106C225.702 155.854 225.268 155.729 224.748 155.729C224.072 155.729 223.526 155.963 223.11 156.431C222.694 156.89 222.486 157.544 222.486 158.394C222.486 159.252 222.694 159.915 223.11 160.383C223.526 160.851 224.072 161.085 224.748 161.085C225.268 161.085 225.702 160.963 226.048 160.721C226.395 160.478 226.633 160.131 226.763 159.681H228.037C227.847 160.409 227.465 160.994 226.893 161.436C226.321 161.869 225.606 162.086 224.748 162.086C224.072 162.086 223.47 161.934 222.941 161.631C222.421 161.327 222.014 160.898 221.719 160.344C221.425 159.789 221.277 159.139 221.277 158.394ZM236.116 158.134C236.116 158.359 236.103 158.597 236.077 158.849H230.383C230.426 159.551 230.665 160.101 231.098 160.5C231.54 160.89 232.073 161.085 232.697 161.085C233.208 161.085 233.633 160.968 233.971 160.734C234.318 160.491 234.56 160.17 234.699 159.772H235.973C235.782 160.456 235.401 161.015 234.829 161.449C234.257 161.873 233.546 162.086 232.697 162.086C232.021 162.086 231.414 161.934 230.877 161.631C230.348 161.327 229.932 160.898 229.629 160.344C229.326 159.78 229.174 159.13 229.174 158.394C229.174 157.657 229.321 157.011 229.616 156.457C229.911 155.902 230.322 155.477 230.851 155.183C231.388 154.879 232.004 154.728 232.697 154.728C233.373 154.728 233.971 154.875 234.491 155.17C235.011 155.464 235.41 155.872 235.687 156.392C235.973 156.903 236.116 157.484 236.116 158.134ZM234.894 157.887C234.894 157.436 234.794 157.05 234.595 156.73C234.396 156.4 234.123 156.153 233.776 155.989C233.438 155.815 233.061 155.729 232.645 155.729C232.047 155.729 231.536 155.919 231.111 156.301C230.695 156.682 230.457 157.211 230.396 157.887H234.894ZM238.288 153.688C238.063 153.688 237.872 153.61 237.716 153.454C237.56 153.298 237.482 153.107 237.482 152.882C237.482 152.656 237.56 152.466 237.716 152.31C237.872 152.154 238.063 152.076 238.288 152.076C238.505 152.076 238.687 152.154 238.834 152.31C238.99 152.466 239.068 152.656 239.068 152.882C239.068 153.107 238.99 153.298 238.834 153.454C238.687 153.61 238.505 153.688 238.288 153.688ZM238.86 154.845V161.969H237.677V154.845H238.86ZM243.529 160.877L245.739 154.845H247L244.205 161.969H242.827L240.032 154.845H241.306L243.529 160.877ZM248.775 153.688C248.549 153.688 248.359 153.61 248.203 153.454C248.047 153.298 247.969 153.107 247.969 152.882C247.969 152.656 248.047 152.466 248.203 152.31C248.359 152.154 248.549 152.076 248.775 152.076C248.991 152.076 249.173 152.154 249.321 152.31C249.477 152.466 249.555 152.656 249.555 152.882C249.555 153.107 249.477 153.298 249.321 153.454C249.173 153.61 248.991 153.688 248.775 153.688ZM249.347 154.845V161.969H248.164V154.845H249.347ZM254.834 154.715C255.701 154.715 256.403 154.979 256.94 155.508C257.477 156.028 257.746 156.782 257.746 157.77V161.969H256.576V157.939C256.576 157.228 256.398 156.686 256.043 156.314C255.688 155.932 255.202 155.742 254.587 155.742C253.963 155.742 253.465 155.937 253.092 156.327C252.728 156.717 252.546 157.284 252.546 158.03V161.969H251.363V154.845H252.546V155.859C252.78 155.495 253.096 155.213 253.495 155.014C253.902 154.814 254.349 154.715 254.834 154.715ZM262.616 154.728C263.232 154.728 263.769 154.862 264.228 155.131C264.696 155.399 265.043 155.737 265.268 156.145V154.845H266.464V162.125C266.464 162.775 266.326 163.351 266.048 163.854C265.771 164.365 265.372 164.764 264.852 165.05C264.341 165.336 263.743 165.479 263.058 165.479C262.122 165.479 261.342 165.258 260.718 164.816C260.094 164.374 259.726 163.771 259.613 163.009H260.783C260.913 163.442 261.182 163.789 261.589 164.049C261.997 164.317 262.486 164.452 263.058 164.452C263.708 164.452 264.237 164.248 264.644 163.841C265.06 163.433 265.268 162.861 265.268 162.125V160.63C265.034 161.046 264.688 161.392 264.228 161.67C263.769 161.947 263.232 162.086 262.616 162.086C261.984 162.086 261.407 161.93 260.887 161.618C260.376 161.306 259.973 160.868 259.678 160.305C259.384 159.741 259.236 159.1 259.236 158.381C259.236 157.653 259.384 157.016 259.678 156.47C259.973 155.915 260.376 155.486 260.887 155.183C261.407 154.879 261.984 154.728 262.616 154.728ZM265.268 158.394C265.268 157.856 265.16 157.388 264.943 156.99C264.727 156.591 264.432 156.288 264.059 156.08C263.695 155.863 263.292 155.755 262.85 155.755C262.408 155.755 262.005 155.859 261.641 156.067C261.277 156.275 260.987 156.578 260.77 156.977C260.554 157.375 260.445 157.843 260.445 158.381C260.445 158.927 260.554 159.403 260.77 159.811C260.987 160.209 261.277 160.517 261.641 160.734C262.005 160.942 262.408 161.046 262.85 161.046C263.292 161.046 263.695 160.942 264.059 160.734C264.432 160.517 264.727 160.209 264.943 159.811C265.16 159.403 265.268 158.931 265.268 158.394ZM29.2562 174.715C30.1228 174.715 30.8248 174.979 31.3622 175.508C31.8995 176.028 32.1682 176.782 32.1682 177.77V181.969H30.9982V177.939C30.9982 177.228 30.8205 176.686 30.4652 176.314C30.1098 175.932 29.6245 175.742 29.0092 175.742C28.3852 175.742 27.8868 175.937 27.5142 176.327C27.1502 176.717 26.9682 177.284 26.9682 178.03V181.969H25.7852V174.845H26.9682V175.859C27.2022 175.495 27.5185 175.213 27.9172 175.014C28.3245 174.814 28.7708 174.715 29.2562 174.715ZM37.2076 182.086C36.5403 182.086 35.9336 181.934 35.3876 181.631C34.8503 181.327 34.4256 180.898 34.1136 180.344C33.8103 179.78 33.6586 179.13 33.6586 178.394C33.6586 177.666 33.8146 177.024 34.1266 176.47C34.4473 175.906 34.8806 175.477 35.4266 175.183C35.9726 174.879 36.5836 174.728 37.2596 174.728C37.9356 174.728 38.5466 174.879 39.0926 175.183C39.6386 175.477 40.0676 175.902 40.3796 176.457C40.7003 177.011 40.8606 177.657 40.8606 178.394C40.8606 179.13 40.6959 179.78 40.3666 180.344C40.0459 180.898 39.6083 181.327 39.0536 181.631C38.4989 181.934 37.8836 182.086 37.2076 182.086ZM37.2076 181.046C37.6323 181.046 38.0309 180.946 38.4036 180.747C38.7763 180.547 39.0753 180.248 39.3006 179.85C39.5346 179.451 39.6516 178.966 39.6516 178.394C39.6516 177.822 39.5389 177.336 39.3136 176.938C39.0883 176.539 38.7936 176.244 38.4296 176.054C38.0656 175.854 37.6713 175.755 37.2466 175.755C36.8133 175.755 36.4146 175.854 36.0506 176.054C35.6953 176.244 35.4093 176.539 35.1926 176.938C34.9759 177.336 34.8676 177.822 34.8676 178.394C34.8676 178.974 34.9716 179.464 35.1796 179.863C35.3963 180.261 35.6823 180.56 36.0376 180.76C36.3929 180.95 36.7829 181.046 37.2076 181.046ZM43.859 175.82V180.019C43.859 180.365 43.9327 180.612 44.08 180.76C44.2274 180.898 44.483 180.968 44.847 180.968H45.718V181.969H44.652C43.9934 181.969 43.4994 181.817 43.17 181.514C42.8407 181.21 42.676 180.712 42.676 180.019V175.82H41.753V174.845H42.676V173.051H43.859V174.845H45.718V175.82H43.859ZM47.7624 173.688C47.5371 173.688 47.3464 173.61 47.1904 173.454C47.0344 173.298 46.9564 173.107 46.9564 172.882C46.9564 172.656 47.0344 172.466 47.1904 172.31C47.3464 172.154 47.5371 172.076 47.7624 172.076C47.9791 172.076 48.1611 172.154 48.3084 172.31C48.4644 172.466 48.5424 172.656 48.5424 172.882C48.5424 173.107 48.4644 173.298 48.3084 173.454C48.1611 173.61 47.9791 173.688 47.7624 173.688ZM48.3344 174.845V181.969H47.1514V174.845H48.3344ZM53.2496 175.82H51.7546V181.969H50.5716V175.82H49.6486V174.845H50.5716V174.338C50.5716 173.54 50.7753 172.96 51.1826 172.596C51.5986 172.223 52.2616 172.037 53.1716 172.037V173.025C52.6516 173.025 52.2833 173.129 52.0666 173.337C51.8586 173.536 51.7546 173.87 51.7546 174.338V174.845H53.2496V175.82ZM55.2399 173.688C55.0146 173.688 54.8239 173.61 54.6679 173.454C54.5119 173.298 54.4339 173.107 54.4339 172.882C54.4339 172.656 54.5119 172.466 54.6679 172.31C54.8239 172.154 55.0146 172.076 55.2399 172.076C55.4566 172.076 55.6386 172.154 55.7859 172.31C55.9419 172.466 56.0199 172.656 56.0199 172.882C56.0199 173.107 55.9419 173.298 55.7859 173.454C55.6386 173.61 55.4566 173.688 55.2399 173.688ZM55.8119 174.845V181.969H54.6289V174.845H55.8119ZM57.3861 178.394C57.3861 177.657 57.5335 177.016 57.8281 176.47C58.1228 175.915 58.5301 175.486 59.0501 175.183C59.5788 174.879 60.1811 174.728 60.8571 174.728C61.7325 174.728 62.4518 174.94 63.0151 175.365C63.5871 175.789 63.9641 176.379 64.1461 177.133H62.8721C62.7508 176.699 62.5125 176.357 62.1571 176.106C61.8105 175.854 61.3771 175.729 60.8571 175.729C60.1811 175.729 59.6351 175.963 59.2191 176.431C58.8031 176.89 58.5951 177.544 58.5951 178.394C58.5951 179.252 58.8031 179.915 59.2191 180.383C59.6351 180.851 60.1811 181.085 60.8571 181.085C61.3771 181.085 61.8105 180.963 62.1571 180.721C62.5038 180.478 62.7421 180.131 62.8721 179.681H64.1461C63.9555 180.409 63.5741 180.994 63.0021 181.436C62.4301 181.869 61.7151 182.086 60.8571 182.086C60.1811 182.086 59.5788 181.934 59.0501 181.631C58.5301 181.327 58.1228 180.898 57.8281 180.344C57.5335 179.789 57.3861 179.139 57.3861 178.394ZM65.2826 178.381C65.2826 177.653 65.43 177.016 65.7246 176.47C66.0193 175.915 66.4223 175.486 66.9336 175.183C67.4536 174.879 68.03 174.728 68.6626 174.728C69.2866 174.728 69.8283 174.862 70.2876 175.131C70.747 175.399 71.0893 175.737 71.3146 176.145V174.845H72.5106V181.969H71.3146V180.643C71.0806 181.059 70.7296 181.405 70.2616 181.683C69.8023 181.951 69.265 182.086 68.6496 182.086C68.017 182.086 67.445 181.93 66.9336 181.618C66.4223 181.306 66.0193 180.868 65.7246 180.305C65.43 179.741 65.2826 179.1 65.2826 178.381ZM71.3146 178.394C71.3146 177.856 71.2063 177.388 70.9896 176.99C70.773 176.591 70.4783 176.288 70.1056 176.08C69.7416 175.863 69.3386 175.755 68.8966 175.755C68.4546 175.755 68.0516 175.859 67.6876 176.067C67.3236 176.275 67.0333 176.578 66.8166 176.977C66.6 177.375 66.4916 177.843 66.4916 178.381C66.4916 178.927 66.6 179.403 66.8166 179.811C67.0333 180.209 67.3236 180.517 67.6876 180.734C68.0516 180.942 68.4546 181.046 68.8966 181.046C69.3386 181.046 69.7416 180.942 70.1056 180.734C70.4783 180.517 70.773 180.209 70.9896 179.811C71.2063 179.403 71.3146 178.931 71.3146 178.394ZM75.9528 175.82V180.019C75.9528 180.365 76.0265 180.612 76.1738 180.76C76.3211 180.898 76.5768 180.968 76.9408 180.968H77.8118V181.969H76.7458C76.0871 181.969 75.5931 181.817 75.2638 181.514C74.9345 181.21 74.7698 180.712 74.7698 180.019V175.82H73.8468V174.845H74.7698V173.051H75.9528V174.845H77.8118V175.82H75.9528ZM79.8561 173.688C79.6308 173.688 79.4401 173.61 79.2841 173.454C79.1281 173.298 79.0501 173.107 79.0501 172.882C79.0501 172.656 79.1281 172.466 79.2841 172.31C79.4401 172.154 79.6308 172.076 79.8561 172.076C80.0728 172.076 80.2548 172.154 80.4021 172.31C80.5581 172.466 80.6361 172.656 80.6361 172.882C80.6361 173.107 80.5581 173.298 80.4021 173.454C80.2548 173.61 80.0728 173.688 79.8561 173.688ZM80.4281 174.845V181.969H79.2451V174.845H80.4281ZM85.5514 182.086C84.884 182.086 84.2774 181.934 83.7314 181.631C83.194 181.327 82.7694 180.898 82.4574 180.344C82.154 179.78 82.0024 179.13 82.0024 178.394C82.0024 177.666 82.1584 177.024 82.4704 176.47C82.791 175.906 83.2244 175.477 83.7704 175.183C84.3164 174.879 84.9274 174.728 85.6034 174.728C86.2794 174.728 86.8904 174.879 87.4364 175.183C87.9824 175.477 88.4114 175.902 88.7234 176.457C89.044 177.011 89.2044 177.657 89.2044 178.394C89.2044 179.13 89.0397 179.78 88.7104 180.344C88.3897 180.898 87.952 181.327 87.3974 181.631C86.8427 181.934 86.2274 182.086 85.5514 182.086ZM85.5514 181.046C85.976 181.046 86.3747 180.946 86.7474 180.747C87.12 180.547 87.419 180.248 87.6444 179.85C87.8784 179.451 87.9954 178.966 87.9954 178.394C87.9954 177.822 87.8827 177.336 87.6574 176.938C87.432 176.539 87.1374 176.244 86.7734 176.054C86.4094 175.854 86.015 175.755 85.5904 175.755C85.157 175.755 84.7584 175.854 84.3944 176.054C84.039 176.244 83.753 176.539 83.5364 176.938C83.3197 177.336 83.2114 177.822 83.2114 178.394C83.2114 178.974 83.3154 179.464 83.5234 179.863C83.74 180.261 84.026 180.56 84.3814 180.76C84.7367 180.95 85.1267 181.046 85.5514 181.046ZM94.2308 174.715C95.0975 174.715 95.7995 174.979 96.3368 175.508C96.8741 176.028 97.1428 176.782 97.1428 177.77V181.969H95.9728V177.939C95.9728 177.228 95.7951 176.686 95.4398 176.314C95.0845 175.932 94.5991 175.742 93.9838 175.742C93.3598 175.742 92.8615 175.937 92.4888 176.327C92.1248 176.717 91.9428 177.284 91.9428 178.03V181.969H90.7598V174.845H91.9428V175.859C92.1768 175.495 92.4931 175.213 92.8918 175.014C93.2991 174.814 93.7455 174.715 94.2308 174.715ZM101.597 182.086C101.051 182.086 100.562 181.995 100.128 181.813C99.6949 181.622 99.3526 181.362 99.1012 181.033C98.8499 180.695 98.7112 180.309 98.6852 179.876H99.9072C99.9419 180.231 100.107 180.521 100.401 180.747C100.705 180.972 101.099 181.085 101.584 181.085C102.035 181.085 102.39 180.985 102.65 180.786C102.91 180.586 103.04 180.335 103.04 180.032C103.04 179.72 102.902 179.49 102.624 179.343C102.347 179.187 101.918 179.035 101.337 178.888C100.809 178.749 100.375 178.61 100.037 178.472C99.7079 178.324 99.4219 178.112 99.1792 177.835C98.9452 177.549 98.8282 177.176 98.8282 176.717C98.8282 176.353 98.9366 176.019 99.1532 175.716C99.3699 175.412 99.6776 175.174 100.076 175.001C100.475 174.819 100.93 174.728 101.441 174.728C102.23 174.728 102.867 174.927 103.352 175.326C103.838 175.724 104.098 176.27 104.132 176.964H102.949C102.923 176.591 102.772 176.292 102.494 176.067C102.226 175.841 101.862 175.729 101.402 175.729C100.978 175.729 100.64 175.82 100.388 176.002C100.137 176.184 100.011 176.422 100.011 176.717C100.011 176.951 100.085 177.146 100.232 177.302C100.388 177.449 100.579 177.57 100.804 177.666C101.038 177.752 101.359 177.852 101.766 177.965C102.278 178.103 102.694 178.242 103.014 178.381C103.335 178.511 103.608 178.71 103.833 178.979C104.067 179.247 104.189 179.598 104.197 180.032C104.197 180.422 104.089 180.773 103.872 181.085C103.656 181.397 103.348 181.644 102.949 181.826C102.559 181.999 102.109 182.086 101.597 182.086ZM133.516 175.82V180.019C133.516 180.365 133.589 180.612 133.737 180.76C133.884 180.898 134.14 180.968 134.504 180.968H135.375V181.969H134.309C133.65 181.969 133.156 181.817 132.827 181.514C132.497 181.21 132.333 180.712 132.333 180.019V175.82H131.41V174.845H132.333V173.051H133.516V174.845H135.375V175.82H133.516ZM139.915 182.086C139.248 182.086 138.641 181.934 138.095 181.631C137.558 181.327 137.133 180.898 136.821 180.344C136.518 179.78 136.366 179.13 136.366 178.394C136.366 177.666 136.522 177.024 136.834 176.47C137.155 175.906 137.588 175.477 138.134 175.183C138.68 174.879 139.291 174.728 139.967 174.728C140.643 174.728 141.254 174.879 141.8 175.183C142.346 175.477 142.775 175.902 143.087 176.457C143.408 177.011 143.568 177.657 143.568 178.394C143.568 179.13 143.404 179.78 143.074 180.344C142.754 180.898 142.316 181.327 141.761 181.631C141.207 181.934 140.591 182.086 139.915 182.086ZM139.915 181.046C140.34 181.046 140.739 180.946 141.111 180.747C141.484 180.547 141.783 180.248 142.008 179.85C142.242 179.451 142.359 178.966 142.359 178.394C142.359 177.822 142.247 177.336 142.021 176.938C141.796 176.539 141.501 176.244 141.137 176.054C140.773 175.854 140.379 175.755 139.954 175.755C139.521 175.755 139.122 175.854 138.758 176.054C138.403 176.244 138.117 176.539 137.9 176.938C137.684 177.336 137.575 177.822 137.575 178.394C137.575 178.974 137.679 179.464 137.887 179.863C138.104 180.261 138.39 180.56 138.745 180.76C139.101 180.95 139.491 181.046 139.915 181.046ZM172.512 176.002C172.72 175.594 173.015 175.278 173.396 175.053C173.786 174.827 174.259 174.715 174.813 174.715V175.937H174.501C173.175 175.937 172.512 176.656 172.512 178.095V181.969H171.329V174.845H172.512V176.002ZM182.679 178.134C182.679 178.359 182.666 178.597 182.64 178.849H176.946C176.989 179.551 177.227 180.101 177.661 180.5C178.103 180.89 178.636 181.085 179.26 181.085C179.771 181.085 180.196 180.968 180.534 180.734C180.88 180.491 181.123 180.17 181.262 179.772H182.536C182.345 180.456 181.964 181.015 181.392 181.449C180.82 181.873 180.109 182.086 179.26 182.086C178.584 182.086 177.977 181.934 177.44 181.631C176.911 181.327 176.495 180.898 176.192 180.344C175.888 179.78 175.737 179.13 175.737 178.394C175.737 177.657 175.884 177.011 176.179 176.457C176.473 175.902 176.885 175.477 177.414 175.183C177.951 174.879 178.566 174.728 179.26 174.728C179.936 174.728 180.534 174.875 181.054 175.17C181.574 175.464 181.972 175.872 182.25 176.392C182.536 176.903 182.679 177.484 182.679 178.134ZM181.457 177.887C181.457 177.436 181.357 177.05 181.158 176.73C180.958 176.4 180.685 176.153 180.339 175.989C180.001 175.815 179.624 175.729 179.208 175.729C178.61 175.729 178.098 175.919 177.674 176.301C177.258 176.682 177.019 177.211 176.959 177.887H181.457ZM186.892 180.877L189.102 174.845H190.363L187.568 181.969H186.19L183.395 174.845H184.669L186.892 180.877ZM192.138 173.688C191.913 173.688 191.722 173.61 191.566 173.454C191.41 173.298 191.332 173.107 191.332 172.882C191.332 172.656 191.41 172.466 191.566 172.31C191.722 172.154 191.913 172.076 192.138 172.076C192.355 172.076 192.537 172.154 192.684 172.31C192.84 172.466 192.918 172.656 192.918 172.882C192.918 173.107 192.84 173.298 192.684 173.454C192.537 173.61 192.355 173.688 192.138 173.688ZM192.71 174.845V181.969H191.527V174.845H192.71ZM201.227 178.134C201.227 178.359 201.214 178.597 201.188 178.849H195.494C195.537 179.551 195.775 180.101 196.209 180.5C196.651 180.89 197.184 181.085 197.808 181.085C198.319 181.085 198.744 180.968 199.082 180.734C199.428 180.491 199.671 180.17 199.81 179.772H201.084C200.893 180.456 200.512 181.015 199.94 181.449C199.368 181.873 198.657 182.086 197.808 182.086C197.132 182.086 196.525 181.934 195.988 181.631C195.459 181.327 195.043 180.898 194.74 180.344C194.436 179.78 194.285 179.13 194.285 178.394C194.285 177.657 194.432 177.011 194.727 176.457C195.021 175.902 195.433 175.477 195.962 175.183C196.499 174.879 197.114 174.728 197.808 174.728C198.484 174.728 199.082 174.875 199.602 175.17C200.122 175.464 200.52 175.872 200.798 176.392C201.084 176.903 201.227 177.484 201.227 178.134ZM200.005 177.887C200.005 177.436 199.905 177.05 199.706 176.73C199.506 176.4 199.233 176.153 198.887 175.989C198.549 175.815 198.172 175.729 197.756 175.729C197.158 175.729 196.646 175.919 196.222 176.301C195.806 176.682 195.567 177.211 195.507 177.887H200.005ZM212.278 174.845L210.055 181.969H208.833L207.117 176.314L205.401 181.969H204.179L201.943 174.845H203.152L204.79 180.825L206.558 174.845H207.767L209.496 180.838L211.108 174.845H212.278ZM245.794 174.845L241.504 185.323H240.282L241.686 181.891L238.813 174.845H240.126L242.362 180.617L244.572 174.845H245.794ZM250.09 182.086C249.423 182.086 248.816 181.934 248.27 181.631C247.733 181.327 247.308 180.898 246.996 180.344C246.693 179.78 246.541 179.13 246.541 178.394C246.541 177.666 246.697 177.024 247.009 176.47C247.33 175.906 247.763 175.477 248.309 175.183C248.855 174.879 249.466 174.728 250.142 174.728C250.818 174.728 251.429 174.879 251.975 175.183C252.521 175.477 252.95 175.902 253.262 176.457C253.583 177.011 253.743 177.657 253.743 178.394C253.743 179.13 253.578 179.78 253.249 180.344C252.928 180.898 252.491 181.327 251.936 181.631C251.381 181.934 250.766 182.086 250.09 182.086ZM250.09 181.046C250.515 181.046 250.913 180.946 251.286 180.747C251.659 180.547 251.958 180.248 252.183 179.85C252.417 179.451 252.534 178.966 252.534 178.394C252.534 177.822 252.421 177.336 252.196 176.938C251.971 176.539 251.676 176.244 251.312 176.054C250.948 175.854 250.554 175.755 250.129 175.755C249.696 175.755 249.297 175.854 248.933 176.054C248.578 176.244 248.292 176.539 248.075 176.938C247.858 177.336 247.75 177.822 247.75 178.394C247.75 178.974 247.854 179.464 248.062 179.863C248.279 180.261 248.565 180.56 248.92 180.76C249.275 180.95 249.665 181.046 250.09 181.046ZM261.616 174.845V181.969H260.433V180.916C260.208 181.28 259.892 181.566 259.484 181.774C259.086 181.973 258.644 182.073 258.158 182.073C257.604 182.073 257.105 181.96 256.663 181.735C256.221 181.501 255.87 181.154 255.61 180.695C255.359 180.235 255.233 179.676 255.233 179.018V174.845H256.403V178.862C256.403 179.564 256.581 180.105 256.936 180.487C257.292 180.859 257.777 181.046 258.392 181.046C259.025 181.046 259.523 180.851 259.887 180.461C260.251 180.071 260.433 179.503 260.433 178.758V174.845H261.616ZM264.797 176.002C265.005 175.594 265.3 175.278 265.681 175.053C266.071 174.827 266.543 174.715 267.098 174.715V175.937H266.786C265.46 175.937 264.797 176.656 264.797 178.095V181.969H263.614V174.845H264.797V176.002ZM25.3432 198.381C25.3432 197.653 25.4905 197.016 25.7852 196.47C26.0798 195.915 26.4828 195.486 26.9942 195.183C27.5142 194.879 28.0948 194.728 28.7362 194.728C29.3515 194.728 29.8888 194.866 30.3482 195.144C30.8162 195.412 31.1585 195.746 31.3752 196.145V194.845H32.5712V205.349H31.3752V200.656C31.1498 201.054 30.8032 201.392 30.3352 201.67C29.8672 201.947 29.3212 202.086 28.6972 202.086C28.0732 202.086 27.5055 201.93 26.9942 201.618C26.4828 201.306 26.0798 200.868 25.7852 200.305C25.4905 199.741 25.3432 199.1 25.3432 198.381ZM31.3752 198.394C31.3752 197.856 31.2668 197.388 31.0502 196.99C30.8335 196.591 30.5388 196.288 30.1662 196.08C29.8022 195.863 29.3992 195.755 28.9572 195.755C28.5152 195.755 28.1122 195.859 27.7482 196.067C27.3842 196.275 27.0938 196.578 26.8772 196.977C26.6605 197.375 26.5522 197.843 26.5522 198.381C26.5522 198.927 26.6605 199.403 26.8772 199.811C27.0938 200.209 27.3842 200.517 27.7482 200.734C28.1122 200.942 28.5152 201.046 28.9572 201.046C29.3992 201.046 29.8022 200.942 30.1662 200.734C30.5388 200.517 30.8335 200.209 31.0502 199.811C31.2668 199.403 31.3752 198.931 31.3752 198.394ZM40.8883 194.845V201.969H39.7053V200.916C39.48 201.28 39.1637 201.566 38.7563 201.774C38.3577 201.973 37.9157 202.073 37.4303 202.073C36.8757 202.073 36.3773 201.96 35.9353 201.735C35.4933 201.501 35.1423 201.154 34.8823 200.695C34.631 200.235 34.5053 199.676 34.5053 199.018V194.845H35.6753V198.862C35.6753 199.564 35.853 200.105 36.2083 200.487C36.5637 200.859 37.049 201.046 37.6643 201.046C38.297 201.046 38.7953 200.851 39.1593 200.461C39.5233 200.071 39.7053 199.503 39.7053 198.758V194.845H40.8883ZM49.3858 198.134C49.3858 198.359 49.3728 198.597 49.3468 198.849H43.6528C43.6961 199.551 43.9344 200.101 44.3678 200.5C44.8098 200.89 45.3428 201.085 45.9668 201.085C46.4781 201.085 46.9028 200.968 47.2408 200.734C47.5874 200.491 47.8301 200.17 47.9688 199.772H49.2428C49.0521 200.456 48.6708 201.015 48.0988 201.449C47.5268 201.873 46.8161 202.086 45.9668 202.086C45.2908 202.086 44.6841 201.934 44.1468 201.631C43.6181 201.327 43.2021 200.898 42.8988 200.344C42.5954 199.78 42.4438 199.13 42.4438 198.394C42.4438 197.657 42.5911 197.011 42.8858 196.457C43.1804 195.902 43.5921 195.477 44.1208 195.183C44.6581 194.879 45.2734 194.728 45.9668 194.728C46.6428 194.728 47.2408 194.875 47.7608 195.17C48.2808 195.464 48.6794 195.872 48.9568 196.392C49.2428 196.903 49.3858 197.484 49.3858 198.134ZM48.1638 197.887C48.1638 197.436 48.0641 197.05 47.8648 196.73C47.6654 196.4 47.3924 196.153 47.0458 195.989C46.7078 195.815 46.3308 195.729 45.9148 195.729C45.3168 195.729 44.8054 195.919 44.3808 196.301C43.9648 196.682 43.7264 197.211 43.6658 197.887H48.1638ZM53.4693 202.086C52.9233 202.086 52.4336 201.995 52.0003 201.813C51.567 201.622 51.2246 201.362 50.9733 201.033C50.722 200.695 50.5833 200.309 50.5573 199.876H51.7793C51.814 200.231 51.9786 200.521 52.2733 200.747C52.5766 200.972 52.971 201.085 53.4563 201.085C53.907 201.085 54.2623 200.985 54.5223 200.786C54.7823 200.586 54.9123 200.335 54.9123 200.032C54.9123 199.72 54.7736 199.49 54.4963 199.343C54.219 199.187 53.79 199.035 53.2093 198.888C52.6806 198.749 52.2473 198.61 51.9093 198.472C51.58 198.324 51.294 198.112 51.0513 197.835C50.8173 197.549 50.7003 197.176 50.7003 196.717C50.7003 196.353 50.8086 196.019 51.0253 195.716C51.242 195.412 51.5496 195.174 51.9483 195.001C52.347 194.819 52.802 194.728 53.3133 194.728C54.102 194.728 54.739 194.927 55.2243 195.326C55.7096 195.724 55.9696 196.27 56.0043 196.964H54.8213C54.7953 196.591 54.6436 196.292 54.3663 196.067C54.0976 195.841 53.7336 195.729 53.2743 195.729C52.8496 195.729 52.5116 195.82 52.2603 196.002C52.009 196.184 51.8833 196.422 51.8833 196.717C51.8833 196.951 51.957 197.146 52.1043 197.302C52.2603 197.449 52.451 197.57 52.6763 197.666C52.9103 197.752 53.231 197.852 53.6383 197.965C54.1496 198.103 54.5656 198.242 54.8863 198.381C55.207 198.511 55.48 198.71 55.7053 198.979C55.9393 199.247 56.0606 199.598 56.0693 200.032C56.0693 200.422 55.961 200.773 55.7443 201.085C55.5276 201.397 55.22 201.644 54.8213 201.826C54.4313 201.999 53.9806 202.086 53.4693 202.086ZM59.1823 195.82V200.019C59.1823 200.365 59.2559 200.612 59.4033 200.76C59.5506 200.898 59.8063 200.968 60.1703 200.968H61.0413V201.969H59.9753C59.3166 201.969 58.8226 201.817 58.4933 201.514C58.1639 201.21 57.9993 200.712 57.9993 200.019V195.82H57.0763V194.845H57.9993V193.051H59.1823V194.845H61.0413V195.82H59.1823ZM63.0856 193.688C62.8603 193.688 62.6696 193.61 62.5136 193.454C62.3576 193.298 62.2796 193.107 62.2796 192.882C62.2796 192.656 62.3576 192.466 62.5136 192.31C62.6696 192.154 62.8603 192.076 63.0856 192.076C63.3023 192.076 63.4843 192.154 63.6316 192.31C63.7876 192.466 63.8656 192.656 63.8656 192.882C63.8656 193.107 63.7876 193.298 63.6316 193.454C63.4843 193.61 63.3023 193.688 63.0856 193.688ZM63.6576 194.845V201.969H62.4746V194.845H63.6576ZM68.7809 202.086C68.1135 202.086 67.5069 201.934 66.9609 201.631C66.4235 201.327 65.9989 200.898 65.6869 200.344C65.3835 199.78 65.2319 199.13 65.2319 198.394C65.2319 197.666 65.3879 197.024 65.6999 196.47C66.0205 195.906 66.4539 195.477 66.9999 195.183C67.5459 194.879 68.1569 194.728 68.8329 194.728C69.5089 194.728 70.1199 194.879 70.6659 195.183C71.2119 195.477 71.6409 195.902 71.9529 196.457C72.2735 197.011 72.4339 197.657 72.4339 198.394C72.4339 199.13 72.2692 199.78 71.9399 200.344C71.6192 200.898 71.1815 201.327 70.6269 201.631C70.0722 201.934 69.4569 202.086 68.7809 202.086ZM68.7809 201.046C69.2055 201.046 69.6042 200.946 69.9769 200.747C70.3495 200.547 70.6485 200.248 70.8739 199.85C71.1079 199.451 71.2249 198.966 71.2249 198.394C71.2249 197.822 71.1122 197.336 70.8869 196.938C70.6615 196.539 70.3669 196.244 70.0029 196.054C69.6389 195.854 69.2445 195.755 68.8199 195.755C68.3865 195.755 67.9879 195.854 67.6239 196.054C67.2685 196.244 66.9825 196.539 66.7659 196.938C66.5492 197.336 66.4409 197.822 66.4409 198.394C66.4409 198.974 66.5449 199.464 66.7529 199.863C66.9695 200.261 67.2555 200.56 67.6109 200.76C67.9662 200.95 68.3562 201.046 68.7809 201.046ZM77.4603 194.715C78.3269 194.715 79.0289 194.979 79.5663 195.508C80.1036 196.028 80.3723 196.782 80.3723 197.77V201.969H79.2023V197.939C79.2023 197.228 79.0246 196.686 78.6693 196.314C78.3139 195.932 77.8286 195.742 77.2133 195.742C76.5893 195.742 76.0909 195.937 75.7183 196.327C75.3543 196.717 75.1723 197.284 75.1723 198.03V201.969H73.9893V194.845H75.1723V195.859C75.4063 195.495 75.7226 195.213 76.1213 195.014C76.5286 194.814 76.9749 194.715 77.4603 194.715ZM84.8267 202.086C84.2807 202.086 83.791 201.995 83.3577 201.813C82.9244 201.622 82.582 201.362 82.3307 201.033C82.0794 200.695 81.9407 200.309 81.9147 199.876H83.1367C83.1714 200.231 83.336 200.521 83.6307 200.747C83.934 200.972 84.3284 201.085 84.8137 201.085C85.2644 201.085 85.6197 200.985 85.8797 200.786C86.1397 200.586 86.2697 200.335 86.2697 200.032C86.2697 199.72 86.131 199.49 85.8537 199.343C85.5764 199.187 85.1474 199.035 84.5667 198.888C84.038 198.749 83.6047 198.61 83.2667 198.472C82.9374 198.324 82.6514 198.112 82.4087 197.835C82.1747 197.549 82.0577 197.176 82.0577 196.717C82.0577 196.353 82.166 196.019 82.3827 195.716C82.5994 195.412 82.907 195.174 83.3057 195.001C83.7044 194.819 84.1594 194.728 84.6707 194.728C85.4594 194.728 86.0964 194.927 86.5817 195.326C87.067 195.724 87.327 196.27 87.3617 196.964H86.1787C86.1527 196.591 86.001 196.292 85.7237 196.067C85.455 195.841 85.091 195.729 84.6317 195.729C84.207 195.729 83.869 195.82 83.6177 196.002C83.3664 196.184 83.2407 196.422 83.2407 196.717C83.2407 196.951 83.3144 197.146 83.4617 197.302C83.6177 197.449 83.8084 197.57 84.0337 197.666C84.2677 197.752 84.5884 197.852 84.9957 197.965C85.507 198.103 85.923 198.242 86.2437 198.381C86.5644 198.511 86.8374 198.71 87.0627 198.979C87.2967 199.247 87.418 199.598 87.4267 200.032C87.4267 200.422 87.3184 200.773 87.1017 201.085C86.885 201.397 86.5774 201.644 86.1787 201.826C85.7887 201.999 85.338 202.086 84.8267 202.086Z" fill="#505050"/>
<path d="M19.4212 114.772H22.9252V117.172H16.2852V105.892H19.4212V114.772ZM27.2805 108.404V110.244H30.8805V112.628H27.2805V114.66H31.3605V117.172H24.1445V105.892H31.3605V108.404H27.2805ZM40.0462 115.332H36.0462L35.4382 117.172H32.1422L36.2542 105.892H39.8702L43.9662 117.172H40.6542L40.0462 115.332ZM39.2622 112.932L38.0462 109.284L36.8462 112.932H39.2622ZM50.7003 117.172L48.4603 113.012H48.1243V117.172H44.9883V105.892H49.9323C50.839 105.892 51.607 106.052 52.2363 106.372C52.8656 106.681 53.3403 107.113 53.6603 107.668C53.9803 108.212 54.1403 108.825 54.1403 109.508C54.1403 110.276 53.927 110.953 53.5003 111.54C53.0843 112.116 52.471 112.527 51.6603 112.772L54.2043 117.172H50.7003ZM48.1243 110.868H49.6763C50.103 110.868 50.423 110.767 50.6363 110.564C50.8496 110.361 50.9563 110.068 50.9563 109.684C50.9563 109.321 50.8443 109.039 50.6203 108.836C50.407 108.623 50.0923 108.516 49.6763 108.516H48.1243V110.868ZM66.0144 117.172H62.8784L58.7024 110.868V117.172H55.5664V105.892H58.7024L62.8784 112.276V105.892H66.0144V117.172ZM70.9368 105.892V117.172H67.8008V105.892H70.9368ZM83.1707 117.172H80.0347L75.8587 110.868V117.172H72.7227V105.892H75.8587L80.0347 112.276V105.892H83.1707V117.172ZM92.157 109.604C91.9757 109.305 91.725 109.076 91.405 108.916C91.0957 108.756 90.7277 108.676 90.301 108.676C89.5117 108.676 88.8877 108.932 88.429 109.444C87.981 109.956 87.757 110.644 87.757 111.508C87.757 112.479 87.997 113.22 88.477 113.732C88.9677 114.233 89.677 114.484 90.605 114.484C91.7037 114.484 92.4877 113.988 92.957 112.996H89.805V110.74H95.661V113.78C95.4157 114.377 95.053 114.937 94.573 115.46C94.1037 115.983 93.5064 116.415 92.781 116.756C92.0557 117.087 91.229 117.252 90.301 117.252C89.1704 117.252 88.1677 117.012 87.293 116.532C86.429 116.041 85.757 115.364 85.277 114.5C84.8077 113.625 84.573 112.628 84.573 111.508C84.573 110.399 84.8077 109.412 85.277 108.548C85.757 107.673 86.429 106.996 87.293 106.516C88.157 106.025 89.1544 105.78 90.285 105.78C91.7037 105.78 92.877 106.121 93.805 106.804C94.733 107.487 95.309 108.42 95.533 109.604H92.157ZM104.385 117.284C103.073 117.284 101.996 116.975 101.153 116.356C100.31 115.727 99.8569 114.831 99.7929 113.668H103.137C103.169 114.063 103.286 114.351 103.489 114.532C103.692 114.713 103.953 114.804 104.273 114.804C104.561 114.804 104.796 114.735 104.977 114.596C105.169 114.447 105.265 114.244 105.265 113.988C105.265 113.657 105.11 113.401 104.801 113.22C104.492 113.039 103.99 112.836 103.297 112.612C102.561 112.367 101.964 112.132 101.505 111.908C101.057 111.673 100.662 111.337 100.321 110.9C99.9902 110.452 99.8249 109.871 99.8249 109.156C99.8249 108.431 100.006 107.812 100.369 107.3C100.732 106.777 101.233 106.383 101.873 106.116C102.513 105.849 103.238 105.716 104.049 105.716C105.361 105.716 106.406 106.025 107.185 106.644C107.974 107.252 108.396 108.111 108.449 109.22H105.041C105.03 108.879 104.924 108.623 104.721 108.452C104.529 108.281 104.278 108.196 103.969 108.196C103.734 108.196 103.542 108.265 103.393 108.404C103.244 108.543 103.169 108.74 103.169 108.996C103.169 109.209 103.249 109.396 103.409 109.556C103.58 109.705 103.788 109.839 104.033 109.956C104.278 110.063 104.641 110.201 105.121 110.372C105.836 110.617 106.422 110.863 106.881 111.108C107.35 111.343 107.75 111.679 108.081 112.116C108.422 112.543 108.593 113.087 108.593 113.748C108.593 114.42 108.422 115.023 108.081 115.556C107.75 116.089 107.265 116.511 106.625 116.82C105.996 117.129 105.249 117.284 104.385 117.284ZM109.667 111.508C109.667 110.399 109.896 109.412 110.355 108.548C110.824 107.673 111.485 106.996 112.339 106.516C113.192 106.025 114.173 105.78 115.283 105.78C116.691 105.78 117.875 106.159 118.835 106.916C119.795 107.663 120.413 108.681 120.691 109.972H117.315C117.112 109.545 116.829 109.22 116.467 108.996C116.115 108.772 115.704 108.66 115.235 108.66C114.509 108.66 113.928 108.921 113.491 109.444C113.064 109.956 112.851 110.644 112.851 111.508C112.851 112.383 113.064 113.081 113.491 113.604C113.928 114.116 114.509 114.372 115.235 114.372C115.704 114.372 116.115 114.26 116.467 114.036C116.829 113.812 117.112 113.487 117.315 113.06H120.691C120.413 114.351 119.795 115.375 118.835 116.132C117.875 116.879 116.691 117.252 115.283 117.252C114.173 117.252 113.192 117.012 112.339 116.532C111.485 116.041 110.824 115.364 110.355 114.5C109.896 113.625 109.667 112.628 109.667 111.508ZM132.272 105.892V117.172H129.136V112.644H125.312V117.172H122.176V105.892H125.312V110.132H129.136V105.892H132.272ZM137.202 108.404V110.244H140.802V112.628H137.202V114.66H141.282V117.172H134.066V105.892H141.282V108.404H137.202ZM147.296 105.892C148.48 105.892 149.515 106.132 150.4 106.612C151.296 107.081 151.984 107.743 152.464 108.596C152.944 109.449 153.184 110.425 153.184 111.524C153.184 112.612 152.939 113.583 152.448 114.436C151.968 115.289 151.28 115.961 150.384 116.452C149.499 116.932 148.469 117.172 147.296 117.172H142.832V105.892H147.296ZM147.056 114.404C147.973 114.404 148.693 114.153 149.216 113.652C149.739 113.151 150 112.441 150 111.524C150 110.596 149.739 109.881 149.216 109.38C148.693 108.868 147.973 108.612 147.056 108.612H145.968V114.404H147.056ZM157.67 105.892V112.436C157.67 113.044 157.808 113.513 158.086 113.844C158.374 114.175 158.806 114.34 159.382 114.34C159.958 114.34 160.39 114.175 160.678 113.844C160.976 113.503 161.126 113.033 161.126 112.436V105.892H164.262V112.436C164.262 113.471 164.043 114.356 163.606 115.092C163.168 115.817 162.571 116.367 161.814 116.74C161.067 117.103 160.235 117.284 159.318 117.284C158.4 117.284 157.579 117.103 156.854 116.74C156.139 116.367 155.574 115.817 155.158 115.092C154.752 114.367 154.55 113.481 154.55 112.436V105.892H157.67ZM169.124 114.772H172.628V117.172H165.988V105.892H169.124V114.772ZM176.984 108.404V110.244H180.584V112.628H176.984V114.66H181.064V117.172H173.848V105.892H181.064V108.404H176.984ZM191.388 117.172L189.148 113.012H188.812V117.172H185.676V105.892H190.62C191.526 105.892 192.294 106.052 192.924 106.372C193.553 106.681 194.028 107.113 194.348 107.668C194.668 108.212 194.828 108.825 194.828 109.508C194.828 110.276 194.614 110.953 194.188 111.54C193.772 112.116 193.158 112.527 192.348 112.772L194.892 117.172H191.388ZM188.812 110.868H190.364C190.79 110.868 191.11 110.767 191.324 110.564C191.537 110.361 191.644 110.068 191.644 109.684C191.644 109.321 191.532 109.039 191.308 108.836C191.094 108.623 190.78 108.516 190.364 108.516H188.812V110.868ZM199.39 108.404V110.244H202.99V112.628H199.39V114.66H203.47V117.172H196.254V105.892H203.47V108.404H199.39ZM218.188 105.892V117.172H215.052V110.948L212.924 117.172H210.3L208.156 110.9V117.172H205.02V105.892H208.812L211.644 113.22L214.412 105.892H218.188ZM223.109 105.892V117.172H219.973V105.892H223.109ZM235.343 117.172H232.207L228.031 110.868V117.172H224.895V105.892H228.031L232.207 112.276V105.892H235.343V117.172ZM241.593 105.892C242.777 105.892 243.812 106.132 244.697 106.612C245.593 107.081 246.281 107.743 246.761 108.596C247.241 109.449 247.481 110.425 247.481 111.524C247.481 112.612 247.236 113.583 246.745 114.436C246.265 115.289 245.577 115.961 244.681 116.452C243.796 116.932 242.766 117.172 241.593 117.172H237.129V105.892H241.593ZM241.353 114.404C242.27 114.404 242.99 114.153 243.513 113.652C244.036 113.151 244.297 112.441 244.297 111.524C244.297 110.596 244.036 109.881 243.513 109.38C242.99 108.868 242.27 108.612 241.353 108.612H240.265V114.404H241.353ZM252.031 108.404V110.244H255.631V112.628H252.031V114.66H256.111V117.172H248.895V105.892H256.111V108.404H252.031ZM263.372 117.172L261.132 113.012H260.796V117.172H257.66V105.892H262.604C263.511 105.892 264.279 106.052 264.908 106.372C265.537 106.681 266.012 107.113 266.332 107.668C266.652 108.212 266.812 108.825 266.812 109.508C266.812 110.276 266.599 110.953 266.172 111.54C265.756 112.116 265.143 112.527 264.332 112.772L266.876 117.172H263.372ZM260.796 110.868H262.348C262.775 110.868 263.095 110.767 263.308 110.564C263.521 110.361 263.628 110.068 263.628 109.684C263.628 109.321 263.516 109.039 263.292 108.836C263.079 108.623 262.764 108.516 262.348 108.516H260.796V110.868Z" fill="#30372F"/>
<path d="M168.422 40.4571C168.424 39.8256 168.431 39.2225 168.419 38.6215C168.332 34.0084 165.043 30.8704 160.286 30.8573C159.569 30.8551 158.849 30.8573 158.045 30.8573V28.4163C158.045 27.0243 156.884 25.8967 155.453 25.8967H155.448C154.016 25.8967 152.855 27.0243 152.855 28.4163V30.7917C150.523 30.7917 148.297 30.7917 145.995 30.7917L140.857 30.8026C138.496 30.8026 136.265 30.8026 133.931 30.8026V28.4098C133.933 27.0177 132.772 25.8901 131.34 25.8901C129.908 25.8901 128.747 27.0177 128.747 28.4098V30.8922C125.737 30.6824 122.929 30.901 120.698 33.0862C118.728 35.0158 118.33 37.341 118.444 39.8409H118.426V48.4902H118.444C118.444 54.9739 118.442 61.4598 118.451 67.9435C118.451 68.5947 118.483 69.259 118.625 69.8927C119.45 73.5727 122.542 75.8826 126.649 75.8847C137.838 75.8935 149.028 75.8913 160.219 75.8804C160.916 75.8804 161.63 75.8367 162.306 75.6903C166.058 74.8795 168.406 71.9032 168.415 67.9369C168.429 61.0424 168.419 54.15 168.419 47.2555V40.4571H168.422ZM132.911 66.3133C131.292 66.2914 130.007 65.048 130.016 63.5117C130.025 61.9602 131.354 60.7146 132.975 60.7365C134.595 60.7583 135.88 62.0017 135.871 63.538C135.861 65.0895 134.535 66.3329 132.911 66.3133ZM132.925 56.685C131.308 56.674 130.016 55.435 130.016 53.8966C130.016 52.345 131.335 51.095 132.962 51.1082C134.579 51.1191 135.871 52.3581 135.871 53.8966C135.873 55.4481 134.551 56.6981 132.925 56.685ZM143.395 66.3133C141.762 66.2936 140.465 65.024 140.498 63.479C140.53 61.9362 141.844 60.7168 143.455 60.7365C145.088 60.7561 146.384 62.0258 146.352 63.5707C146.32 65.1135 145.005 66.3329 143.395 66.3133ZM143.443 56.685C141.817 56.6959 140.498 55.4459 140.498 53.8966C140.498 52.3603 141.792 51.1213 143.409 51.1103C145.035 51.0994 146.354 52.3494 146.354 53.8987C146.352 55.435 145.058 56.674 143.443 56.685ZM153.902 66.3133C152.287 66.3111 150.988 65.0786 150.977 63.5402C150.968 61.9908 152.28 60.7365 153.909 60.7386C155.524 60.7408 156.822 61.9733 156.834 63.5117C156.845 65.0589 155.53 66.3154 153.902 66.3133ZM153.877 56.685C152.257 56.6653 150.97 55.4219 150.979 53.8856C150.986 52.3341 152.314 51.0885 153.936 51.1082C155.556 51.1278 156.843 52.3712 156.834 53.9075C156.827 55.459 155.501 56.7046 153.877 56.685ZM164.322 41.7683C164.322 42.8063 163.456 43.6498 162.386 43.6498H124.86C123.79 43.6498 122.924 42.8085 122.924 41.7683V38.5778C122.924 36.3423 124.789 34.5307 127.086 34.5307H160.155C162.455 34.5307 164.317 36.3423 164.317 38.5778V41.7683H164.322Z" fill="#006684"/>
</svg>
