<svg width="291" height="241" viewBox="0 0 291 241" fill="none" xmlns="http://www.w3.org/2000/svg">
<rect x="0.462402" y="0.916748" width="290" height="240" fill="#E6EEF0"/>
<path d="M31.4685 152.908L28.5175 158.55V161.969H27.3345V158.55L24.3705 152.908H25.6835L27.9195 157.497L30.1555 152.908H31.4685ZM35.8233 162.086C35.156 162.086 34.5493 161.934 34.0033 161.631C33.466 161.327 33.0413 160.898 32.7293 160.344C32.426 159.78 32.2743 159.13 32.2743 158.394C32.2743 157.666 32.4303 157.024 32.7423 156.47C33.063 155.906 33.4963 155.477 34.0423 155.183C34.5883 154.879 35.1993 154.728 35.8753 154.728C36.5513 154.728 37.1623 154.879 37.7083 155.183C38.2543 155.477 38.6833 155.902 38.9953 156.457C39.316 157.011 39.4763 157.657 39.4763 158.394C39.4763 159.13 39.3117 159.78 38.9823 160.344C38.6617 160.898 38.224 161.327 37.6693 161.631C37.1147 161.934 36.4993 162.086 35.8233 162.086ZM35.8233 161.046C36.248 161.046 36.6467 160.946 37.0193 160.747C37.392 160.547 37.691 160.248 37.9163 159.85C38.1503 159.451 38.2673 158.966 38.2673 158.394C38.2673 157.822 38.1547 157.336 37.9293 156.938C37.704 156.539 37.4093 156.244 37.0453 156.054C36.6813 155.854 36.287 155.755 35.8623 155.755C35.429 155.755 35.0303 155.854 34.6663 156.054C34.311 156.244 34.025 156.539 33.8083 156.938C33.5917 157.336 33.4833 157.822 33.4833 158.394C33.4833 158.974 33.5873 159.464 33.7953 159.863C34.012 160.261 34.298 160.56 34.6533 160.76C35.0087 160.95 35.3987 161.046 35.8233 161.046ZM47.3498 154.845V161.969H46.1668V160.916C45.9414 161.28 45.6251 161.566 45.2178 161.774C44.8191 161.973 44.3771 162.073 43.8918 162.073C43.3371 162.073 42.8388 161.96 42.3968 161.735C41.9548 161.501 41.6038 161.154 41.3438 160.695C41.0924 160.235 40.9668 159.676 40.9668 159.018V154.845H42.1368V158.862C42.1368 159.564 42.3144 160.105 42.6698 160.487C43.0251 160.859 43.5104 161.046 44.1258 161.046C44.7584 161.046 45.2568 160.851 45.6208 160.461C45.9848 160.071 46.1668 159.503 46.1668 158.758V154.845H47.3498ZM49.9452 151.621L49.7892 154.208H48.9702L48.8012 151.621H49.9452ZM52.5995 156.002C52.8075 155.594 53.1022 155.278 53.4835 155.053C53.8735 154.827 54.3459 154.715 54.9005 154.715V155.937H54.5885C53.2625 155.937 52.5995 156.656 52.5995 158.095V161.969H51.4165V154.845H52.5995V156.002ZM62.7661 158.134C62.7661 158.359 62.7531 158.597 62.7271 158.849H57.0331C57.0765 159.551 57.3148 160.101 57.7481 160.5C58.1901 160.89 58.7231 161.085 59.3471 161.085C59.8585 161.085 60.2831 160.968 60.6211 160.734C60.9678 160.491 61.2105 160.17 61.3491 159.772H62.6231C62.4325 160.456 62.0511 161.015 61.4791 161.449C60.9071 161.873 60.1965 162.086 59.3471 162.086C58.6711 162.086 58.0645 161.934 57.5271 161.631C56.9985 161.327 56.5825 160.898 56.2791 160.344C55.9758 159.78 55.8241 159.13 55.8241 158.394C55.8241 157.657 55.9715 157.011 56.2661 156.457C56.5608 155.902 56.9725 155.477 57.5011 155.183C58.0385 154.879 58.6538 154.728 59.3471 154.728C60.0231 154.728 60.6211 154.875 61.1411 155.17C61.6611 155.464 62.0598 155.872 62.3371 156.392C62.6231 156.903 62.7661 157.484 62.7661 158.134ZM61.5441 157.887C61.5441 157.436 61.4445 157.05 61.2451 156.73C61.0458 156.4 60.7728 156.153 60.4261 155.989C60.0881 155.815 59.7111 155.729 59.2951 155.729C58.6971 155.729 58.1858 155.919 57.7611 156.301C57.3451 156.682 57.1068 157.211 57.0461 157.887H61.5441ZM67.5104 158.381C67.5104 157.653 67.6577 157.016 67.9524 156.47C68.2471 155.915 68.6501 155.486 69.1614 155.183C69.6814 154.879 70.2577 154.728 70.8904 154.728C71.5144 154.728 72.0561 154.862 72.5154 155.131C72.9747 155.399 73.3171 155.737 73.5424 156.145V154.845H74.7384V161.969H73.5424V160.643C73.3084 161.059 72.9574 161.405 72.4894 161.683C72.0301 161.951 71.4927 162.086 70.8774 162.086C70.2447 162.086 69.6727 161.93 69.1614 161.618C68.6501 161.306 68.2471 160.868 67.9524 160.305C67.6577 159.741 67.5104 159.1 67.5104 158.381ZM73.5424 158.394C73.5424 157.856 73.4341 157.388 73.2174 156.99C73.0007 156.591 72.7061 156.288 72.3334 156.08C71.9694 155.863 71.5664 155.755 71.1244 155.755C70.6824 155.755 70.2794 155.859 69.9154 156.067C69.5514 156.275 69.2611 156.578 69.0444 156.977C68.8277 157.375 68.7194 157.843 68.7194 158.381C68.7194 158.927 68.8277 159.403 69.0444 159.811C69.2611 160.209 69.5514 160.517 69.9154 160.734C70.2794 160.942 70.6824 161.046 71.1244 161.046C71.5664 161.046 71.9694 160.942 72.3334 160.734C72.7061 160.517 73.0007 160.209 73.2174 159.811C73.4341 159.403 73.5424 158.931 73.5424 158.394ZM77.9205 152.349V161.969H76.7375V152.349H77.9205ZM81.1198 152.349V161.969H79.9368V152.349H81.1198ZM86.243 162.086C85.5757 162.086 84.969 161.934 84.423 161.631C83.8857 161.327 83.461 160.898 83.149 160.344C82.8457 159.78 82.694 159.13 82.694 158.394C82.694 157.666 82.85 157.024 83.162 156.47C83.4827 155.906 83.916 155.477 84.462 155.183C85.008 154.879 85.619 154.728 86.295 154.728C86.971 154.728 87.582 154.879 88.128 155.183C88.674 155.477 89.103 155.902 89.415 156.457C89.7357 157.011 89.896 157.657 89.896 158.394C89.896 159.13 89.7313 159.78 89.402 160.344C89.0813 160.898 88.6437 161.327 88.089 161.631C87.5343 161.934 86.919 162.086 86.243 162.086ZM86.243 161.046C86.6677 161.046 87.0663 160.946 87.439 160.747C87.8117 160.547 88.1107 160.248 88.336 159.85C88.57 159.451 88.687 158.966 88.687 158.394C88.687 157.822 88.5743 157.336 88.349 156.938C88.1237 156.539 87.829 156.244 87.465 156.054C87.101 155.854 86.7067 155.755 86.282 155.755C85.8487 155.755 85.45 155.854 85.086 156.054C84.7307 156.244 84.4447 156.539 84.228 156.938C84.0113 157.336 83.903 157.822 83.903 158.394C83.903 158.974 84.007 159.464 84.215 159.863C84.4317 160.261 84.7177 160.56 85.073 160.76C85.4283 160.95 85.8183 161.046 86.243 161.046ZM100.941 154.845L98.7184 161.969H97.4964L95.7804 156.314L94.0644 161.969H92.8424L90.6064 154.845H91.8154L93.4534 160.825L95.2214 154.845H96.4304L98.1594 160.838L99.7714 154.845H100.941ZM108.615 158.134C108.615 158.359 108.602 158.597 108.576 158.849H102.882C102.926 159.551 103.164 160.101 103.597 160.5C104.039 160.89 104.572 161.085 105.196 161.085C105.708 161.085 106.132 160.968 106.47 160.734C106.817 160.491 107.06 160.17 107.198 159.772H108.472C108.282 160.456 107.9 161.015 107.328 161.449C106.756 161.873 106.046 162.086 105.196 162.086C104.52 162.086 103.914 161.934 103.376 161.631C102.848 161.327 102.432 160.898 102.128 160.344C101.825 159.78 101.673 159.13 101.673 158.394C101.673 157.657 101.821 157.011 102.115 156.457C102.41 155.902 102.822 155.477 103.35 155.183C103.888 154.879 104.503 154.728 105.196 154.728C105.872 154.728 106.47 154.875 106.99 155.17C107.51 155.464 107.909 155.872 108.186 156.392C108.472 156.903 108.615 157.484 108.615 158.134ZM107.393 157.887C107.393 157.436 107.294 157.05 107.094 156.73C106.895 156.4 106.622 156.153 106.275 155.989C105.937 155.815 105.56 155.729 105.144 155.729C104.546 155.729 104.035 155.919 103.61 156.301C103.194 156.682 102.956 157.211 102.895 157.887H107.393ZM109.735 158.381C109.735 157.653 109.882 157.016 110.177 156.47C110.472 155.915 110.875 155.486 111.386 155.183C111.906 154.879 112.487 154.728 113.128 154.728C113.683 154.728 114.198 154.858 114.675 155.118C115.152 155.369 115.516 155.703 115.767 156.119V152.349H116.963V161.969H115.767V160.63C115.533 161.054 115.186 161.405 114.727 161.683C114.268 161.951 113.73 162.086 113.115 162.086C112.482 162.086 111.906 161.93 111.386 161.618C110.875 161.306 110.472 160.868 110.177 160.305C109.882 159.741 109.735 159.1 109.735 158.381ZM115.767 158.394C115.767 157.856 115.659 157.388 115.442 156.99C115.225 156.591 114.931 156.288 114.558 156.08C114.194 155.863 113.791 155.755 113.349 155.755C112.907 155.755 112.504 155.859 112.14 156.067C111.776 156.275 111.486 156.578 111.269 156.977C111.052 157.375 110.944 157.843 110.944 158.381C110.944 158.927 111.052 159.403 111.269 159.811C111.486 160.209 111.776 160.517 112.14 160.734C112.504 160.942 112.907 161.046 113.349 161.046C113.791 161.046 114.194 160.942 114.558 160.734C114.931 160.517 115.225 160.209 115.442 159.811C115.659 159.403 115.767 158.931 115.767 158.394ZM124.03 155.82V160.019C124.03 160.365 124.104 160.612 124.251 160.76C124.398 160.898 124.654 160.968 125.018 160.968H125.889V161.969H124.823C124.164 161.969 123.67 161.817 123.341 161.514C123.012 161.21 122.847 160.712 122.847 160.019V155.82H121.924V154.845H122.847V153.051H124.03V154.845H125.889V155.82H124.03ZM130.429 162.086C129.762 162.086 129.155 161.934 128.609 161.631C128.072 161.327 127.647 160.898 127.335 160.344C127.032 159.78 126.88 159.13 126.88 158.394C126.88 157.666 127.036 157.024 127.348 156.47C127.669 155.906 128.102 155.477 128.648 155.183C129.194 154.879 129.805 154.728 130.481 154.728C131.157 154.728 131.768 154.879 132.314 155.183C132.86 155.477 133.289 155.902 133.601 156.457C133.922 157.011 134.082 157.657 134.082 158.394C134.082 159.13 133.918 159.78 133.588 160.344C133.268 160.898 132.83 161.327 132.275 161.631C131.721 161.934 131.105 162.086 130.429 162.086ZM130.429 161.046C130.854 161.046 131.253 160.946 131.625 160.747C131.998 160.547 132.297 160.248 132.522 159.85C132.756 159.451 132.873 158.966 132.873 158.394C132.873 157.822 132.761 157.336 132.535 156.938C132.31 156.539 132.015 156.244 131.651 156.054C131.287 155.854 130.893 155.755 130.468 155.755C130.035 155.755 129.636 155.854 129.272 156.054C128.917 156.244 128.631 156.539 128.414 156.938C128.198 157.336 128.089 157.822 128.089 158.394C128.089 158.974 128.193 159.464 128.401 159.863C128.618 160.261 128.904 160.56 129.259 160.76C129.615 160.95 130.005 161.046 130.429 161.046ZM140.445 156.158C140.679 155.75 141.026 155.412 141.485 155.144C141.953 154.866 142.495 154.728 143.11 154.728C143.743 154.728 144.315 154.879 144.826 155.183C145.346 155.486 145.754 155.915 146.048 156.47C146.343 157.016 146.49 157.653 146.49 158.381C146.49 159.1 146.343 159.741 146.048 160.305C145.754 160.868 145.346 161.306 144.826 161.618C144.315 161.93 143.743 162.086 143.11 162.086C142.504 162.086 141.966 161.951 141.498 161.683C141.039 161.405 140.688 161.063 140.445 160.656V165.349H139.262V154.845H140.445V156.158ZM145.281 158.381C145.281 157.843 145.173 157.375 144.956 156.977C144.74 156.578 144.445 156.275 144.072 156.067C143.708 155.859 143.305 155.755 142.863 155.755C142.43 155.755 142.027 155.863 141.654 156.08C141.29 156.288 140.996 156.595 140.77 157.003C140.554 157.401 140.445 157.865 140.445 158.394C140.445 158.931 140.554 159.403 140.77 159.811C140.996 160.209 141.29 160.517 141.654 160.734C142.027 160.942 142.43 161.046 142.863 161.046C143.305 161.046 143.708 160.942 144.072 160.734C144.445 160.517 144.74 160.209 144.956 159.811C145.173 159.403 145.281 158.927 145.281 158.381ZM149.231 156.002C149.439 155.594 149.733 155.278 150.115 155.053C150.505 154.827 150.977 154.715 151.532 154.715V155.937H151.22C149.894 155.937 149.231 156.656 149.231 158.095V161.969H148.048V154.845H149.231V156.002ZM152.455 158.381C152.455 157.653 152.602 157.016 152.897 156.47C153.192 155.915 153.595 155.486 154.106 155.183C154.626 154.879 155.202 154.728 155.835 154.728C156.459 154.728 157.001 154.862 157.46 155.131C157.919 155.399 158.262 155.737 158.487 156.145V154.845H159.683V161.969H158.487V160.643C158.253 161.059 157.902 161.405 157.434 161.683C156.975 161.951 156.437 162.086 155.822 162.086C155.189 162.086 154.617 161.93 154.106 161.618C153.595 161.306 153.192 160.868 152.897 160.305C152.602 159.741 152.455 159.1 152.455 158.381ZM158.487 158.394C158.487 157.856 158.379 157.388 158.162 156.99C157.945 156.591 157.651 156.288 157.278 156.08C156.914 155.863 156.511 155.755 156.069 155.755C155.627 155.755 155.224 155.859 154.86 156.067C154.496 156.275 154.206 156.578 153.989 156.977C153.772 157.375 153.664 157.843 153.664 158.381C153.664 158.927 153.772 159.403 153.989 159.811C154.206 160.209 154.496 160.517 154.86 160.734C155.224 160.942 155.627 161.046 156.069 161.046C156.511 161.046 156.914 160.942 157.278 160.734C157.651 160.517 157.945 160.209 158.162 159.811C158.379 159.403 158.487 158.931 158.487 158.394ZM161.24 158.394C161.24 157.657 161.388 157.016 161.682 156.47C161.977 155.915 162.384 155.486 162.904 155.183C163.433 154.879 164.035 154.728 164.711 154.728C165.587 154.728 166.306 154.94 166.869 155.365C167.441 155.789 167.818 156.379 168 157.133H166.726C166.605 156.699 166.367 156.357 166.011 156.106C165.665 155.854 165.231 155.729 164.711 155.729C164.035 155.729 163.489 155.963 163.073 156.431C162.657 156.89 162.449 157.544 162.449 158.394C162.449 159.252 162.657 159.915 163.073 160.383C163.489 160.851 164.035 161.085 164.711 161.085C165.231 161.085 165.665 160.963 166.011 160.721C166.358 160.478 166.596 160.131 166.726 159.681H168C167.81 160.409 167.428 160.994 166.856 161.436C166.284 161.869 165.569 162.086 164.711 162.086C164.035 162.086 163.433 161.934 162.904 161.631C162.384 161.327 161.977 160.898 161.682 160.344C161.388 159.789 161.24 159.139 161.24 158.394ZM171.022 155.82V160.019C171.022 160.365 171.095 160.612 171.243 160.76C171.39 160.898 171.646 160.968 172.01 160.968H172.881V161.969H171.815C171.156 161.969 170.662 161.817 170.333 161.514C170.003 161.21 169.839 160.712 169.839 160.019V155.82H168.916V154.845H169.839V153.051H171.022V154.845H172.881V155.82H171.022ZM174.925 153.688C174.7 153.688 174.509 153.61 174.353 153.454C174.197 153.298 174.119 153.107 174.119 152.882C174.119 152.656 174.197 152.466 174.353 152.31C174.509 152.154 174.7 152.076 174.925 152.076C175.142 152.076 175.324 152.154 175.471 152.31C175.627 152.466 175.705 152.656 175.705 152.882C175.705 153.107 175.627 153.298 175.471 153.454C175.324 153.61 175.142 153.688 174.925 153.688ZM175.497 154.845V161.969H174.314V154.845H175.497ZM177.071 158.394C177.071 157.657 177.219 157.016 177.513 156.47C177.808 155.915 178.215 155.486 178.735 155.183C179.264 154.879 179.866 154.728 180.542 154.728C181.418 154.728 182.137 154.94 182.7 155.365C183.272 155.789 183.649 156.379 183.831 157.133H182.557C182.436 156.699 182.198 156.357 181.842 156.106C181.496 155.854 181.062 155.729 180.542 155.729C179.866 155.729 179.32 155.963 178.904 156.431C178.488 156.89 178.28 157.544 178.28 158.394C178.28 159.252 178.488 159.915 178.904 160.383C179.32 160.851 179.866 161.085 180.542 161.085C181.062 161.085 181.496 160.963 181.842 160.721C182.189 160.478 182.427 160.131 182.557 159.681H183.831C183.641 160.409 183.259 160.994 182.687 161.436C182.115 161.869 181.4 162.086 180.542 162.086C179.866 162.086 179.264 161.934 178.735 161.631C178.215 161.327 177.808 160.898 177.513 160.344C177.219 159.789 177.071 159.139 177.071 158.394ZM191.91 158.134C191.91 158.359 191.897 158.597 191.871 158.849H186.177C186.22 159.551 186.459 160.101 186.892 160.5C187.334 160.89 187.867 161.085 188.491 161.085C189.002 161.085 189.427 160.968 189.765 160.734C190.112 160.491 190.354 160.17 190.493 159.772H191.767C191.576 160.456 191.195 161.015 190.623 161.449C190.051 161.873 189.34 162.086 188.491 162.086C187.815 162.086 187.208 161.934 186.671 161.631C186.142 161.327 185.726 160.898 185.423 160.344C185.12 159.78 184.968 159.13 184.968 158.394C184.968 157.657 185.115 157.011 185.41 156.457C185.705 155.902 186.116 155.477 186.645 155.183C187.182 154.879 187.798 154.728 188.491 154.728C189.167 154.728 189.765 154.875 190.285 155.17C190.805 155.464 191.204 155.872 191.481 156.392C191.767 156.903 191.91 157.484 191.91 158.134ZM190.688 157.887C190.688 157.436 190.588 157.05 190.389 156.73C190.19 156.4 189.917 156.153 189.57 155.989C189.232 155.815 188.855 155.729 188.439 155.729C187.841 155.729 187.33 155.919 186.905 156.301C186.489 156.682 186.251 157.211 186.19 157.887H190.688ZM203.596 158.134C203.596 158.359 203.583 158.597 203.557 158.849H197.863C197.906 159.551 198.145 160.101 198.578 160.5C199.02 160.89 199.553 161.085 200.177 161.085C200.688 161.085 201.113 160.968 201.451 160.734C201.798 160.491 202.04 160.17 202.179 159.772H203.453C203.262 160.456 202.881 161.015 202.309 161.449C201.737 161.873 201.026 162.086 200.177 162.086C199.501 162.086 198.894 161.934 198.357 161.631C197.828 161.327 197.412 160.898 197.109 160.344C196.806 159.78 196.654 159.13 196.654 158.394C196.654 157.657 196.801 157.011 197.096 156.457C197.391 155.902 197.802 155.477 198.331 155.183C198.868 154.879 199.484 154.728 200.177 154.728C200.853 154.728 201.451 154.875 201.971 155.17C202.491 155.464 202.89 155.872 203.167 156.392C203.453 156.903 203.596 157.484 203.596 158.134ZM202.374 157.887C202.374 157.436 202.274 157.05 202.075 156.73C201.876 156.4 201.603 156.153 201.256 155.989C200.918 155.815 200.541 155.729 200.125 155.729C199.527 155.729 199.016 155.919 198.591 156.301C198.175 156.682 197.937 157.211 197.876 157.887H202.374ZM207.81 160.877L210.02 154.845H211.281L208.486 161.969H207.108L204.313 154.845H205.587L207.81 160.877ZM218.945 158.134C218.945 158.359 218.932 158.597 218.906 158.849H213.212C213.255 159.551 213.493 160.101 213.927 160.5C214.369 160.89 214.902 161.085 215.526 161.085C216.037 161.085 216.462 160.968 216.8 160.734C217.146 160.491 217.389 160.17 217.528 159.772H218.802C218.611 160.456 218.23 161.015 217.658 161.449C217.086 161.873 216.375 162.086 215.526 162.086C214.85 162.086 214.243 161.934 213.706 161.631C213.177 161.327 212.761 160.898 212.458 160.344C212.154 159.78 212.003 159.13 212.003 158.394C212.003 157.657 212.15 157.011 212.445 156.457C212.739 155.902 213.151 155.477 213.68 155.183C214.217 154.879 214.832 154.728 215.526 154.728C216.202 154.728 216.8 154.875 217.32 155.17C217.84 155.464 218.238 155.872 218.516 156.392C218.802 156.903 218.945 157.484 218.945 158.134ZM217.723 157.887C217.723 157.436 217.623 157.05 217.424 156.73C217.224 156.4 216.951 156.153 216.605 155.989C216.267 155.815 215.89 155.729 215.474 155.729C214.876 155.729 214.364 155.919 213.94 156.301C213.524 156.682 213.285 157.211 213.225 157.887H217.723ZM223.977 154.715C224.844 154.715 225.546 154.979 226.083 155.508C226.621 156.028 226.889 156.782 226.889 157.77V161.969H225.719V157.939C225.719 157.228 225.542 156.686 225.186 156.314C224.831 155.932 224.346 155.742 223.73 155.742C223.106 155.742 222.608 155.937 222.235 156.327C221.871 156.717 221.689 157.284 221.689 158.03V161.969H220.506V154.845H221.689V155.859C221.923 155.495 222.24 155.213 222.638 155.014C223.046 154.814 223.492 154.715 223.977 154.715ZM241.936 154.845L239.713 161.969H238.491L236.775 156.314L235.059 161.969H233.837L231.601 154.845H232.81L234.448 160.825L236.216 154.845H237.425L239.154 160.838L240.766 154.845H241.936ZM246.646 154.715C247.184 154.715 247.669 154.832 248.102 155.066C248.536 155.291 248.874 155.633 249.116 156.093C249.368 156.552 249.493 157.111 249.493 157.77V161.969H248.323V157.939C248.323 157.228 248.146 156.686 247.79 156.314C247.435 155.932 246.95 155.742 246.334 155.742C245.71 155.742 245.212 155.937 244.839 156.327C244.475 156.717 244.293 157.284 244.293 158.03V161.969H243.11V152.349H244.293V155.859C244.527 155.495 244.848 155.213 245.255 155.014C245.671 154.814 246.135 154.715 246.646 154.715ZM257.926 158.134C257.926 158.359 257.913 158.597 257.887 158.849H252.193C252.236 159.551 252.475 160.101 252.908 160.5C253.35 160.89 253.883 161.085 254.507 161.085C255.018 161.085 255.443 160.968 255.781 160.734C256.128 160.491 256.37 160.17 256.509 159.772H257.783C257.592 160.456 257.211 161.015 256.639 161.449C256.067 161.873 255.356 162.086 254.507 162.086C253.831 162.086 253.224 161.934 252.687 161.631C252.158 161.327 251.742 160.898 251.439 160.344C251.136 159.78 250.984 159.13 250.984 158.394C250.984 157.657 251.131 157.011 251.426 156.457C251.721 155.902 252.132 155.477 252.661 155.183C253.198 154.879 253.814 154.728 254.507 154.728C255.183 154.728 255.781 154.875 256.301 155.17C256.821 155.464 257.22 155.872 257.497 156.392C257.783 156.903 257.926 157.484 257.926 158.134ZM256.704 157.887C256.704 157.436 256.604 157.05 256.405 156.73C256.206 156.4 255.933 156.153 255.586 155.989C255.248 155.815 254.871 155.729 254.455 155.729C253.857 155.729 253.346 155.919 252.921 156.301C252.505 156.682 252.267 157.211 252.206 157.887H256.704ZM262.958 154.715C263.825 154.715 264.527 154.979 265.064 155.508C265.602 156.028 265.87 156.782 265.87 157.77V161.969H264.7V157.939C264.7 157.228 264.523 156.686 264.167 156.314C263.812 155.932 263.327 155.742 262.711 155.742C262.087 155.742 261.589 155.937 261.216 156.327C260.852 156.717 260.67 157.284 260.67 158.03V161.969H259.487V154.845H260.67V155.859C260.904 155.495 261.221 155.213 261.619 155.014C262.027 154.814 262.473 154.715 262.958 154.715ZM31.2605 174.845L26.9705 185.323H25.7485L27.1525 181.891L24.2795 174.845H25.5925L27.8285 180.617L30.0385 174.845H31.2605ZM35.5567 182.086C34.8894 182.086 34.2827 181.934 33.7367 181.631C33.1994 181.327 32.7747 180.898 32.4627 180.344C32.1594 179.78 32.0077 179.13 32.0077 178.394C32.0077 177.666 32.1637 177.024 32.4757 176.47C32.7964 175.906 33.2297 175.477 33.7757 175.183C34.3217 174.879 34.9327 174.728 35.6087 174.728C36.2847 174.728 36.8957 174.879 37.4417 175.183C37.9877 175.477 38.4167 175.902 38.7287 176.457C39.0494 177.011 39.2097 177.657 39.2097 178.394C39.2097 179.13 39.0451 179.78 38.7157 180.344C38.3951 180.898 37.9574 181.327 37.4027 181.631C36.8481 181.934 36.2327 182.086 35.5567 182.086ZM35.5567 181.046C35.9814 181.046 36.3801 180.946 36.7527 180.747C37.1254 180.547 37.4244 180.248 37.6497 179.85C37.8837 179.451 38.0007 178.966 38.0007 178.394C38.0007 177.822 37.8881 177.336 37.6627 176.938C37.4374 176.539 37.1427 176.244 36.7787 176.054C36.4147 175.854 36.0204 175.755 35.5957 175.755C35.1624 175.755 34.7637 175.854 34.3997 176.054C34.0444 176.244 33.7584 176.539 33.5417 176.938C33.3251 177.336 33.2167 177.822 33.2167 178.394C33.2167 178.974 33.3207 179.464 33.5287 179.863C33.7454 180.261 34.0314 180.56 34.3867 180.76C34.7421 180.95 35.1321 181.046 35.5567 181.046ZM47.0832 174.845V181.969H45.9002V180.916C45.6748 181.28 45.3585 181.566 44.9512 181.774C44.5525 181.973 44.1105 182.073 43.6252 182.073C43.0705 182.073 42.5722 181.96 42.1302 181.735C41.6882 181.501 41.3372 181.154 41.0772 180.695C40.8258 180.235 40.7002 179.676 40.7002 179.018V174.845H41.8702V178.862C41.8702 179.564 42.0478 180.105 42.4032 180.487C42.7585 180.859 43.2438 181.046 43.8592 181.046C44.4918 181.046 44.9902 180.851 45.3542 180.461C45.7182 180.071 45.9002 179.503 45.9002 178.758V174.845H47.0832ZM69.1116 178.381C69.1116 177.653 69.259 177.016 69.5536 176.47C69.8483 175.915 70.2513 175.486 70.7626 175.183C71.2826 174.879 71.8633 174.728 72.5046 174.728C73.0593 174.728 73.575 174.858 74.0516 175.118C74.5283 175.369 74.8923 175.703 75.1436 176.119V172.349H76.3396V181.969H75.1436V180.63C74.9096 181.054 74.563 181.405 74.1036 181.683C73.6443 181.951 73.107 182.086 72.4916 182.086C71.859 182.086 71.2826 181.93 70.7626 181.618C70.2513 181.306 69.8483 180.868 69.5536 180.305C69.259 179.741 69.1116 179.1 69.1116 178.381ZM75.1436 178.394C75.1436 177.856 75.0353 177.388 74.8186 176.99C74.602 176.591 74.3073 176.288 73.9346 176.08C73.5706 175.863 73.1676 175.755 72.7256 175.755C72.2836 175.755 71.8806 175.859 71.5166 176.067C71.1526 176.275 70.8623 176.578 70.6456 176.977C70.429 177.375 70.3206 177.843 70.3206 178.381C70.3206 178.927 70.429 179.403 70.6456 179.811C70.8623 180.209 71.1526 180.517 71.5166 180.734C71.8806 180.942 72.2836 181.046 72.7256 181.046C73.1676 181.046 73.5706 180.942 73.9346 180.734C74.3073 180.517 74.602 180.209 74.8186 179.811C75.0353 179.403 75.1436 178.931 75.1436 178.394ZM81.4458 182.086C80.7785 182.086 80.1718 181.934 79.6258 181.631C79.0885 181.327 78.6638 180.898 78.3518 180.344C78.0485 179.78 77.8968 179.13 77.8968 178.394C77.8968 177.666 78.0528 177.024 78.3648 176.47C78.6855 175.906 79.1188 175.477 79.6648 175.183C80.2108 174.879 80.8218 174.728 81.4978 174.728C82.1738 174.728 82.7848 174.879 83.3308 175.183C83.8768 175.477 84.3058 175.902 84.6178 176.457C84.9385 177.011 85.0988 177.657 85.0988 178.394C85.0988 179.13 84.9341 179.78 84.6048 180.344C84.2841 180.898 83.8465 181.327 83.2918 181.631C82.7371 181.934 82.1218 182.086 81.4458 182.086ZM81.4458 181.046C81.8705 181.046 82.2691 180.946 82.6418 180.747C83.0145 180.547 83.3135 180.248 83.5388 179.85C83.7728 179.451 83.8898 178.966 83.8898 178.394C83.8898 177.822 83.7771 177.336 83.5518 176.938C83.3265 176.539 83.0318 176.244 82.6678 176.054C82.3038 175.854 81.9095 175.755 81.4848 175.755C81.0515 175.755 80.6528 175.854 80.2888 176.054C79.9335 176.244 79.6475 176.539 79.4308 176.938C79.2141 177.336 79.1058 177.822 79.1058 178.394C79.1058 178.974 79.2098 179.464 79.4178 179.863C79.6345 180.261 79.9205 180.56 80.2758 180.76C80.6311 180.95 81.0211 181.046 81.4458 181.046ZM90.1252 174.715C90.9919 174.715 91.6939 174.979 92.2312 175.508C92.7686 176.028 93.0372 176.782 93.0372 177.77V181.969H91.8672V177.939C91.8672 177.228 91.6896 176.686 91.3342 176.314C90.9789 175.932 90.4936 175.742 89.8782 175.742C89.2542 175.742 88.7559 175.937 88.3832 176.327C88.0192 176.717 87.8372 177.284 87.8372 178.03V181.969H86.6542V174.845H87.8372V175.859C88.0712 175.495 88.3876 175.213 88.7862 175.014C89.1936 174.814 89.6399 174.715 90.1252 174.715ZM95.1517 172.908H96.4647L95.2167 175.859H94.3847L95.1517 172.908ZM99.2564 175.82V180.019C99.2564 180.365 99.3301 180.612 99.4774 180.76C99.6247 180.898 99.8804 180.968 100.244 180.968H101.115V181.969H100.049C99.3907 181.969 98.8967 181.817 98.5674 181.514C98.2381 181.21 98.0734 180.712 98.0734 180.019V175.82H97.1504V174.845H98.0734V173.051H99.2564V174.845H101.115V175.82H99.2564ZM126.558 174.715C127.095 174.715 127.58 174.832 128.014 175.066C128.447 175.291 128.785 175.633 129.028 176.093C129.279 176.552 129.405 177.111 129.405 177.77V181.969H128.235V177.939C128.235 177.228 128.057 176.686 127.702 176.314C127.346 175.932 126.861 175.742 126.246 175.742C125.622 175.742 125.123 175.937 124.751 176.327C124.387 176.717 124.205 177.284 124.205 178.03V181.969H123.022V172.349H124.205V175.859C124.439 175.495 124.759 175.213 125.167 175.014C125.583 174.814 126.046 174.715 126.558 174.715ZM130.895 178.381C130.895 177.653 131.043 177.016 131.337 176.47C131.632 175.915 132.035 175.486 132.546 175.183C133.066 174.879 133.643 174.728 134.275 174.728C134.899 174.728 135.441 174.862 135.9 175.131C136.36 175.399 136.702 175.737 136.927 176.145V174.845H138.123V181.969H136.927V180.643C136.693 181.059 136.342 181.405 135.874 181.683C135.415 181.951 134.878 182.086 134.262 182.086C133.63 182.086 133.058 181.93 132.546 181.618C132.035 181.306 131.632 180.868 131.337 180.305C131.043 179.741 130.895 179.1 130.895 178.381ZM136.927 178.394C136.927 177.856 136.819 177.388 136.602 176.99C136.386 176.591 136.091 176.288 135.718 176.08C135.354 175.863 134.951 175.755 134.509 175.755C134.067 175.755 133.664 175.859 133.3 176.067C132.936 176.275 132.646 176.578 132.429 176.977C132.213 177.375 132.104 177.843 132.104 178.381C132.104 178.927 132.213 179.403 132.429 179.811C132.646 180.209 132.936 180.517 133.3 180.734C133.664 180.942 134.067 181.046 134.509 181.046C134.951 181.046 135.354 180.942 135.718 180.734C136.091 180.517 136.386 180.209 136.602 179.811C136.819 179.403 136.927 178.931 136.927 178.394ZM142.774 180.877L144.984 174.845H146.245L143.45 181.969H142.072L139.277 174.845H140.551L142.774 180.877ZM153.91 178.134C153.91 178.359 153.897 178.597 153.871 178.849H148.177C148.22 179.551 148.458 180.101 148.892 180.5C149.334 180.89 149.867 181.085 150.491 181.085C151.002 181.085 151.427 180.968 151.765 180.734C152.111 180.491 152.354 180.17 152.493 179.772H153.767C153.576 180.456 153.195 181.015 152.623 181.449C152.051 181.873 151.34 182.086 150.491 182.086C149.815 182.086 149.208 181.934 148.671 181.631C148.142 181.327 147.726 180.898 147.423 180.344C147.119 179.78 146.968 179.13 146.968 178.394C146.968 177.657 147.115 177.011 147.41 176.457C147.704 175.902 148.116 175.477 148.645 175.183C149.182 174.879 149.797 174.728 150.491 174.728C151.167 174.728 151.765 174.875 152.285 175.17C152.805 175.464 153.203 175.872 153.481 176.392C153.767 176.903 153.91 177.484 153.91 178.134ZM152.688 177.887C152.688 177.436 152.588 177.05 152.389 176.73C152.189 176.4 151.916 176.153 151.57 175.989C151.232 175.815 150.855 175.729 150.439 175.729C149.841 175.729 149.329 175.919 148.905 176.301C148.489 176.682 148.25 177.211 148.19 177.887H152.688ZM177.387 175.82V180.019C177.387 180.365 177.461 180.612 177.608 180.76C177.755 180.898 178.011 180.968 178.375 180.968H179.246V181.969H178.18C177.521 181.969 177.027 181.817 176.698 181.514C176.369 181.21 176.204 180.712 176.204 180.019V175.82H175.281V174.845H176.204V173.051H177.387V174.845H179.246V175.82H177.387ZM184.215 174.715C184.753 174.715 185.238 174.832 185.671 175.066C186.105 175.291 186.443 175.633 186.685 176.093C186.937 176.552 187.062 177.111 187.062 177.77V181.969H185.892V177.939C185.892 177.228 185.715 176.686 185.359 176.314C185.004 175.932 184.519 175.742 183.903 175.742C183.279 175.742 182.781 175.937 182.408 176.327C182.044 176.717 181.862 177.284 181.862 178.03V181.969H180.679V172.349H181.862V175.859C182.096 175.495 182.417 175.213 182.824 175.014C183.24 174.814 183.704 174.715 184.215 174.715ZM195.495 178.134C195.495 178.359 195.482 178.597 195.456 178.849H189.762C189.805 179.551 190.044 180.101 190.477 180.5C190.919 180.89 191.452 181.085 192.076 181.085C192.587 181.085 193.012 180.968 193.35 180.734C193.697 180.491 193.939 180.17 194.078 179.772H195.352C195.161 180.456 194.78 181.015 194.208 181.449C193.636 181.873 192.925 182.086 192.076 182.086C191.4 182.086 190.793 181.934 190.256 181.631C189.727 181.327 189.311 180.898 189.008 180.344C188.705 179.78 188.553 179.13 188.553 178.394C188.553 177.657 188.7 177.011 188.995 176.457C189.29 175.902 189.701 175.477 190.23 175.183C190.767 174.879 191.383 174.728 192.076 174.728C192.752 174.728 193.35 174.875 193.87 175.17C194.39 175.464 194.789 175.872 195.066 176.392C195.352 176.903 195.495 177.484 195.495 178.134ZM194.273 177.887C194.273 177.436 194.173 177.05 193.974 176.73C193.775 176.4 193.502 176.153 193.155 175.989C192.817 175.815 192.44 175.729 192.024 175.729C191.426 175.729 190.915 175.919 190.49 176.301C190.074 176.682 189.836 177.211 189.775 177.887H194.273ZM218.712 172.908V181.969H217.529V172.908H218.712ZM224.2 174.715C225.066 174.715 225.768 174.979 226.306 175.508C226.843 176.028 227.112 176.782 227.112 177.77V181.969H225.942V177.939C225.942 177.228 225.764 176.686 225.409 176.314C225.053 175.932 224.568 175.742 223.953 175.742C223.329 175.742 222.83 175.937 222.458 176.327C222.094 176.717 221.912 177.284 221.912 178.03V181.969H220.729V174.845H221.912V175.859C222.146 175.495 222.462 175.213 222.861 175.014C223.268 174.814 223.714 174.715 224.2 174.715ZM230.487 175.82V180.019C230.487 180.365 230.561 180.612 230.708 180.76C230.855 180.898 231.111 180.968 231.475 180.968H232.346V181.969H231.28C230.621 181.969 230.127 181.817 229.798 181.514C229.469 181.21 229.304 180.712 229.304 180.019V175.82H228.381V174.845H229.304V173.051H230.487V174.845H232.346V175.82H230.487ZM240.279 178.134C240.279 178.359 240.266 178.597 240.24 178.849H234.546C234.59 179.551 234.828 180.101 235.261 180.5C235.703 180.89 236.236 181.085 236.86 181.085C237.372 181.085 237.796 180.968 238.134 180.734C238.481 180.491 238.724 180.17 238.862 179.772H240.136C239.946 180.456 239.564 181.015 238.992 181.449C238.42 181.873 237.71 182.086 236.86 182.086C236.184 182.086 235.578 181.934 235.04 181.631C234.512 181.327 234.096 180.898 233.792 180.344C233.489 179.78 233.337 179.13 233.337 178.394C233.337 177.657 233.485 177.011 233.779 176.457C234.074 175.902 234.486 175.477 235.014 175.183C235.552 174.879 236.167 174.728 236.86 174.728C237.536 174.728 238.134 174.875 238.654 175.17C239.174 175.464 239.573 175.872 239.85 176.392C240.136 176.903 240.279 177.484 240.279 178.134ZM239.057 177.887C239.057 177.436 238.958 177.05 238.758 176.73C238.559 176.4 238.286 176.153 237.939 175.989C237.601 175.815 237.224 175.729 236.808 175.729C236.21 175.729 235.699 175.919 235.274 176.301C234.858 176.682 234.62 177.211 234.559 177.887H239.057ZM243.024 176.002C243.232 175.594 243.527 175.278 243.908 175.053C244.298 174.827 244.77 174.715 245.325 174.715V175.937H245.013C243.687 175.937 243.024 176.656 243.024 178.095V181.969H241.841V174.845H243.024V176.002ZM250.162 174.715C251.028 174.715 251.73 174.979 252.268 175.508C252.805 176.028 253.074 176.782 253.074 177.77V181.969H251.904V177.939C251.904 177.228 251.726 176.686 251.371 176.314C251.015 175.932 250.53 175.742 249.915 175.742C249.291 175.742 248.792 175.937 248.42 176.327C248.056 176.717 247.874 177.284 247.874 178.03V181.969H246.691V174.845H247.874V175.859C248.108 175.495 248.424 175.213 248.823 175.014C249.23 174.814 249.676 174.715 250.162 174.715ZM261.506 178.134C261.506 178.359 261.493 178.597 261.467 178.849H255.773C255.816 179.551 256.055 180.101 256.488 180.5C256.93 180.89 257.463 181.085 258.087 181.085C258.598 181.085 259.023 180.968 259.361 180.734C259.708 180.491 259.95 180.17 260.089 179.772H261.363C261.172 180.456 260.791 181.015 260.219 181.449C259.647 181.873 258.936 182.086 258.087 182.086C257.411 182.086 256.804 181.934 256.267 181.631C255.738 181.327 255.322 180.898 255.019 180.344C254.716 179.78 254.564 179.13 254.564 178.394C254.564 177.657 254.711 177.011 255.006 176.457C255.301 175.902 255.712 175.477 256.241 175.183C256.778 174.879 257.394 174.728 258.087 174.728C258.763 174.728 259.361 174.875 259.881 175.17C260.401 175.464 260.8 175.872 261.077 176.392C261.363 176.903 261.506 177.484 261.506 178.134ZM260.284 177.887C260.284 177.436 260.184 177.05 259.985 176.73C259.786 176.4 259.513 176.153 259.166 175.989C258.828 175.815 258.451 175.729 258.035 175.729C257.437 175.729 256.926 175.919 256.501 176.301C256.085 176.682 255.847 177.211 255.786 177.887H260.284ZM264.511 175.82V180.019C264.511 180.365 264.584 180.612 264.732 180.76C264.879 180.898 265.135 180.968 265.499 180.968H266.37V181.969H265.304C264.645 181.969 264.151 181.817 263.822 181.514C263.492 181.21 263.328 180.712 263.328 180.019V175.82H262.405V174.845H263.328V173.051H264.511V174.845H266.37V175.82H264.511ZM24.6825 198.394C24.6825 197.657 24.8299 197.016 25.1245 196.47C25.4192 195.915 25.8265 195.486 26.3465 195.183C26.8752 194.879 27.4775 194.728 28.1535 194.728C29.0289 194.728 29.7482 194.94 30.3115 195.365C30.8835 195.789 31.2605 196.379 31.4425 197.133H30.1685C30.0472 196.699 29.8089 196.357 29.4535 196.106C29.1069 195.854 28.6735 195.729 28.1535 195.729C27.4775 195.729 26.9315 195.963 26.5155 196.431C26.0995 196.89 25.8915 197.544 25.8915 198.394C25.8915 199.252 26.0995 199.915 26.5155 200.383C26.9315 200.851 27.4775 201.085 28.1535 201.085C28.6735 201.085 29.1069 200.963 29.4535 200.721C29.8002 200.478 30.0385 200.131 30.1685 199.681H31.4425C31.2519 200.409 30.8705 200.994 30.2985 201.436C29.7265 201.869 29.0115 202.086 28.1535 202.086C27.4775 202.086 26.8752 201.934 26.3465 201.631C25.8265 201.327 25.4192 200.898 25.1245 200.344C24.8299 199.789 24.6825 199.139 24.6825 198.394ZM36.128 202.086C35.4607 202.086 34.854 201.934 34.308 201.631C33.7707 201.327 33.346 200.898 33.034 200.344C32.7307 199.78 32.579 199.13 32.579 198.394C32.579 197.666 32.735 197.024 33.047 196.47C33.3677 195.906 33.801 195.477 34.347 195.183C34.893 194.879 35.504 194.728 36.18 194.728C36.856 194.728 37.467 194.879 38.013 195.183C38.559 195.477 38.988 195.902 39.3 196.457C39.6207 197.011 39.781 197.657 39.781 198.394C39.781 199.13 39.6164 199.78 39.287 200.344C38.9664 200.898 38.5287 201.327 37.974 201.631C37.4194 201.934 36.804 202.086 36.128 202.086ZM36.128 201.046C36.5527 201.046 36.9514 200.946 37.324 200.747C37.6967 200.547 37.9957 200.248 38.221 199.85C38.455 199.451 38.572 198.966 38.572 198.394C38.572 197.822 38.4594 197.336 38.234 196.938C38.0087 196.539 37.714 196.244 37.35 196.054C36.986 195.854 36.5917 195.755 36.167 195.755C35.7337 195.755 35.335 195.854 34.971 196.054C34.6157 196.244 34.3297 196.539 34.113 196.938C33.8964 197.336 33.788 197.822 33.788 198.394C33.788 198.974 33.892 199.464 34.1 199.863C34.3167 200.261 34.6027 200.56 34.958 200.76C35.3134 200.95 35.7034 201.046 36.128 201.046ZM44.8074 194.715C45.6741 194.715 46.3761 194.979 46.9134 195.508C47.4508 196.028 47.7194 196.782 47.7194 197.77V201.969H46.5494V197.939C46.5494 197.228 46.3718 196.686 46.0164 196.314C45.6611 195.932 45.1758 195.742 44.5604 195.742C43.9364 195.742 43.4381 195.937 43.0654 196.327C42.7014 196.717 42.5194 197.284 42.5194 198.03V201.969H41.3364V194.845H42.5194V195.859C42.7534 195.495 43.0698 195.213 43.4684 195.014C43.8758 194.814 44.3221 194.715 44.8074 194.715ZM53.1229 194.715C53.9895 194.715 54.6915 194.979 55.2289 195.508C55.7662 196.028 56.0349 196.782 56.0349 197.77V201.969H54.8649V197.939C54.8649 197.228 54.6872 196.686 54.3319 196.314C53.9765 195.932 53.4912 195.742 52.8759 195.742C52.2519 195.742 51.7535 195.937 51.3809 196.327C51.0169 196.717 50.8349 197.284 50.8349 198.03V201.969H49.6519V194.845H50.8349V195.859C51.0689 195.495 51.3852 195.213 51.7839 195.014C52.1912 194.814 52.6375 194.715 53.1229 194.715ZM64.4673 198.134C64.4673 198.359 64.4543 198.597 64.4283 198.849H58.7343C58.7776 199.551 59.016 200.101 59.4493 200.5C59.8913 200.89 60.4243 201.085 61.0483 201.085C61.5596 201.085 61.9843 200.968 62.3223 200.734C62.669 200.491 62.9116 200.17 63.0503 199.772H64.3243C64.1336 200.456 63.7523 201.015 63.1803 201.449C62.6083 201.873 61.8976 202.086 61.0483 202.086C60.3723 202.086 59.7656 201.934 59.2283 201.631C58.6996 201.327 58.2836 200.898 57.9803 200.344C57.677 199.78 57.5253 199.13 57.5253 198.394C57.5253 197.657 57.6726 197.011 57.9673 196.457C58.262 195.902 58.6736 195.477 59.2023 195.183C59.7396 194.879 60.355 194.728 61.0483 194.728C61.7243 194.728 62.3223 194.875 62.8423 195.17C63.3623 195.464 63.761 195.872 64.0383 196.392C64.3243 196.903 64.4673 197.484 64.4673 198.134ZM63.2453 197.887C63.2453 197.436 63.1456 197.05 62.9463 196.73C62.747 196.4 62.474 196.153 62.1273 195.989C61.7893 195.815 61.4123 195.729 60.9963 195.729C60.3983 195.729 59.887 195.919 59.4623 196.301C59.0463 196.682 58.808 197.211 58.7473 197.887H63.2453ZM65.5868 198.394C65.5868 197.657 65.7342 197.016 66.0288 196.47C66.3235 195.915 66.7308 195.486 67.2508 195.183C67.7795 194.879 68.3818 194.728 69.0578 194.728C69.9332 194.728 70.6525 194.94 71.2158 195.365C71.7878 195.789 72.1648 196.379 72.3468 197.133H71.0728C70.9515 196.699 70.7132 196.357 70.3578 196.106C70.0112 195.854 69.5778 195.729 69.0578 195.729C68.3818 195.729 67.8358 195.963 67.4198 196.431C67.0038 196.89 66.7958 197.544 66.7958 198.394C66.7958 199.252 67.0038 199.915 67.4198 200.383C67.8358 200.851 68.3818 201.085 69.0578 201.085C69.5778 201.085 70.0112 200.963 70.3578 200.721C70.7045 200.478 70.9428 200.131 71.0728 199.681H72.3468C72.1562 200.409 71.7748 200.994 71.2028 201.436C70.6308 201.869 69.9158 202.086 69.0578 202.086C68.3818 202.086 67.7795 201.934 67.2508 201.631C66.7308 201.327 66.3235 200.898 66.0288 200.344C65.7342 199.789 65.5868 199.139 65.5868 198.394ZM75.3683 195.82V200.019C75.3683 200.365 75.442 200.612 75.5893 200.76C75.7366 200.898 75.9923 200.968 76.3563 200.968H77.2273V201.969H76.1613C75.5026 201.969 75.0086 201.817 74.6793 201.514C74.35 201.21 74.1853 200.712 74.1853 200.019V195.82H73.2623V194.845H74.1853V193.051H75.3683V194.845H77.2273V195.82H75.3683ZM79.2717 193.688C79.0463 193.688 78.8557 193.61 78.6997 193.454C78.5437 193.298 78.4657 193.107 78.4657 192.882C78.4657 192.656 78.5437 192.466 78.6997 192.31C78.8557 192.154 79.0463 192.076 79.2717 192.076C79.4883 192.076 79.6703 192.154 79.8177 192.31C79.9737 192.466 80.0517 192.656 80.0517 192.882C80.0517 193.107 79.9737 193.298 79.8177 193.454C79.6703 193.61 79.4883 193.688 79.2717 193.688ZM79.8437 194.845V201.969H78.6607V194.845H79.8437ZM84.9669 202.086C84.2996 202.086 83.6929 201.934 83.1469 201.631C82.6096 201.327 82.1849 200.898 81.8729 200.344C81.5696 199.78 81.4179 199.13 81.4179 198.394C81.4179 197.666 81.5739 197.024 81.8859 196.47C82.2066 195.906 82.6399 195.477 83.1859 195.183C83.7319 194.879 84.3429 194.728 85.0189 194.728C85.6949 194.728 86.3059 194.879 86.8519 195.183C87.3979 195.477 87.8269 195.902 88.1389 196.457C88.4596 197.011 88.6199 197.657 88.6199 198.394C88.6199 199.13 88.4552 199.78 88.1259 200.344C87.8052 200.898 87.3676 201.327 86.8129 201.631C86.2582 201.934 85.6429 202.086 84.9669 202.086ZM84.9669 201.046C85.3916 201.046 85.7902 200.946 86.1629 200.747C86.5356 200.547 86.8346 200.248 87.0599 199.85C87.2939 199.451 87.4109 198.966 87.4109 198.394C87.4109 197.822 87.2982 197.336 87.0729 196.938C86.8476 196.539 86.5529 196.244 86.1889 196.054C85.8249 195.854 85.4306 195.755 85.0059 195.755C84.5726 195.755 84.1739 195.854 83.8099 196.054C83.4546 196.244 83.1686 196.539 82.9519 196.938C82.7352 197.336 82.6269 197.822 82.6269 198.394C82.6269 198.974 82.7309 199.464 82.9389 199.863C83.1556 200.261 83.4416 200.56 83.7969 200.76C84.1522 200.95 84.5422 201.046 84.9669 201.046ZM93.6463 194.715C94.513 194.715 95.215 194.979 95.7523 195.508C96.2897 196.028 96.5583 196.782 96.5583 197.77V201.969H95.3883V197.939C95.3883 197.228 95.2106 196.686 94.8553 196.314C94.5 195.932 94.0147 195.742 93.3993 195.742C92.7753 195.742 92.277 195.937 91.9043 196.327C91.5403 196.717 91.3583 197.284 91.3583 198.03V201.969H90.1753V194.845H91.3583V195.859C91.5923 195.495 91.9086 195.213 92.3073 195.014C92.7146 194.814 93.161 194.715 93.6463 194.715Z" fill="#505050"/>
<path d="M94.0398 117.284C92.9838 117.284 92.0132 117.039 91.1278 116.548C90.2425 116.047 89.5385 115.359 89.0158 114.484C88.5038 113.599 88.2478 112.601 88.2478 111.492C88.2478 110.383 88.5038 109.391 89.0158 108.516C89.5385 107.631 90.2425 106.943 91.1278 106.452C92.0132 105.961 92.9838 105.716 94.0398 105.716C95.1065 105.716 96.0772 105.961 96.9518 106.452C97.8372 106.943 98.5358 107.631 99.0478 108.516C99.5598 109.391 99.8158 110.383 99.8158 111.492C99.8158 112.601 99.5598 113.599 99.0478 114.484C98.5358 115.359 97.8372 116.047 96.9518 116.548C96.0665 117.039 95.0958 117.284 94.0398 117.284ZM94.0398 114.372C94.8398 114.372 95.4692 114.111 95.9278 113.588C96.3972 113.065 96.6318 112.367 96.6318 111.492C96.6318 110.596 96.3972 109.892 95.9278 109.38C95.4692 108.857 94.8398 108.596 94.0398 108.596C93.2292 108.596 92.5945 108.857 92.1358 109.38C91.6772 109.892 91.4478 110.596 91.4478 111.492C91.4478 112.377 91.6772 113.081 92.1358 113.604C92.5945 114.116 93.2292 114.372 94.0398 114.372ZM108.874 105.892V108.388H104.362V110.372H107.69V112.756H104.362V117.172H101.226V105.892H108.874ZM117.842 105.892V108.388H113.33V110.372H116.658V112.756H113.33V117.172H110.194V105.892H117.842ZM122.299 114.772H125.803V117.172H119.163V105.892H122.299V114.772ZM130.158 105.892V117.172H127.022V105.892H130.158ZM142.392 117.172H139.256L135.08 110.868V117.172H131.944V105.892H135.08L139.256 112.276V105.892H142.392V117.172ZM147.315 108.404V110.244H150.915V112.628H147.315V114.66H151.395V117.172H144.179V105.892H151.395V108.404H147.315ZM169.175 105.892V117.172H166.039V110.948L163.911 117.172H161.287L159.143 110.9V117.172H156.007V105.892H159.799L162.631 113.22L165.399 105.892H169.175ZM176.368 117.284C175.312 117.284 174.341 117.039 173.456 116.548C172.571 116.047 171.867 115.359 171.344 114.484C170.832 113.599 170.576 112.601 170.576 111.492C170.576 110.383 170.832 109.391 171.344 108.516C171.867 107.631 172.571 106.943 173.456 106.452C174.341 105.961 175.312 105.716 176.368 105.716C177.435 105.716 178.405 105.961 179.28 106.452C180.165 106.943 180.864 107.631 181.376 108.516C181.888 109.391 182.144 110.383 182.144 111.492C182.144 112.601 181.888 113.599 181.376 114.484C180.864 115.359 180.165 116.047 179.28 116.548C178.395 117.039 177.424 117.284 176.368 117.284ZM176.368 114.372C177.168 114.372 177.797 114.111 178.256 113.588C178.725 113.065 178.96 112.367 178.96 111.492C178.96 110.596 178.725 109.892 178.256 109.38C177.797 108.857 177.168 108.596 176.368 108.596C175.557 108.596 174.923 108.857 174.464 109.38C174.005 109.892 173.776 110.596 173.776 111.492C173.776 112.377 174.005 113.081 174.464 113.604C174.923 114.116 175.557 114.372 176.368 114.372ZM188.018 105.892C189.202 105.892 190.236 106.132 191.122 106.612C192.018 107.081 192.706 107.743 193.186 108.596C193.666 109.449 193.906 110.425 193.906 111.524C193.906 112.612 193.66 113.583 193.17 114.436C192.69 115.289 192.002 115.961 191.106 116.452C190.22 116.932 189.191 117.172 188.018 117.172H183.554V105.892H188.018ZM187.778 114.404C188.695 114.404 189.415 114.153 189.938 113.652C190.46 113.151 190.722 112.441 190.722 111.524C190.722 110.596 190.46 109.881 189.938 109.38C189.415 108.868 188.695 108.612 187.778 108.612H186.69V114.404H187.778ZM198.455 108.404V110.244H202.055V112.628H198.455V114.66H202.535V117.172H195.319V105.892H202.535V108.404H198.455Z" fill="#30372F"/>
<path fill-rule="evenodd" clip-rule="evenodd" d="M135.449 60.4206C136.023 60.2472 136.586 59.8619 137.019 59.4352C138.975 57.5069 141.392 56.3366 143.906 55.9263L127.026 72.4894C119.481 63.0501 119.271 48.8757 129.05 39.2813C138.828 29.6869 152.989 30.1464 162.435 37.746L154.097 45.9283C151.622 45.0133 148.988 44.5307 146.221 44.4777C140.463 44.5567 135.559 46.2375 131.293 49.6559C130.324 50.4322 129.393 51.2943 128.605 52.2469C127.539 53.5337 128.345 55.4158 129.997 55.6845C130.906 55.8329 131.558 55.3802 132.177 54.7647C137.348 49.6289 143.477 47.8085 150.525 49.4324L148.325 51.5919C147.569 51.4821 146.792 51.4195 145.993 51.407C141.002 51.4705 136.898 53.4239 133.551 57.0291C132.951 57.6754 132.854 58.6261 133.265 59.389C133.69 60.1798 134.579 60.6835 135.449 60.4206ZM159.037 48.4829L166.022 41.6298C173.566 51.0691 173.776 65.2435 163.998 74.8379C154.219 84.4323 140.059 83.9728 130.612 76.3732L144.237 63.0012C146.486 62.2518 148.492 62.8336 150.139 64.5509C150.882 65.3263 151.778 65.5739 152.667 65.2088C153.504 64.8649 154.021 64.0819 154.139 63.1052C154.067 62.9589 154.003 62.8063 153.939 62.6537C153.8 62.3251 153.662 61.9967 153.445 61.7317C152.2 60.204 150.476 59.2004 148.601 58.7188L150.683 56.6758C152.19 57.2846 153.606 58.1967 154.838 59.4123C154.889 59.4626 154.939 59.5136 154.99 59.5646C155.148 59.7248 155.307 59.8851 155.482 60.0239C156.351 60.7126 157.563 60.6259 158.308 59.8371C159.05 59.053 159.079 57.8172 158.335 57.0159C156.993 55.5682 155.527 54.3883 153.932 53.4906L155.858 51.6017C157.261 52.4686 158.548 53.532 159.729 54.7601C160.331 55.3861 161.004 55.8244 161.913 55.6818C162.782 55.546 163.38 55.049 163.669 54.2158C163.99 53.2873 163.669 52.5216 163.021 51.8522C161.766 50.5567 160.436 49.4345 159.037 48.4829ZM142.442 69.3823C142.442 71.4436 144.12 73.1138 146.19 73.1138C148.261 73.1138 149.939 71.4436 149.939 69.3823C149.939 67.3211 148.261 65.6509 146.19 65.6509C144.12 65.6509 142.442 67.3211 142.442 69.3823Z" fill="#006684"/>
</svg>
