<svg width="311" height="261" viewBox="0 0 311 261" fill="none" xmlns="http://www.w3.org/2000/svg">
<g filter="url(#filter0_d_282_2)">
<path d="M10.4624 19.8245C10.4624 11.5402 17.1781 4.82446 25.4624 4.82446H285.462C293.747 4.82446 300.462 11.5402 300.462 19.8245V229.824C300.462 238.109 293.747 244.824 285.462 244.824H25.4624C17.1781 244.824 10.4624 238.109 10.4624 229.824V19.8245Z" fill="white"/>
</g>
<path fill-rule="evenodd" clip-rule="evenodd" d="M173.171 46.7203C177.75 46.7264 181.472 50.4816 181.462 55.0868C181.454 58.4438 179.442 61.3477 176.571 62.6569C176.527 64.6798 176.542 66.704 176.557 68.7283C176.565 69.7854 176.573 70.8425 176.573 71.8994C176.571 75.2686 174.425 77.414 171.055 77.414H141.881C141.145 77.414 140.409 77.4154 139.674 77.4168C137.982 77.42 136.291 77.4232 134.6 77.4094C131.72 77.385 129.491 75.1434 129.477 72.2488C129.459 68.4416 129.459 64.636 129.477 60.8288C129.488 58.4744 131.047 56.4831 133.298 55.8834C133.501 55.8297 133.706 55.7901 133.924 55.7481C134.035 55.7269 134.148 55.705 134.266 55.6804H138.631C138.637 55.6407 138.643 55.6011 138.649 55.5614C138.66 55.4821 138.672 55.4027 138.686 55.3234C139.239 52.154 140.692 49.386 143.004 47.0972C144.356 45.7574 145.919 44.7045 147.656 43.9599C145.597 42.0952 144.572 39.7621 144.609 37.0094C144.641 34.5557 145.551 32.4362 147.314 30.7073C149.075 28.9815 151.378 28.0583 153.801 28.1102C156.173 28.1606 158.398 29.125 160.067 30.8233C161.941 32.7307 162.87 35.3766 162.617 38.0851C162.403 40.3786 161.336 42.4721 159.648 43.966C162.731 45.4599 165.044 47.471 166.576 49.9811C168.098 47.9974 170.489 46.7172 173.171 46.7203ZM153.633 31.6137H153.624C150.588 31.6137 148.106 34.0979 148.089 37.1574C148.081 38.6314 148.653 40.0261 149.7 41.0835C150.752 42.1456 152.144 42.7331 153.623 42.7346H153.632C156.669 42.7346 159.151 40.2504 159.167 37.1909C159.175 35.7169 158.603 34.3222 157.556 33.2648C156.504 32.2027 155.112 31.6152 153.633 31.6137ZM146.545 55.6819L142.169 55.7064C142.169 55.7071 142.169 55.7079 142.169 55.7087C142.168 55.7094 142.168 55.7102 142.168 55.7109C143.244 55.709 144.321 55.7101 145.398 55.7112C146.044 55.7118 146.69 55.7125 147.335 55.7125C153.185 55.7125 159.033 55.7125 164.882 55.7079C164.882 55.6987 164.88 55.6911 164.88 55.6819H146.545ZM142.174 55.6819H146.545L164.873 55.5767C164.862 55.4058 164.855 55.2318 164.855 55.0578C164.855 54.948 164.858 54.8396 164.862 54.7313C164.432 53.2069 163.696 51.8092 162.658 50.5534C160.651 48.1272 158.108 46.7126 155.099 46.3495C151.548 45.9207 148.404 46.9263 145.756 49.3387C143.873 51.0554 142.671 53.1856 142.174 55.6819ZM171.104 73.9868C172.513 73.9868 173.157 73.3444 173.157 71.9375C173.159 69.0901 173.157 66.2428 173.154 63.397C170.054 63.3954 167.344 61.6773 165.918 59.1397H134.906C133.535 59.1397 132.883 59.7882 132.883 61.1584C132.882 64.755 132.882 68.3501 132.883 71.9467C132.883 73.3505 133.527 73.9868 134.944 73.9868H153.024H171.104ZM171.791 58.0502C172.683 58.9367 173.63 58.9443 174.522 58.0578C175.639 56.9485 176.749 55.833 177.858 54.7115C178.366 54.1972 178.576 53.5991 178.488 53.0467C178.434 52.7156 178.273 52.4012 178.004 52.1327C177.825 51.9541 177.626 51.8229 177.415 51.7405C177.363 51.7192 177.308 51.7024 177.255 51.6871C177.147 51.6581 177.036 51.6398 176.925 51.6352C176.703 51.6245 176.475 51.6627 176.25 51.7481C176.138 51.7909 176.025 51.8458 175.916 51.9129C175.752 52.0121 175.591 52.1388 175.437 52.2929C175.255 52.476 175.072 52.6606 174.889 52.8467L174.884 52.8514L174.604 53.1367C174.381 53.3648 174.153 53.5985 173.914 53.8425C173.851 53.9071 173.787 53.9724 173.723 54.0385C173.609 54.1549 173.493 54.2736 173.374 54.3952C173.278 54.4936 173.18 54.5938 173.08 54.6962C173.017 54.6055 172.963 54.5196 172.912 54.4391C172.847 54.3369 172.788 54.2435 172.724 54.1606C172.686 54.1118 172.647 54.066 172.604 54.0233C172.414 53.8386 172.208 53.6998 171.992 53.6067C171.723 53.4892 171.442 53.4434 171.168 53.4678C171.004 53.4816 170.843 53.5213 170.689 53.5869C170.586 53.6296 170.487 53.6845 170.391 53.7501C170.296 53.8158 170.206 53.8921 170.121 53.9806C170.071 54.034 170.024 54.0904 169.981 54.1469C169.969 54.1621 169.958 54.1789 169.946 54.1957C169.914 54.2415 169.885 54.2873 169.858 54.3346C169.849 54.3498 169.84 54.3636 169.832 54.3788C169.8 54.4399 169.771 54.5024 169.747 54.565C169.744 54.5712 169.742 54.578 169.74 54.5847C169.738 54.5894 169.737 54.5941 169.735 54.5986C169.715 54.652 169.7 54.7054 169.686 54.7603C169.682 54.7786 169.677 54.7954 169.674 54.8137C169.662 54.8717 169.653 54.9297 169.647 54.9892C169.645 54.9968 169.644 55.0044 169.644 55.0121C169.637 55.0807 169.637 55.1479 169.641 55.2165C169.641 55.2303 169.642 55.2455 169.644 55.2608C169.647 55.3157 169.654 55.3722 169.663 55.4271C169.665 55.4424 169.668 55.4592 169.671 55.4744C169.685 55.5431 169.701 55.6118 169.724 55.6804C169.812 55.9459 169.966 56.2038 170.188 56.4357C170.647 56.9152 171.118 57.383 171.59 57.8503C171.657 57.9169 171.724 57.9835 171.791 58.0502ZM169.287 66.5313C169.24 67.4575 168.432 68.1976 167.515 68.1579C166.572 68.1182 165.818 67.2759 165.882 66.3344C165.945 65.4128 166.767 64.6819 167.682 64.7368C168.603 64.7933 169.334 65.6111 169.287 66.5313ZM144.036 66.4825C144.054 67.4072 144.841 68.1717 145.761 68.1595C146.683 68.1488 147.448 67.3676 147.445 66.4398C147.441 65.5151 146.669 64.7399 145.747 64.7354C144.805 64.7308 144.016 65.5365 144.036 66.4825ZM136.754 66.449C136.755 67.3737 137.524 68.1519 138.445 68.1595C139.367 68.1671 140.148 67.4011 140.163 66.4764C140.18 65.5517 139.423 64.7598 138.5 64.7369C137.558 64.7125 136.752 65.5029 136.754 66.449ZM153.015 64.7368C153.936 64.7338 154.714 65.5028 154.726 66.4275C154.737 67.3751 153.942 68.1732 153 68.1595C152.08 68.1473 151.313 67.3629 151.317 66.4398C151.32 65.515 152.094 64.7399 153.015 64.7368ZM158.597 66.4749C158.613 67.3996 159.394 68.1671 160.315 68.1595C161.237 68.1534 162.006 67.3752 162.006 66.4505C162.008 65.5243 161.24 64.746 160.318 64.7369C159.376 64.7277 158.582 65.5288 158.597 66.4749Z" fill="#00C9E4"/>
<path d="M42.5404 133.901V134.863H40.0704V142.962H38.8874V134.863H36.4044V133.901H42.5404ZM47.5326 135.708C48.0699 135.708 48.5553 135.825 48.9886 136.059C49.4219 136.284 49.7599 136.626 50.0026 137.086C50.2539 137.545 50.3796 138.104 50.3796 138.763V142.962H49.2096V138.932C49.2096 138.221 49.0319 137.679 48.6766 137.307C48.3213 136.925 47.8359 136.735 47.2206 136.735C46.5966 136.735 46.0983 136.93 45.7256 137.32C45.3616 137.71 45.1796 138.277 45.1796 139.023V142.962H43.9966V133.342H45.1796V136.852C45.4136 136.488 45.7343 136.206 46.1416 136.007C46.5576 135.807 47.0213 135.708 47.5326 135.708ZM58.812 139.127C58.812 139.352 58.799 139.59 58.773 139.842H53.079C53.1224 140.544 53.3607 141.094 53.794 141.493C54.236 141.883 54.769 142.078 55.393 142.078C55.9044 142.078 56.329 141.961 56.667 141.727C57.0137 141.484 57.2564 141.163 57.395 140.765H58.669C58.4784 141.449 58.097 142.008 57.525 142.442C56.953 142.866 56.2424 143.079 55.393 143.079C54.717 143.079 54.1104 142.927 53.573 142.624C53.0444 142.32 52.6284 141.891 52.325 141.337C52.0217 140.773 51.87 140.123 51.87 139.387C51.87 138.65 52.0174 138.004 52.312 137.45C52.6067 136.895 53.0184 136.47 53.547 136.176C54.0844 135.872 54.6997 135.721 55.393 135.721C56.069 135.721 56.667 135.868 57.187 136.163C57.707 136.457 58.1057 136.865 58.383 137.385C58.669 137.896 58.812 138.477 58.812 139.127ZM57.59 138.88C57.59 138.429 57.4904 138.043 57.291 137.723C57.0917 137.393 56.8187 137.146 56.472 136.982C56.134 136.808 55.757 136.722 55.341 136.722C54.743 136.722 54.2317 136.912 53.807 137.294C53.391 137.675 53.1527 138.204 53.092 138.88H57.59ZM71.4061 143.079C70.8601 143.079 70.3704 142.988 69.9371 142.806C69.5038 142.615 69.1614 142.355 68.9101 142.026C68.6588 141.688 68.5201 141.302 68.4941 140.869H69.7161C69.7508 141.224 69.9154 141.514 70.2101 141.74C70.5134 141.965 70.9078 142.078 71.3931 142.078C71.8438 142.078 72.1991 141.978 72.4591 141.779C72.7191 141.579 72.8491 141.328 72.8491 141.025C72.8491 140.713 72.7104 140.483 72.4331 140.336C72.1558 140.18 71.7268 140.028 71.1461 139.881C70.6174 139.742 70.1841 139.603 69.8461 139.465C69.5168 139.317 69.2308 139.105 68.9881 138.828C68.7541 138.542 68.6371 138.169 68.6371 137.71C68.6371 137.346 68.7454 137.012 68.9621 136.709C69.1788 136.405 69.4864 136.167 69.8851 135.994C70.2838 135.812 70.7388 135.721 71.2501 135.721C72.0388 135.721 72.6758 135.92 73.1611 136.319C73.6464 136.717 73.9064 137.263 73.9411 137.957H72.7581C72.7321 137.584 72.5804 137.285 72.3031 137.06C72.0344 136.834 71.6704 136.722 71.2111 136.722C70.7864 136.722 70.4484 136.813 70.1971 136.995C69.9458 137.177 69.8201 137.415 69.8201 137.71C69.8201 137.944 69.8938 138.139 70.0411 138.295C70.1971 138.442 70.3878 138.563 70.6131 138.659C70.8471 138.745 71.1678 138.845 71.5751 138.958C72.0864 139.096 72.5024 139.235 72.8231 139.374C73.1438 139.504 73.4168 139.703 73.6421 139.972C73.8761 140.24 73.9974 140.591 74.0061 141.025C74.0061 141.415 73.8978 141.766 73.6811 142.078C73.4644 142.39 73.1568 142.637 72.7581 142.819C72.3681 142.992 71.9174 143.079 71.4061 143.079ZM75.2341 139.374C75.2341 138.646 75.3814 138.009 75.6761 137.463C75.9708 136.908 76.3738 136.479 76.8851 136.176C77.4051 135.872 77.9814 135.721 78.6141 135.721C79.2381 135.721 79.7798 135.855 80.2391 136.124C80.6984 136.392 81.0408 136.73 81.2661 137.138V135.838H82.4621V142.962H81.2661V141.636C81.0321 142.052 80.6811 142.398 80.2131 142.676C79.7538 142.944 79.2164 143.079 78.6011 143.079C77.9684 143.079 77.3964 142.923 76.8851 142.611C76.3738 142.299 75.9708 141.861 75.6761 141.298C75.3814 140.734 75.2341 140.093 75.2341 139.374ZM81.2661 139.387C81.2661 138.849 81.1578 138.381 80.9411 137.983C80.7244 137.584 80.4298 137.281 80.0571 137.073C79.6931 136.856 79.2901 136.748 78.8481 136.748C78.4061 136.748 78.0031 136.852 77.6391 137.06C77.2751 137.268 76.9848 137.571 76.7681 137.97C76.5514 138.368 76.4431 138.836 76.4431 139.374C76.4431 139.92 76.5514 140.396 76.7681 140.804C76.9848 141.202 77.2751 141.51 77.6391 141.727C78.0031 141.935 78.4061 142.039 78.8481 142.039C79.2901 142.039 79.6931 141.935 80.0571 141.727C80.4298 141.51 80.7244 141.202 80.9411 140.804C81.1578 140.396 81.2661 139.924 81.2661 139.387ZM93.0283 135.708C93.5829 135.708 94.0769 135.825 94.5103 136.059C94.9436 136.284 95.2859 136.626 95.5373 137.086C95.7886 137.545 95.9143 138.104 95.9143 138.763V142.962H94.7443V138.932C94.7443 138.221 94.5666 137.679 94.2113 137.307C93.8646 136.925 93.3923 136.735 92.7943 136.735C92.1789 136.735 91.6893 136.934 91.3253 137.333C90.9613 137.723 90.7793 138.29 90.7793 139.036V142.962H89.6093V138.932C89.6093 138.221 89.4316 137.679 89.0763 137.307C88.7296 136.925 88.2573 136.735 87.6593 136.735C87.0439 136.735 86.5543 136.934 86.1903 137.333C85.8263 137.723 85.6443 138.29 85.6443 139.036V142.962H84.4613V135.838H85.6443V136.865C85.8783 136.492 86.1903 136.206 86.5803 136.007C86.9789 135.807 87.4166 135.708 87.8933 135.708C88.4913 135.708 89.0199 135.842 89.4793 136.111C89.9386 136.379 90.2809 136.774 90.5063 137.294C90.7056 136.791 91.0349 136.401 91.4943 136.124C91.9536 135.846 92.4649 135.708 93.0283 135.708ZM104.355 139.127C104.355 139.352 104.342 139.59 104.316 139.842H98.6218C98.6651 140.544 98.9035 141.094 99.3368 141.493C99.7788 141.883 100.312 142.078 100.936 142.078C101.447 142.078 101.872 141.961 102.21 141.727C102.556 141.484 102.799 141.163 102.938 140.765H104.212C104.021 141.449 103.64 142.008 103.068 142.442C102.496 142.866 101.785 143.079 100.936 143.079C100.26 143.079 99.6531 142.927 99.1158 142.624C98.5871 142.32 98.1711 141.891 97.8678 141.337C97.5645 140.773 97.4128 140.123 97.4128 139.387C97.4128 138.65 97.5601 138.004 97.8548 137.45C98.1495 136.895 98.5611 136.47 99.0898 136.176C99.6271 135.872 100.242 135.721 100.936 135.721C101.612 135.721 102.21 135.868 102.73 136.163C103.25 136.457 103.648 136.865 103.926 137.385C104.212 137.896 104.355 138.477 104.355 139.127ZM103.133 138.88C103.133 138.429 103.033 138.043 102.834 137.723C102.634 137.393 102.361 137.146 102.015 136.982C101.677 136.808 101.3 136.722 100.884 136.722C100.286 136.722 99.7745 136.912 99.3498 137.294C98.9338 137.675 98.6955 138.204 98.6348 138.88H103.133ZM117.326 136.813H115.831V142.962H114.648V136.813H113.725V135.838H114.648V135.331C114.648 134.533 114.852 133.953 115.259 133.589C115.675 133.216 116.338 133.03 117.248 133.03V134.018C116.728 134.018 116.36 134.122 116.143 134.33C115.935 134.529 115.831 134.863 115.831 135.331V135.838H117.326V136.813ZM121.812 143.079C121.145 143.079 120.538 142.927 119.992 142.624C119.455 142.32 119.03 141.891 118.718 141.337C118.415 140.773 118.263 140.123 118.263 139.387C118.263 138.659 118.419 138.017 118.731 137.463C119.052 136.899 119.485 136.47 120.031 136.176C120.577 135.872 121.188 135.721 121.864 135.721C122.54 135.721 123.151 135.872 123.697 136.176C124.243 136.47 124.672 136.895 124.984 137.45C125.305 138.004 125.465 138.65 125.465 139.387C125.465 140.123 125.301 140.773 124.971 141.337C124.651 141.891 124.213 142.32 123.658 142.624C123.104 142.927 122.488 143.079 121.812 143.079ZM121.812 142.039C122.237 142.039 122.636 141.939 123.008 141.74C123.381 141.54 123.68 141.241 123.905 140.843C124.139 140.444 124.256 139.959 124.256 139.387C124.256 138.815 124.144 138.329 123.918 137.931C123.693 137.532 123.398 137.237 123.034 137.047C122.67 136.847 122.276 136.748 121.851 136.748C121.418 136.748 121.019 136.847 120.655 137.047C120.3 137.237 120.014 137.532 119.797 137.931C119.581 138.329 119.472 138.815 119.472 139.387C119.472 139.967 119.576 140.457 119.784 140.856C120.001 141.254 120.287 141.553 120.642 141.753C120.998 141.943 121.388 142.039 121.812 142.039ZM128.204 136.995C128.412 136.587 128.706 136.271 129.088 136.046C129.478 135.82 129.95 135.708 130.505 135.708V136.93H130.193C128.867 136.93 128.204 137.649 128.204 139.088V142.962H127.021V135.838H128.204V136.995ZM140.437 135.708C140.992 135.708 141.486 135.825 141.919 136.059C142.353 136.284 142.695 136.626 142.946 137.086C143.198 137.545 143.323 138.104 143.323 138.763V142.962H142.153V138.932C142.153 138.221 141.976 137.679 141.62 137.307C141.274 136.925 140.801 136.735 140.203 136.735C139.588 136.735 139.098 136.934 138.734 137.333C138.37 137.723 138.188 138.29 138.188 139.036V142.962H137.018V138.932C137.018 138.221 136.841 137.679 136.485 137.307C136.139 136.925 135.666 136.735 135.068 136.735C134.453 136.735 133.963 136.934 133.599 137.333C133.235 137.723 133.053 138.29 133.053 139.036V142.962H131.87V135.838H133.053V136.865C133.287 136.492 133.599 136.206 133.989 136.007C134.388 135.807 134.826 135.708 135.302 135.708C135.9 135.708 136.429 135.842 136.888 136.111C137.348 136.379 137.69 136.774 137.915 137.294C138.115 136.791 138.444 136.401 138.903 136.124C139.363 135.846 139.874 135.708 140.437 135.708ZM144.822 139.374C144.822 138.646 144.969 138.009 145.264 137.463C145.558 136.908 145.961 136.479 146.473 136.176C146.993 135.872 147.569 135.721 148.202 135.721C148.826 135.721 149.367 135.855 149.827 136.124C150.286 136.392 150.628 136.73 150.854 137.138V135.838H152.05V142.962H150.854V141.636C150.62 142.052 150.269 142.398 149.801 142.676C149.341 142.944 148.804 143.079 148.189 143.079C147.556 143.079 146.984 142.923 146.473 142.611C145.961 142.299 145.558 141.861 145.264 141.298C144.969 140.734 144.822 140.093 144.822 139.374ZM150.854 139.387C150.854 138.849 150.745 138.381 150.529 137.983C150.312 137.584 150.017 137.281 149.645 137.073C149.281 136.856 148.878 136.748 148.436 136.748C147.994 136.748 147.591 136.852 147.227 137.06C146.863 137.268 146.572 137.571 146.356 137.97C146.139 138.368 146.031 138.836 146.031 139.374C146.031 139.92 146.139 140.396 146.356 140.804C146.572 141.202 146.863 141.51 147.227 141.727C147.591 141.935 147.994 142.039 148.436 142.039C148.878 142.039 149.281 141.935 149.645 141.727C150.017 141.51 150.312 141.202 150.529 140.804C150.745 140.396 150.854 139.924 150.854 139.387ZM155.492 136.813V141.012C155.492 141.358 155.566 141.605 155.713 141.753C155.86 141.891 156.116 141.961 156.48 141.961H157.351V142.962H156.285C155.626 142.962 155.132 142.81 154.803 142.507C154.474 142.203 154.309 141.705 154.309 141.012V136.813H153.386V135.838H154.309V134.044H155.492V135.838H157.351V136.813H155.492ZM170.402 143.079C169.735 143.079 169.128 142.927 168.582 142.624C168.045 142.32 167.62 141.891 167.308 141.337C167.005 140.773 166.853 140.123 166.853 139.387C166.853 138.659 167.009 138.017 167.321 137.463C167.642 136.899 168.075 136.47 168.621 136.176C169.167 135.872 169.778 135.721 170.454 135.721C171.13 135.721 171.741 135.872 172.287 136.176C172.833 136.47 173.262 136.895 173.574 137.45C173.895 138.004 174.055 138.65 174.055 139.387C174.055 140.123 173.89 140.773 173.561 141.337C173.24 141.891 172.803 142.32 172.248 142.624C171.693 142.927 171.078 143.079 170.402 143.079ZM170.402 142.039C170.827 142.039 171.225 141.939 171.598 141.74C171.971 141.54 172.27 141.241 172.495 140.843C172.729 140.444 172.846 139.959 172.846 139.387C172.846 138.815 172.733 138.329 172.508 137.931C172.283 137.532 171.988 137.237 171.624 137.047C171.26 136.847 170.866 136.748 170.441 136.748C170.008 136.748 169.609 136.847 169.245 137.047C168.89 137.237 168.604 137.532 168.387 137.931C168.17 138.329 168.062 138.815 168.062 139.387C168.062 139.967 168.166 140.457 168.374 140.856C168.591 141.254 168.877 141.553 169.232 141.753C169.587 141.943 169.977 142.039 170.402 142.039ZM178.509 136.813H177.014V142.962H175.831V136.813H174.908V135.838H175.831V135.331C175.831 134.533 176.035 133.953 176.442 133.589C176.858 133.216 177.521 133.03 178.431 133.03V134.018C177.911 134.018 177.543 134.122 177.326 134.33C177.118 134.529 177.014 134.863 177.014 135.331V135.838H178.509V136.813ZM187.957 138.425C187.957 137.541 188.156 136.748 188.555 136.046C188.954 135.335 189.495 134.78 190.18 134.382C190.873 133.983 191.64 133.784 192.481 133.784C193.469 133.784 194.331 134.022 195.068 134.499C195.805 134.975 196.342 135.651 196.68 136.527H195.263C195.012 135.981 194.648 135.56 194.171 135.266C193.703 134.971 193.14 134.824 192.481 134.824C191.848 134.824 191.281 134.971 190.778 135.266C190.275 135.56 189.881 135.981 189.595 136.527C189.309 137.064 189.166 137.697 189.166 138.425C189.166 139.144 189.309 139.777 189.595 140.323C189.881 140.86 190.275 141.276 190.778 141.571C191.281 141.865 191.848 142.013 192.481 142.013C193.14 142.013 193.703 141.87 194.171 141.584C194.648 141.289 195.012 140.869 195.263 140.323H196.68C196.342 141.189 195.805 141.861 195.068 142.338C194.331 142.806 193.469 143.04 192.481 143.04C191.64 143.04 190.873 142.845 190.18 142.455C189.495 142.056 188.954 141.506 188.555 140.804C188.156 140.102 187.957 139.309 187.957 138.425ZM201.262 133.901C202.25 133.901 203.104 134.087 203.823 134.46C204.551 134.824 205.106 135.348 205.487 136.033C205.877 136.717 206.072 137.523 206.072 138.451C206.072 139.378 205.877 140.184 205.487 140.869C205.106 141.545 204.551 142.065 203.823 142.429C203.104 142.784 202.25 142.962 201.262 142.962H198.441V133.901H201.262ZM201.262 141.987C202.432 141.987 203.325 141.679 203.94 141.064C204.555 140.44 204.863 139.569 204.863 138.451C204.863 137.324 204.551 136.444 203.927 135.812C203.312 135.179 202.423 134.863 201.262 134.863H199.624V141.987H201.262ZM208.816 142H211.988V142.962H207.633V133.901H208.816V142ZM222.937 137.151C223.171 136.743 223.518 136.405 223.977 136.137C224.445 135.859 224.987 135.721 225.602 135.721C226.235 135.721 226.807 135.872 227.318 136.176C227.838 136.479 228.246 136.908 228.54 137.463C228.835 138.009 228.982 138.646 228.982 139.374C228.982 140.093 228.835 140.734 228.54 141.298C228.246 141.861 227.838 142.299 227.318 142.611C226.807 142.923 226.235 143.079 225.602 143.079C224.996 143.079 224.458 142.944 223.99 142.676C223.531 142.398 223.18 142.056 222.937 141.649V146.342H221.754V135.838H222.937V137.151ZM227.773 139.374C227.773 138.836 227.665 138.368 227.448 137.97C227.232 137.571 226.937 137.268 226.564 137.06C226.2 136.852 225.797 136.748 225.355 136.748C224.922 136.748 224.519 136.856 224.146 137.073C223.782 137.281 223.488 137.588 223.262 137.996C223.046 138.394 222.937 138.858 222.937 139.387C222.937 139.924 223.046 140.396 223.262 140.804C223.488 141.202 223.782 141.51 224.146 141.727C224.519 141.935 224.922 142.039 225.355 142.039C225.797 142.039 226.2 141.935 226.564 141.727C226.937 141.51 227.232 141.202 227.448 140.804C227.665 140.396 227.773 139.92 227.773 139.374ZM231.723 136.995C231.931 136.587 232.225 136.271 232.607 136.046C232.997 135.82 233.469 135.708 234.024 135.708V136.93H233.712C232.386 136.93 231.723 137.649 231.723 139.088V142.962H230.54V135.838H231.723V136.995ZM234.947 139.374C234.947 138.646 235.095 138.009 235.389 137.463C235.684 136.908 236.087 136.479 236.598 136.176C237.118 135.872 237.695 135.721 238.327 135.721C238.951 135.721 239.493 135.855 239.952 136.124C240.412 136.392 240.754 136.73 240.979 137.138V135.838H242.175V142.962H240.979V141.636C240.745 142.052 240.394 142.398 239.926 142.676C239.467 142.944 238.93 143.079 238.314 143.079C237.682 143.079 237.11 142.923 236.598 142.611C236.087 142.299 235.684 141.861 235.389 141.298C235.095 140.734 234.947 140.093 234.947 139.374ZM240.979 139.387C240.979 138.849 240.871 138.381 240.654 137.983C240.438 137.584 240.143 137.281 239.77 137.073C239.406 136.856 239.003 136.748 238.561 136.748C238.119 136.748 237.716 136.852 237.352 137.06C236.988 137.268 236.698 137.571 236.481 137.97C236.265 138.368 236.156 138.836 236.156 139.374C236.156 139.92 236.265 140.396 236.481 140.804C236.698 141.202 236.988 141.51 237.352 141.727C237.716 141.935 238.119 142.039 238.561 142.039C239.003 142.039 239.406 141.935 239.77 141.727C240.143 141.51 240.438 141.202 240.654 140.804C240.871 140.396 240.979 139.924 240.979 139.387ZM243.732 139.387C243.732 138.65 243.88 138.009 244.174 137.463C244.469 136.908 244.876 136.479 245.396 136.176C245.925 135.872 246.527 135.721 247.203 135.721C248.079 135.721 248.798 135.933 249.361 136.358C249.933 136.782 250.31 137.372 250.492 138.126H249.218C249.097 137.692 248.859 137.35 248.503 137.099C248.157 136.847 247.723 136.722 247.203 136.722C246.527 136.722 245.981 136.956 245.565 137.424C245.149 137.883 244.941 138.537 244.941 139.387C244.941 140.245 245.149 140.908 245.565 141.376C245.981 141.844 246.527 142.078 247.203 142.078C247.723 142.078 248.157 141.956 248.503 141.714C248.85 141.471 249.088 141.124 249.218 140.674H250.492C250.302 141.402 249.92 141.987 249.348 142.429C248.776 142.862 248.061 143.079 247.203 143.079C246.527 143.079 245.925 142.927 245.396 142.624C244.876 142.32 244.469 141.891 244.174 141.337C243.88 140.782 243.732 140.132 243.732 139.387ZM253.514 136.813V141.012C253.514 141.358 253.587 141.605 253.735 141.753C253.882 141.891 254.138 141.961 254.502 141.961H255.373V142.962H254.307C253.648 142.962 253.154 142.81 252.825 142.507C252.495 142.203 252.331 141.705 252.331 141.012V136.813H251.408V135.838H252.331V134.044H253.514V135.838H255.373V136.813H253.514ZM257.417 134.681C257.192 134.681 257.001 134.603 256.845 134.447C256.689 134.291 256.611 134.1 256.611 133.875C256.611 133.649 256.689 133.459 256.845 133.303C257.001 133.147 257.192 133.069 257.417 133.069C257.634 133.069 257.816 133.147 257.963 133.303C258.119 133.459 258.197 133.649 258.197 133.875C258.197 134.1 258.119 134.291 257.963 134.447C257.816 134.603 257.634 134.681 257.417 134.681ZM257.989 135.838V142.962H256.806V135.838H257.989ZM259.563 139.387C259.563 138.65 259.711 138.009 260.005 137.463C260.3 136.908 260.707 136.479 261.227 136.176C261.756 135.872 262.358 135.721 263.034 135.721C263.91 135.721 264.629 135.933 265.192 136.358C265.764 136.782 266.141 137.372 266.323 138.126H265.049C264.928 137.692 264.69 137.35 264.334 137.099C263.988 136.847 263.554 136.722 263.034 136.722C262.358 136.722 261.812 136.956 261.396 137.424C260.98 137.883 260.772 138.537 260.772 139.387C260.772 140.245 260.98 140.908 261.396 141.376C261.812 141.844 262.358 142.078 263.034 142.078C263.554 142.078 263.988 141.956 264.334 141.714C264.681 141.471 264.919 141.124 265.049 140.674H266.323C266.133 141.402 265.751 141.987 265.179 142.429C264.607 142.862 263.892 143.079 263.034 143.079C262.358 143.079 261.756 142.927 261.227 142.624C260.707 142.32 260.3 141.891 260.005 141.337C259.711 140.782 259.563 140.132 259.563 139.387ZM274.402 139.127C274.402 139.352 274.389 139.59 274.363 139.842H268.669C268.712 140.544 268.951 141.094 269.384 141.493C269.826 141.883 270.359 142.078 270.983 142.078C271.494 142.078 271.919 141.961 272.257 141.727C272.604 141.484 272.846 141.163 272.985 140.765H274.259C274.068 141.449 273.687 142.008 273.115 142.442C272.543 142.866 271.832 143.079 270.983 143.079C270.307 143.079 269.7 142.927 269.163 142.624C268.634 142.32 268.218 141.891 267.915 141.337C267.612 140.773 267.46 140.123 267.46 139.387C267.46 138.65 267.607 138.004 267.902 137.45C268.197 136.895 268.608 136.47 269.137 136.176C269.674 135.872 270.29 135.721 270.983 135.721C271.659 135.721 272.257 135.868 272.777 136.163C273.297 136.457 273.696 136.865 273.973 137.385C274.259 137.896 274.402 138.477 274.402 139.127ZM273.18 138.88C273.18 138.429 273.08 138.043 272.881 137.723C272.682 137.393 272.409 137.146 272.062 136.982C271.724 136.808 271.347 136.722 270.931 136.722C270.333 136.722 269.822 136.912 269.397 137.294C268.981 137.675 268.743 138.204 268.682 138.88H273.18ZM38.4064 156.813V161.012C38.4064 161.358 38.4801 161.605 38.6274 161.753C38.7747 161.891 39.0304 161.961 39.3944 161.961H40.2654V162.962H39.1994C38.5407 162.962 38.0467 162.81 37.7174 162.507C37.3881 162.203 37.2234 161.705 37.2234 161.012V156.813H36.3004V155.838H37.2234V154.044H38.4064V155.838H40.2654V156.813H38.4064ZM48.1988 159.127C48.1988 159.352 48.1858 159.59 48.1598 159.842H42.4658C42.5091 160.544 42.7474 161.094 43.1808 161.493C43.6228 161.883 44.1558 162.078 44.7798 162.078C45.2911 162.078 45.7158 161.961 46.0538 161.727C46.4004 161.484 46.6431 161.163 46.7818 160.765H48.0558C47.8651 161.449 47.4838 162.008 46.9118 162.442C46.3398 162.866 45.6291 163.079 44.7798 163.079C44.1038 163.079 43.4971 162.927 42.9598 162.624C42.4311 162.32 42.0151 161.891 41.7118 161.337C41.4084 160.773 41.2568 160.123 41.2568 159.387C41.2568 158.65 41.4041 158.004 41.6988 157.45C41.9934 156.895 42.4051 156.47 42.9338 156.176C43.4711 155.872 44.0864 155.721 44.7798 155.721C45.4558 155.721 46.0538 155.868 46.5738 156.163C47.0938 156.457 47.4924 156.865 47.7698 157.385C48.0558 157.896 48.1988 158.477 48.1988 159.127ZM46.9768 158.88C46.9768 158.429 46.8771 158.043 46.6778 157.723C46.4784 157.393 46.2054 157.146 45.8588 156.982C45.5208 156.808 45.1438 156.722 44.7278 156.722C44.1298 156.722 43.6184 156.912 43.1938 157.294C42.7778 157.675 42.5394 158.204 42.4788 158.88H46.9768ZM52.2823 163.079C51.7363 163.079 51.2466 162.988 50.8133 162.806C50.3799 162.615 50.0376 162.355 49.7863 162.026C49.5349 161.688 49.3963 161.302 49.3703 160.869H50.5923C50.6269 161.224 50.7916 161.514 51.0863 161.74C51.3896 161.965 51.7839 162.078 52.2693 162.078C52.7199 162.078 53.0753 161.978 53.3353 161.779C53.5953 161.579 53.7253 161.328 53.7253 161.025C53.7253 160.713 53.5866 160.483 53.3093 160.336C53.0319 160.18 52.6029 160.028 52.0223 159.881C51.4936 159.742 51.0603 159.603 50.7223 159.465C50.3929 159.317 50.1069 159.105 49.8643 158.828C49.6303 158.542 49.5133 158.169 49.5133 157.71C49.5133 157.346 49.6216 157.012 49.8383 156.709C50.0549 156.405 50.3626 156.167 50.7613 155.994C51.1599 155.812 51.6149 155.721 52.1263 155.721C52.9149 155.721 53.5519 155.92 54.0373 156.319C54.5226 156.717 54.7826 157.263 54.8173 157.957H53.6343C53.6083 157.584 53.4566 157.285 53.1793 157.06C52.9106 156.834 52.5466 156.722 52.0873 156.722C51.6626 156.722 51.3246 156.813 51.0733 156.995C50.8219 157.177 50.6963 157.415 50.6963 157.71C50.6963 157.944 50.7699 158.139 50.9173 158.295C51.0733 158.442 51.2639 158.563 51.4893 158.659C51.7233 158.745 52.0439 158.845 52.4513 158.958C52.9626 159.096 53.3786 159.235 53.6993 159.374C54.0199 159.504 54.2929 159.703 54.5183 159.972C54.7523 160.24 54.8736 160.591 54.8823 161.025C54.8823 161.415 54.7739 161.766 54.5573 162.078C54.3406 162.39 54.0329 162.637 53.6343 162.819C53.2443 162.992 52.7936 163.079 52.2823 163.079ZM57.9953 156.813V161.012C57.9953 161.358 58.0689 161.605 58.2163 161.753C58.3636 161.891 58.6193 161.961 58.9833 161.961H59.8543V162.962H58.7883C58.1296 162.962 57.6356 162.81 57.3063 162.507C56.9769 162.203 56.8123 161.705 56.8123 161.012V156.813H55.8893V155.838H56.8123V154.044H57.9953V155.838H59.8543V156.813H57.9953ZM67.9874 159.374C67.9874 158.646 68.1347 158.009 68.4294 157.463C68.724 156.908 69.127 156.479 69.6384 156.176C70.1584 155.872 70.7347 155.721 71.3674 155.721C71.9914 155.721 72.533 155.855 72.9924 156.124C73.4517 156.392 73.794 156.73 74.0194 157.138V155.838H75.2154V162.962H74.0194V161.636C73.7854 162.052 73.4344 162.398 72.9664 162.676C72.507 162.944 71.9697 163.079 71.3544 163.079C70.7217 163.079 70.1497 162.923 69.6384 162.611C69.127 162.299 68.724 161.861 68.4294 161.298C68.1347 160.734 67.9874 160.093 67.9874 159.374ZM74.0194 159.387C74.0194 158.849 73.911 158.381 73.6944 157.983C73.4777 157.584 73.183 157.281 72.8104 157.073C72.4464 156.856 72.0434 156.748 71.6014 156.748C71.1594 156.748 70.7564 156.852 70.3924 157.06C70.0284 157.268 69.738 157.571 69.5214 157.97C69.3047 158.368 69.1964 158.836 69.1964 159.374C69.1964 159.92 69.3047 160.396 69.5214 160.804C69.738 161.202 70.0284 161.51 70.3924 161.727C70.7564 161.935 71.1594 162.039 71.6014 162.039C72.0434 162.039 72.4464 161.935 72.8104 161.727C73.183 161.51 73.4777 161.202 73.6944 160.804C73.911 160.396 74.0194 159.924 74.0194 159.387ZM79.7365 163.079C79.1905 163.079 78.7009 162.988 78.2675 162.806C77.8342 162.615 77.4919 162.355 77.2405 162.026C76.9892 161.688 76.8505 161.302 76.8245 160.869H78.0465C78.0812 161.224 78.2459 161.514 78.5405 161.74C78.8439 161.965 79.2382 162.078 79.7235 162.078C80.1742 162.078 80.5295 161.978 80.7895 161.779C81.0495 161.579 81.1795 161.328 81.1795 161.025C81.1795 160.713 81.0409 160.483 80.7635 160.336C80.4862 160.18 80.0572 160.028 79.4765 159.881C78.9479 159.742 78.5145 159.603 78.1765 159.465C77.8472 159.317 77.5612 159.105 77.3185 158.828C77.0845 158.542 76.9675 158.169 76.9675 157.71C76.9675 157.346 77.0759 157.012 77.2925 156.709C77.5092 156.405 77.8169 156.167 78.2155 155.994C78.6142 155.812 79.0692 155.721 79.5805 155.721C80.3692 155.721 81.0062 155.92 81.4915 156.319C81.9769 156.717 82.2369 157.263 82.2715 157.957H81.0885C81.0625 157.584 80.9109 157.285 80.6335 157.06C80.3649 156.834 80.0009 156.722 79.5415 156.722C79.1169 156.722 78.7789 156.813 78.5275 156.995C78.2762 157.177 78.1505 157.415 78.1505 157.71C78.1505 157.944 78.2242 158.139 78.3715 158.295C78.5275 158.442 78.7182 158.563 78.9435 158.659C79.1775 158.745 79.4982 158.845 79.9055 158.958C80.4169 159.096 80.8329 159.235 81.1535 159.374C81.4742 159.504 81.7472 159.703 81.9725 159.972C82.2065 160.24 82.3279 160.591 82.3365 161.025C82.3365 161.415 82.2282 161.766 82.0115 162.078C81.7949 162.39 81.4872 162.637 81.0885 162.819C80.6985 162.992 80.2479 163.079 79.7365 163.079ZM92.5913 156.813V161.012C92.5913 161.358 92.6649 161.605 92.8123 161.753C92.9596 161.891 93.2153 161.961 93.5793 161.961H94.4503V162.962H93.3843C92.7256 162.962 92.2316 162.81 91.9023 162.507C91.5729 162.203 91.4083 161.705 91.4083 161.012V156.813H90.4853V155.838H91.4083V154.044H92.5913V155.838H94.4503V156.813H92.5913ZM99.4196 155.708C99.9569 155.708 100.442 155.825 100.876 156.059C101.309 156.284 101.647 156.626 101.89 157.086C102.141 157.545 102.267 158.104 102.267 158.763V162.962H101.097V158.932C101.097 158.221 100.919 157.679 100.564 157.307C100.208 156.925 99.7229 156.735 99.1076 156.735C98.4836 156.735 97.9853 156.93 97.6126 157.32C97.2486 157.71 97.0666 158.277 97.0666 159.023V162.962H95.8836V153.342H97.0666V156.852C97.3006 156.488 97.6213 156.206 98.0286 156.007C98.4446 155.807 98.9083 155.708 99.4196 155.708ZM110.699 159.127C110.699 159.352 110.686 159.59 110.66 159.842H104.966C105.009 160.544 105.248 161.094 105.681 161.493C106.123 161.883 106.656 162.078 107.28 162.078C107.791 162.078 108.216 161.961 108.554 161.727C108.901 161.484 109.143 161.163 109.282 160.765H110.556C110.365 161.449 109.984 162.008 109.412 162.442C108.84 162.866 108.129 163.079 107.28 163.079C106.604 163.079 105.997 162.927 105.46 162.624C104.931 162.32 104.515 161.891 104.212 161.337C103.909 160.773 103.757 160.123 103.757 159.387C103.757 158.65 103.904 158.004 104.199 157.45C104.494 156.895 104.905 156.47 105.434 156.176C105.971 155.872 106.587 155.721 107.28 155.721C107.956 155.721 108.554 155.868 109.074 156.163C109.594 156.457 109.993 156.865 110.27 157.385C110.556 157.896 110.699 158.477 110.699 159.127ZM109.477 158.88C109.477 158.429 109.377 158.043 109.178 157.723C108.979 157.393 108.706 157.146 108.359 156.982C108.021 156.808 107.644 156.722 107.228 156.722C106.63 156.722 106.119 156.912 105.694 157.294C105.278 157.675 105.04 158.204 104.979 158.88H109.477ZM118.96 159.374C118.96 158.646 119.108 158.009 119.402 157.463C119.697 156.908 120.1 156.479 120.611 156.176C121.131 155.872 121.708 155.721 122.34 155.721C122.964 155.721 123.506 155.855 123.965 156.124C124.425 156.392 124.767 156.73 124.992 157.138V155.838H126.188V162.962H124.992V161.636C124.758 162.052 124.407 162.398 123.939 162.676C123.48 162.944 122.943 163.079 122.327 163.079C121.695 163.079 121.123 162.923 120.611 162.611C120.1 162.299 119.697 161.861 119.402 161.298C119.108 160.734 118.96 160.093 118.96 159.374ZM124.992 159.387C124.992 158.849 124.884 158.381 124.667 157.983C124.451 157.584 124.156 157.281 123.783 157.073C123.419 156.856 123.016 156.748 122.574 156.748C122.132 156.748 121.729 156.852 121.365 157.06C121.001 157.268 120.711 157.571 120.494 157.97C120.278 158.368 120.169 158.836 120.169 159.374C120.169 159.92 120.278 160.396 120.494 160.804C120.711 161.202 121.001 161.51 121.365 161.727C121.729 161.935 122.132 162.039 122.574 162.039C123.016 162.039 123.419 161.935 123.783 161.727C124.156 161.51 124.451 161.202 124.667 160.804C124.884 160.396 124.992 159.924 124.992 159.387ZM127.745 159.387C127.745 158.65 127.893 158.009 128.187 157.463C128.482 156.908 128.889 156.479 129.409 156.176C129.938 155.872 130.54 155.721 131.216 155.721C132.092 155.721 132.811 155.933 133.374 156.358C133.946 156.782 134.323 157.372 134.505 158.126H133.231C133.11 157.692 132.872 157.35 132.516 157.099C132.17 156.847 131.736 156.722 131.216 156.722C130.54 156.722 129.994 156.956 129.578 157.424C129.162 157.883 128.954 158.537 128.954 159.387C128.954 160.245 129.162 160.908 129.578 161.376C129.994 161.844 130.54 162.078 131.216 162.078C131.736 162.078 132.17 161.956 132.516 161.714C132.863 161.471 133.101 161.124 133.231 160.674H134.505C134.315 161.402 133.933 161.987 133.361 162.429C132.789 162.862 132.074 163.079 131.216 163.079C130.54 163.079 129.938 162.927 129.409 162.624C128.889 162.32 128.482 161.891 128.187 161.337C127.893 160.782 127.745 160.132 127.745 159.387ZM137.527 156.813V161.012C137.527 161.358 137.601 161.605 137.748 161.753C137.895 161.891 138.151 161.961 138.515 161.961H139.386V162.962H138.32C137.661 162.962 137.167 162.81 136.838 162.507C136.509 162.203 136.344 161.705 136.344 161.012V156.813H135.421V155.838H136.344V154.044H137.527V155.838H139.386V156.813H137.527ZM147.137 155.838V162.962H145.954V161.909C145.729 162.273 145.413 162.559 145.005 162.767C144.607 162.966 144.165 163.066 143.679 163.066C143.125 163.066 142.626 162.953 142.184 162.728C141.742 162.494 141.391 162.147 141.131 161.688C140.88 161.228 140.754 160.669 140.754 160.011V155.838H141.924V159.855C141.924 160.557 142.102 161.098 142.457 161.48C142.813 161.852 143.298 162.039 143.913 162.039C144.546 162.039 145.044 161.844 145.408 161.454C145.772 161.064 145.954 160.496 145.954 159.751V155.838H147.137ZM148.693 159.374C148.693 158.646 148.84 158.009 149.135 157.463C149.429 156.908 149.832 156.479 150.344 156.176C150.864 155.872 151.44 155.721 152.073 155.721C152.697 155.721 153.238 155.855 153.698 156.124C154.157 156.392 154.499 156.73 154.725 157.138V155.838H155.921V162.962H154.725V161.636C154.491 162.052 154.14 162.398 153.672 162.676C153.212 162.944 152.675 163.079 152.06 163.079C151.427 163.079 150.855 162.923 150.344 162.611C149.832 162.299 149.429 161.861 149.135 161.298C148.84 160.734 148.693 160.093 148.693 159.374ZM154.725 159.387C154.725 158.849 154.616 158.381 154.4 157.983C154.183 157.584 153.888 157.281 153.516 157.073C153.152 156.856 152.749 156.748 152.307 156.748C151.865 156.748 151.462 156.852 151.098 157.06C150.734 157.268 150.443 157.571 150.227 157.97C150.01 158.368 149.902 158.836 149.902 159.374C149.902 159.92 150.01 160.396 150.227 160.804C150.443 161.202 150.734 161.51 151.098 161.727C151.462 161.935 151.865 162.039 152.307 162.039C152.749 162.039 153.152 161.935 153.516 161.727C153.888 161.51 154.183 161.202 154.4 160.804C154.616 160.396 154.725 159.924 154.725 159.387ZM159.103 153.342V162.962H157.92V153.342H159.103ZM167.819 158.425C167.819 157.541 168.018 156.748 168.417 156.046C168.816 155.335 169.357 154.78 170.042 154.382C170.735 153.983 171.502 153.784 172.343 153.784C173.331 153.784 174.193 154.022 174.93 154.499C175.667 154.975 176.204 155.651 176.542 156.527H175.125C174.874 155.981 174.51 155.56 174.033 155.266C173.565 154.971 173.002 154.824 172.343 154.824C171.71 154.824 171.143 154.971 170.64 155.266C170.137 155.56 169.743 155.981 169.457 156.527C169.171 157.064 169.028 157.697 169.028 158.425C169.028 159.144 169.171 159.777 169.457 160.323C169.743 160.86 170.137 161.276 170.64 161.571C171.143 161.865 171.71 162.013 172.343 162.013C173.002 162.013 173.565 161.87 174.033 161.584C174.51 161.289 174.874 160.869 175.125 160.323H176.542C176.204 161.189 175.667 161.861 174.93 162.338C174.193 162.806 173.331 163.04 172.343 163.04C171.502 163.04 170.735 162.845 170.042 162.455C169.357 162.056 168.816 161.506 168.417 160.804C168.018 160.102 167.819 159.309 167.819 158.425ZM181.124 153.901C182.112 153.901 182.966 154.087 183.685 154.46C184.413 154.824 184.968 155.348 185.349 156.033C185.739 156.717 185.934 157.523 185.934 158.451C185.934 159.378 185.739 160.184 185.349 160.869C184.968 161.545 184.413 162.065 183.685 162.429C182.966 162.784 182.112 162.962 181.124 162.962H178.303V153.901H181.124ZM181.124 161.987C182.294 161.987 183.187 161.679 183.802 161.064C184.417 160.44 184.725 159.569 184.725 158.451C184.725 157.324 184.413 156.444 183.789 155.812C183.174 155.179 182.285 154.863 181.124 154.863H179.486V161.987H181.124ZM188.677 162H191.849V162.962H187.494V153.901H188.677V162ZM201.69 156.813V161.012C201.69 161.358 201.764 161.605 201.911 161.753C202.059 161.891 202.314 161.961 202.678 161.961H203.549V162.962H202.483C201.825 162.962 201.331 162.81 201.001 162.507C200.672 162.203 200.507 161.705 200.507 161.012V156.813H199.584V155.838H200.507V154.044H201.69V155.838H203.549V156.813H201.69ZM211.483 159.127C211.483 159.352 211.47 159.59 211.444 159.842H205.75C205.793 160.544 206.031 161.094 206.465 161.493C206.907 161.883 207.44 162.078 208.064 162.078C208.575 162.078 209 161.961 209.338 161.727C209.684 161.484 209.927 161.163 210.066 160.765H211.34C211.149 161.449 210.768 162.008 210.196 162.442C209.624 162.866 208.913 163.079 208.064 163.079C207.388 163.079 206.781 162.927 206.244 162.624C205.715 162.32 205.299 161.891 204.996 161.337C204.692 160.773 204.541 160.123 204.541 159.387C204.541 158.65 204.688 158.004 204.983 157.45C205.277 156.895 205.689 156.47 206.218 156.176C206.755 155.872 207.37 155.721 208.064 155.721C208.74 155.721 209.338 155.868 209.858 156.163C210.378 156.457 210.776 156.865 211.054 157.385C211.34 157.896 211.483 158.477 211.483 159.127ZM210.261 158.88C210.261 158.429 210.161 158.043 209.962 157.723C209.762 157.393 209.489 157.146 209.143 156.982C208.805 156.808 208.428 156.722 208.012 156.722C207.414 156.722 206.902 156.912 206.478 157.294C206.062 157.675 205.823 158.204 205.763 158.88H210.261ZM215.566 163.079C215.02 163.079 214.531 162.988 214.097 162.806C213.664 162.615 213.322 162.355 213.07 162.026C212.819 161.688 212.68 161.302 212.654 160.869H213.876C213.911 161.224 214.076 161.514 214.37 161.74C214.674 161.965 215.068 162.078 215.553 162.078C216.004 162.078 216.359 161.978 216.619 161.779C216.879 161.579 217.009 161.328 217.009 161.025C217.009 160.713 216.871 160.483 216.593 160.336C216.316 160.18 215.887 160.028 215.306 159.881C214.778 159.742 214.344 159.603 214.006 159.465C213.677 159.317 213.391 159.105 213.148 158.828C212.914 158.542 212.797 158.169 212.797 157.71C212.797 157.346 212.906 157.012 213.122 156.709C213.339 156.405 213.647 156.167 214.045 155.994C214.444 155.812 214.899 155.721 215.41 155.721C216.199 155.721 216.836 155.92 217.321 156.319C217.807 156.717 218.067 157.263 218.101 157.957H216.918C216.892 157.584 216.741 157.285 216.463 157.06C216.195 156.834 215.831 156.722 215.371 156.722C214.947 156.722 214.609 156.813 214.357 156.995C214.106 157.177 213.98 157.415 213.98 157.71C213.98 157.944 214.054 158.139 214.201 158.295C214.357 158.442 214.548 158.563 214.773 158.659C215.007 158.745 215.328 158.845 215.735 158.958C216.247 159.096 216.663 159.235 216.983 159.374C217.304 159.504 217.577 159.703 217.802 159.972C218.036 160.24 218.158 160.591 218.166 161.025C218.166 161.415 218.058 161.766 217.841 162.078C217.625 162.39 217.317 162.637 216.918 162.819C216.528 162.992 216.078 163.079 215.566 163.079ZM221.279 156.813V161.012C221.279 161.358 221.353 161.605 221.5 161.753C221.648 161.891 221.903 161.961 222.267 161.961H223.138V162.962H222.072C221.414 162.962 220.92 162.81 220.59 162.507C220.261 162.203 220.096 161.705 220.096 161.012V156.813H219.173V155.838H220.096V154.044H221.279V155.838H223.138V156.813H221.279ZM241.203 155.838L238.98 162.962H237.758L236.042 157.307L234.326 162.962H233.104L230.868 155.838H232.077L233.715 161.818L235.483 155.838H236.692L238.421 161.831L240.033 155.838H241.203ZM242.988 154.681C242.763 154.681 242.572 154.603 242.416 154.447C242.26 154.291 242.182 154.1 242.182 153.875C242.182 153.649 242.26 153.459 242.416 153.303C242.572 153.147 242.763 153.069 242.988 153.069C243.205 153.069 243.387 153.147 243.534 153.303C243.69 153.459 243.768 153.649 243.768 153.875C243.768 154.1 243.69 154.291 243.534 154.447C243.387 154.603 243.205 154.681 242.988 154.681ZM243.56 155.838V162.962H242.377V155.838H243.56ZM246.76 153.342V162.962H245.577V153.342H246.76ZM249.959 153.342V162.962H248.776V153.342H249.959ZM260.3 157.164C260.542 156.739 260.898 156.392 261.366 156.124C261.834 155.855 262.367 155.721 262.965 155.721C263.606 155.721 264.182 155.872 264.694 156.176C265.205 156.479 265.608 156.908 265.903 157.463C266.197 158.009 266.345 158.646 266.345 159.374C266.345 160.093 266.197 160.734 265.903 161.298C265.608 161.861 265.201 162.299 264.681 162.611C264.169 162.923 263.597 163.079 262.965 163.079C262.349 163.079 261.808 162.944 261.34 162.676C260.88 162.407 260.534 162.065 260.3 161.649V162.962H259.117V153.342H260.3V157.164ZM265.136 159.374C265.136 158.836 265.027 158.368 264.811 157.97C264.594 157.571 264.299 157.268 263.927 157.06C263.563 156.852 263.16 156.748 262.718 156.748C262.284 156.748 261.881 156.856 261.509 157.073C261.145 157.281 260.85 157.588 260.625 157.996C260.408 158.394 260.3 158.858 260.3 159.387C260.3 159.924 260.408 160.396 260.625 160.804C260.85 161.202 261.145 161.51 261.509 161.727C261.881 161.935 262.284 162.039 262.718 162.039C263.16 162.039 263.563 161.935 263.927 161.727C264.299 161.51 264.594 161.202 264.811 160.804C265.027 160.396 265.136 159.92 265.136 159.374ZM274.402 159.127C274.402 159.352 274.389 159.59 274.363 159.842H268.669C268.712 160.544 268.951 161.094 269.384 161.493C269.826 161.883 270.359 162.078 270.983 162.078C271.494 162.078 271.919 161.961 272.257 161.727C272.604 161.484 272.846 161.163 272.985 160.765H274.259C274.068 161.449 273.687 162.008 273.115 162.442C272.543 162.866 271.832 163.079 270.983 163.079C270.307 163.079 269.7 162.927 269.163 162.624C268.634 162.32 268.218 161.891 267.915 161.337C267.612 160.773 267.46 160.123 267.46 159.387C267.46 158.65 267.607 158.004 267.902 157.45C268.197 156.895 268.608 156.47 269.137 156.176C269.674 155.872 270.29 155.721 270.983 155.721C271.659 155.721 272.257 155.868 272.777 156.163C273.297 156.457 273.696 156.865 273.973 157.385C274.259 157.896 274.402 158.477 274.402 159.127ZM273.18 158.88C273.18 158.429 273.08 158.043 272.881 157.723C272.682 157.393 272.409 157.146 272.062 156.982C271.724 156.808 271.347 156.722 270.931 156.722C270.333 156.722 269.822 156.912 269.397 157.294C268.981 157.675 268.743 158.204 268.682 158.88H273.18ZM39.4854 183.079C38.9394 183.079 38.4497 182.988 38.0164 182.806C37.5831 182.615 37.2407 182.355 36.9894 182.026C36.7381 181.688 36.5994 181.302 36.5734 180.869H37.7954C37.8301 181.224 37.9947 181.514 38.2894 181.74C38.5927 181.965 38.9871 182.078 39.4724 182.078C39.9231 182.078 40.2784 181.978 40.5384 181.779C40.7984 181.579 40.9284 181.328 40.9284 181.025C40.9284 180.713 40.7897 180.483 40.5124 180.336C40.2351 180.18 39.8061 180.028 39.2254 179.881C38.6967 179.742 38.2634 179.603 37.9254 179.465C37.5961 179.317 37.3101 179.105 37.0674 178.828C36.8334 178.542 36.7164 178.169 36.7164 177.71C36.7164 177.346 36.8247 177.012 37.0414 176.709C37.2581 176.405 37.5657 176.167 37.9644 175.994C38.3631 175.812 38.8181 175.721 39.3294 175.721C40.1181 175.721 40.7551 175.92 41.2404 176.319C41.7257 176.717 41.9857 177.263 42.0204 177.957H40.8374C40.8114 177.584 40.6597 177.285 40.3824 177.06C40.1137 176.834 39.7497 176.722 39.2904 176.722C38.8657 176.722 38.5277 176.813 38.2764 176.995C38.0251 177.177 37.8994 177.415 37.8994 177.71C37.8994 177.944 37.9731 178.139 38.1204 178.295C38.2764 178.442 38.4671 178.563 38.6924 178.659C38.9264 178.745 39.2471 178.845 39.6544 178.958C40.1657 179.096 40.5817 179.235 40.9024 179.374C41.2231 179.504 41.4961 179.703 41.7214 179.972C41.9554 180.24 42.0767 180.591 42.0854 181.025C42.0854 181.415 41.9771 181.766 41.7604 182.078C41.5437 182.39 41.2361 182.637 40.8374 182.819C40.4474 182.992 39.9967 183.079 39.4854 183.079ZM50.0734 175.838V182.962H48.8904V181.909C48.6651 182.273 48.3487 182.559 47.9414 182.767C47.5427 182.966 47.1007 183.066 46.6154 183.066C46.0607 183.066 45.5624 182.953 45.1204 182.728C44.6784 182.494 44.3274 182.147 44.0674 181.688C43.8161 181.228 43.6904 180.669 43.6904 180.011V175.838H44.8604V179.855C44.8604 180.557 45.0381 181.098 45.3934 181.48C45.7487 181.852 46.2341 182.039 46.8494 182.039C47.4821 182.039 47.9804 181.844 48.3444 181.454C48.7084 181.064 48.8904 180.496 48.8904 179.751V175.838H50.0734ZM51.6288 179.387C51.6288 178.65 51.7762 178.009 52.0708 177.463C52.3655 176.908 52.7728 176.479 53.2928 176.176C53.8215 175.872 54.4238 175.721 55.0998 175.721C55.9752 175.721 56.6945 175.933 57.2578 176.358C57.8298 176.782 58.2068 177.372 58.3888 178.126H57.1148C56.9935 177.692 56.7552 177.35 56.3998 177.099C56.0532 176.847 55.6198 176.722 55.0998 176.722C54.4238 176.722 53.8778 176.956 53.4618 177.424C53.0458 177.883 52.8378 178.537 52.8378 179.387C52.8378 180.245 53.0458 180.908 53.4618 181.376C53.8778 181.844 54.4238 182.078 55.0998 182.078C55.6198 182.078 56.0532 181.956 56.3998 181.714C56.7465 181.471 56.9848 181.124 57.1148 180.674H58.3888C58.1982 181.402 57.8168 181.987 57.2448 182.429C56.6728 182.862 55.9578 183.079 55.0998 183.079C54.4238 183.079 53.8215 182.927 53.2928 182.624C52.7728 182.32 52.3655 181.891 52.0708 181.337C51.7762 180.782 51.6288 180.132 51.6288 179.387ZM63.5033 175.708C64.0406 175.708 64.526 175.825 64.9593 176.059C65.3926 176.284 65.7306 176.626 65.9733 177.086C66.2246 177.545 66.3503 178.104 66.3503 178.763V182.962H65.1803V178.932C65.1803 178.221 65.0026 177.679 64.6473 177.307C64.292 176.925 63.8066 176.735 63.1913 176.735C62.5673 176.735 62.069 176.93 61.6963 177.32C61.3323 177.71 61.1503 178.277 61.1503 179.023V182.962H59.9673V173.342H61.1503V176.852C61.3843 176.488 61.705 176.206 62.1123 176.007C62.5283 175.807 62.992 175.708 63.5033 175.708ZM74.351 179.374C74.351 178.646 74.4983 178.009 74.793 177.463C75.0877 176.908 75.4907 176.479 76.002 176.176C76.522 175.872 77.0983 175.721 77.731 175.721C78.355 175.721 78.8967 175.855 79.356 176.124C79.8153 176.392 80.1577 176.73 80.383 177.138V175.838H81.579V182.962H80.383V181.636C80.149 182.052 79.798 182.398 79.33 182.676C78.8707 182.944 78.3333 183.079 77.718 183.079C77.0853 183.079 76.5133 182.923 76.002 182.611C75.4907 182.299 75.0877 181.861 74.793 181.298C74.4983 180.734 74.351 180.093 74.351 179.374ZM80.383 179.387C80.383 178.849 80.2747 178.381 80.058 177.983C79.8413 177.584 79.5467 177.281 79.174 177.073C78.81 176.856 78.407 176.748 77.965 176.748C77.523 176.748 77.12 176.852 76.756 177.06C76.392 177.268 76.1017 177.571 75.885 177.97C75.6683 178.368 75.56 178.836 75.56 179.374C75.56 179.92 75.6683 180.396 75.885 180.804C76.1017 181.202 76.392 181.51 76.756 181.727C77.12 181.935 77.523 182.039 77.965 182.039C78.407 182.039 78.81 181.935 79.174 181.727C79.5467 181.51 79.8413 181.202 80.058 180.804C80.2747 180.396 80.383 179.924 80.383 179.387ZM87.0491 175.708C87.9158 175.708 88.6178 175.972 89.1551 176.501C89.6925 177.021 89.9611 177.775 89.9611 178.763V182.962H88.7911V178.932C88.7911 178.221 88.6135 177.679 88.2581 177.307C87.9028 176.925 87.4175 176.735 86.8021 176.735C86.1781 176.735 85.6798 176.93 85.3071 177.32C84.9431 177.71 84.7611 178.277 84.7611 179.023V182.962H83.5781V175.838H84.7611V176.852C84.9951 176.488 85.3115 176.206 85.7101 176.007C86.1175 175.807 86.5638 175.708 87.0491 175.708ZM97.9618 179.374C97.9618 178.646 98.1092 178.009 98.4038 177.463C98.6985 176.908 99.1015 176.479 99.6128 176.176C100.133 175.872 100.709 175.721 101.342 175.721C101.966 175.721 102.507 175.855 102.967 176.124C103.426 176.392 103.768 176.73 103.994 177.138V175.838H105.19V182.962H103.994V181.636C103.76 182.052 103.409 182.398 102.941 182.676C102.481 182.944 101.944 183.079 101.329 183.079C100.696 183.079 100.124 182.923 99.6128 182.611C99.1015 182.299 98.6985 181.861 98.4038 181.298C98.1092 180.734 97.9618 180.093 97.9618 179.374ZM103.994 179.387C103.994 178.849 103.885 178.381 103.669 177.983C103.452 177.584 103.157 177.281 102.785 177.073C102.421 176.856 102.018 176.748 101.576 176.748C101.134 176.748 100.731 176.852 100.367 177.06C100.003 177.268 99.7125 177.571 99.4958 177.97C99.2792 178.368 99.1708 178.836 99.1708 179.374C99.1708 179.92 99.2792 180.396 99.4958 180.804C99.7125 181.202 100.003 181.51 100.367 181.727C100.731 181.935 101.134 182.039 101.576 182.039C102.018 182.039 102.421 181.935 102.785 181.727C103.157 181.51 103.452 181.202 103.669 180.804C103.885 180.396 103.994 179.924 103.994 179.387ZM106.747 179.374C106.747 178.646 106.894 178.009 107.189 177.463C107.484 176.908 107.887 176.479 108.398 176.176C108.918 175.872 109.499 175.721 110.14 175.721C110.695 175.721 111.21 175.851 111.687 176.111C112.164 176.362 112.528 176.696 112.779 177.112V173.342H113.975V182.962H112.779V181.623C112.545 182.047 112.198 182.398 111.739 182.676C111.28 182.944 110.742 183.079 110.127 183.079C109.494 183.079 108.918 182.923 108.398 182.611C107.887 182.299 107.484 181.861 107.189 181.298C106.894 180.734 106.747 180.093 106.747 179.374ZM112.779 179.387C112.779 178.849 112.671 178.381 112.454 177.983C112.237 177.584 111.943 177.281 111.57 177.073C111.206 176.856 110.803 176.748 110.361 176.748C109.919 176.748 109.516 176.852 109.152 177.06C108.788 177.268 108.498 177.571 108.281 177.97C108.064 178.368 107.956 178.836 107.956 179.374C107.956 179.92 108.064 180.396 108.281 180.804C108.498 181.202 108.788 181.51 109.152 181.727C109.516 181.935 109.919 182.039 110.361 182.039C110.803 182.039 111.206 181.935 111.57 181.727C111.943 181.51 112.237 181.202 112.454 180.804C112.671 180.396 112.779 179.924 112.779 179.387ZM118.626 181.87L120.836 175.838H122.097L119.302 182.962H117.924L115.129 175.838H116.403L118.626 181.87ZM122.819 179.374C122.819 178.646 122.967 178.009 123.261 177.463C123.556 176.908 123.959 176.479 124.47 176.176C124.99 175.872 125.567 175.721 126.199 175.721C126.823 175.721 127.365 175.855 127.824 176.124C128.284 176.392 128.626 176.73 128.851 177.138V175.838H130.047V182.962H128.851V181.636C128.617 182.052 128.266 182.398 127.798 182.676C127.339 182.944 126.802 183.079 126.186 183.079C125.554 183.079 124.982 182.923 124.47 182.611C123.959 182.299 123.556 181.861 123.261 181.298C122.967 180.734 122.819 180.093 122.819 179.374ZM128.851 179.387C128.851 178.849 128.743 178.381 128.526 177.983C128.31 177.584 128.015 177.281 127.642 177.073C127.278 176.856 126.875 176.748 126.433 176.748C125.991 176.748 125.588 176.852 125.224 177.06C124.86 177.268 124.57 177.571 124.353 177.97C124.137 178.368 124.028 178.836 124.028 179.374C124.028 179.92 124.137 180.396 124.353 180.804C124.57 181.202 124.86 181.51 125.224 181.727C125.588 181.935 125.991 182.039 126.433 182.039C126.875 182.039 127.278 181.935 127.642 181.727C128.015 181.51 128.31 181.202 128.526 180.804C128.743 180.396 128.851 179.924 128.851 179.387ZM135.517 175.708C136.384 175.708 137.086 175.972 137.623 176.501C138.161 177.021 138.429 177.775 138.429 178.763V182.962H137.259V178.932C137.259 178.221 137.082 177.679 136.726 177.307C136.371 176.925 135.886 176.735 135.27 176.735C134.646 176.735 134.148 176.93 133.775 177.32C133.411 177.71 133.229 178.277 133.229 179.023V182.962H132.046V175.838H133.229V176.852C133.463 176.488 133.78 176.206 134.178 176.007C134.586 175.807 135.032 175.708 135.517 175.708ZM141.805 176.813V181.012C141.805 181.358 141.879 181.605 142.026 181.753C142.173 181.891 142.429 181.961 142.793 181.961H143.664V182.962H142.598C141.939 182.962 141.445 182.81 141.116 182.507C140.787 182.203 140.622 181.705 140.622 181.012V176.813H139.699V175.838H140.622V174.044H141.805V175.838H143.664V176.813H141.805ZM144.655 179.374C144.655 178.646 144.803 178.009 145.097 177.463C145.392 176.908 145.795 176.479 146.306 176.176C146.826 175.872 147.403 175.721 148.035 175.721C148.659 175.721 149.201 175.855 149.66 176.124C150.12 176.392 150.462 176.73 150.687 177.138V175.838H151.883V182.962H150.687V181.636C150.453 182.052 150.102 182.398 149.634 182.676C149.175 182.944 148.638 183.079 148.022 183.079C147.39 183.079 146.818 182.923 146.306 182.611C145.795 182.299 145.392 181.861 145.097 181.298C144.803 180.734 144.655 180.093 144.655 179.374ZM150.687 179.387C150.687 178.849 150.579 178.381 150.362 177.983C150.146 177.584 149.851 177.281 149.478 177.073C149.114 176.856 148.711 176.748 148.269 176.748C147.827 176.748 147.424 176.852 147.06 177.06C146.696 177.268 146.406 177.571 146.189 177.97C145.973 178.368 145.864 178.836 145.864 179.374C145.864 179.92 145.973 180.396 146.189 180.804C146.406 181.202 146.696 181.51 147.06 181.727C147.424 181.935 147.827 182.039 148.269 182.039C148.711 182.039 149.114 181.935 149.478 181.727C149.851 181.51 150.146 181.202 150.362 180.804C150.579 180.396 150.687 179.924 150.687 179.387ZM156.82 175.721C157.436 175.721 157.973 175.855 158.432 176.124C158.9 176.392 159.247 176.73 159.472 177.138V175.838H160.668V183.118C160.668 183.768 160.53 184.344 160.252 184.847C159.975 185.358 159.576 185.757 159.056 186.043C158.545 186.329 157.947 186.472 157.262 186.472C156.326 186.472 155.546 186.251 154.922 185.809C154.298 185.367 153.93 184.764 153.817 184.002H154.987C155.117 184.435 155.386 184.782 155.793 185.042C156.201 185.31 156.69 185.445 157.262 185.445C157.912 185.445 158.441 185.241 158.848 184.834C159.264 184.426 159.472 183.854 159.472 183.118V181.623C159.238 182.039 158.892 182.385 158.432 182.663C157.973 182.94 157.436 183.079 156.82 183.079C156.188 183.079 155.611 182.923 155.091 182.611C154.58 182.299 154.177 181.861 153.882 181.298C153.588 180.734 153.44 180.093 153.44 179.374C153.44 178.646 153.588 178.009 153.882 177.463C154.177 176.908 154.58 176.479 155.091 176.176C155.611 175.872 156.188 175.721 156.82 175.721ZM159.472 179.387C159.472 178.849 159.364 178.381 159.147 177.983C158.931 177.584 158.636 177.281 158.263 177.073C157.899 176.856 157.496 176.748 157.054 176.748C156.612 176.748 156.209 176.852 155.845 177.06C155.481 177.268 155.191 177.571 154.974 177.97C154.758 178.368 154.649 178.836 154.649 179.374C154.649 179.92 154.758 180.396 154.974 180.804C155.191 181.202 155.481 181.51 155.845 181.727C156.209 181.935 156.612 182.039 157.054 182.039C157.496 182.039 157.899 181.935 158.263 181.727C158.636 181.51 158.931 181.202 159.147 180.804C159.364 180.396 159.472 179.924 159.472 179.387ZM169.168 179.127C169.168 179.352 169.155 179.59 169.129 179.842H163.435C163.478 180.544 163.716 181.094 164.15 181.493C164.592 181.883 165.125 182.078 165.749 182.078C166.26 182.078 166.685 181.961 167.023 181.727C167.369 181.484 167.612 181.163 167.751 180.765H169.025C168.834 181.449 168.453 182.008 167.881 182.442C167.309 182.866 166.598 183.079 165.749 183.079C165.073 183.079 164.466 182.927 163.929 182.624C163.4 182.32 162.984 181.891 162.681 181.337C162.377 180.773 162.226 180.123 162.226 179.387C162.226 178.65 162.373 178.004 162.668 177.45C162.962 176.895 163.374 176.47 163.903 176.176C164.44 175.872 165.055 175.721 165.749 175.721C166.425 175.721 167.023 175.868 167.543 176.163C168.063 176.457 168.461 176.865 168.739 177.385C169.025 177.896 169.168 178.477 169.168 179.127ZM167.946 178.88C167.946 178.429 167.846 178.043 167.647 177.723C167.447 177.393 167.174 177.146 166.828 176.982C166.49 176.808 166.113 176.722 165.697 176.722C165.099 176.722 164.587 176.912 164.163 177.294C163.747 177.675 163.508 178.204 163.448 178.88H167.946ZM180.138 176.813H178.643V182.962H177.46V176.813H176.537V175.838H177.46V175.331C177.46 174.533 177.664 173.953 178.071 173.589C178.487 173.216 179.15 173.03 180.06 173.03V174.018C179.54 174.018 179.172 174.122 178.955 174.33C178.747 174.529 178.643 174.863 178.643 175.331V175.838H180.138V176.813ZM184.625 183.079C183.957 183.079 183.351 182.927 182.805 182.624C182.267 182.32 181.843 181.891 181.531 181.337C181.227 180.773 181.076 180.123 181.076 179.387C181.076 178.659 181.232 178.017 181.544 177.463C181.864 176.899 182.298 176.47 182.844 176.176C183.39 175.872 184.001 175.721 184.677 175.721C185.353 175.721 185.964 175.872 186.51 176.176C187.056 176.47 187.485 176.895 187.797 177.45C188.117 178.004 188.278 178.65 188.278 179.387C188.278 180.123 188.113 180.773 187.784 181.337C187.463 181.891 187.025 182.32 186.471 182.624C185.916 182.927 185.301 183.079 184.625 183.079ZM184.625 182.039C185.049 182.039 185.448 181.939 185.821 181.74C186.193 181.54 186.492 181.241 186.718 180.843C186.952 180.444 187.069 179.959 187.069 179.387C187.069 178.815 186.956 178.329 186.731 177.931C186.505 177.532 186.211 177.237 185.847 177.047C185.483 176.847 185.088 176.748 184.664 176.748C184.23 176.748 183.832 176.847 183.468 177.047C183.112 177.237 182.826 177.532 182.61 177.931C182.393 178.329 182.285 178.815 182.285 179.387C182.285 179.967 182.389 180.457 182.597 180.856C182.813 181.254 183.099 181.553 183.455 181.753C183.81 181.943 184.2 182.039 184.625 182.039ZM191.016 176.995C191.224 176.587 191.519 176.271 191.9 176.046C192.29 175.82 192.762 175.708 193.317 175.708V176.93H193.005C191.679 176.93 191.016 177.649 191.016 179.088V182.962H189.833V175.838H191.016V176.995ZM207.329 175.838L203.039 186.316H201.817L203.221 182.884L200.348 175.838H201.661L203.897 181.61L206.107 175.838H207.329ZM211.625 183.079C210.958 183.079 210.351 182.927 209.805 182.624C209.268 182.32 208.843 181.891 208.531 181.337C208.228 180.773 208.076 180.123 208.076 179.387C208.076 178.659 208.232 178.017 208.544 177.463C208.865 176.899 209.298 176.47 209.844 176.176C210.39 175.872 211.001 175.721 211.677 175.721C212.353 175.721 212.964 175.872 213.51 176.176C214.056 176.47 214.485 176.895 214.797 177.45C215.118 178.004 215.278 178.65 215.278 179.387C215.278 180.123 215.113 180.773 214.784 181.337C214.463 181.891 214.026 182.32 213.471 182.624C212.916 182.927 212.301 183.079 211.625 183.079ZM211.625 182.039C212.05 182.039 212.448 181.939 212.821 181.74C213.194 181.54 213.493 181.241 213.718 180.843C213.952 180.444 214.069 179.959 214.069 179.387C214.069 178.815 213.956 178.329 213.731 177.931C213.506 177.532 213.211 177.237 212.847 177.047C212.483 176.847 212.089 176.748 211.664 176.748C211.231 176.748 210.832 176.847 210.468 177.047C210.113 177.237 209.827 177.532 209.61 177.931C209.393 178.329 209.285 178.815 209.285 179.387C209.285 179.967 209.389 180.457 209.597 180.856C209.814 181.254 210.1 181.553 210.455 181.753C210.81 181.943 211.2 182.039 211.625 182.039ZM223.152 175.838V182.962H221.969V181.909C221.743 182.273 221.427 182.559 221.02 182.767C220.621 182.966 220.179 183.066 219.694 183.066C219.139 183.066 218.641 182.953 218.199 182.728C217.757 182.494 217.406 182.147 217.146 181.688C216.894 181.228 216.769 180.669 216.769 180.011V175.838H217.939V179.855C217.939 180.557 218.116 181.098 218.472 181.48C218.827 181.852 219.312 182.039 219.928 182.039C220.56 182.039 221.059 181.844 221.423 181.454C221.787 181.064 221.969 180.496 221.969 179.751V175.838H223.152ZM233.102 176.813V181.012C233.102 181.358 233.176 181.605 233.323 181.753C233.471 181.891 233.726 181.961 234.09 181.961H234.961V182.962H233.895C233.237 182.962 232.743 182.81 232.413 182.507C232.084 182.203 231.919 181.705 231.919 181.012V176.813H230.996V175.838H231.919V174.044H233.102V175.838H234.961V176.813H233.102ZM239.502 183.079C238.834 183.079 238.228 182.927 237.682 182.624C237.144 182.32 236.72 181.891 236.408 181.337C236.104 180.773 235.953 180.123 235.953 179.387C235.953 178.659 236.109 178.017 236.421 177.463C236.741 176.899 237.175 176.47 237.721 176.176C238.267 175.872 238.878 175.721 239.554 175.721C240.23 175.721 240.841 175.872 241.387 176.176C241.933 176.47 242.362 176.895 242.674 177.45C242.994 178.004 243.155 178.65 243.155 179.387C243.155 180.123 242.99 180.773 242.661 181.337C242.34 181.891 241.902 182.32 241.348 182.624C240.793 182.927 240.178 183.079 239.502 183.079ZM239.502 182.039C239.926 182.039 240.325 181.939 240.698 181.74C241.07 181.54 241.369 181.241 241.595 180.843C241.829 180.444 241.946 179.959 241.946 179.387C241.946 178.815 241.833 178.329 241.608 177.931C241.382 177.532 241.088 177.237 240.724 177.047C240.36 176.847 239.965 176.748 239.541 176.748C239.107 176.748 238.709 176.847 238.345 177.047C237.989 177.237 237.703 177.532 237.487 177.931C237.27 178.329 237.162 178.815 237.162 179.387C237.162 179.967 237.266 180.457 237.474 180.856C237.69 181.254 237.976 181.553 238.332 181.753C238.687 181.943 239.077 182.039 239.502 182.039ZM250.778 179.374C250.778 178.646 250.926 178.009 251.22 177.463C251.515 176.908 251.918 176.479 252.429 176.176C252.949 175.872 253.526 175.721 254.158 175.721C254.782 175.721 255.324 175.855 255.783 176.124C256.243 176.392 256.585 176.73 256.81 177.138V175.838H258.006V182.962H256.81V181.636C256.576 182.052 256.225 182.398 255.757 182.676C255.298 182.944 254.761 183.079 254.145 183.079C253.513 183.079 252.941 182.923 252.429 182.611C251.918 182.299 251.515 181.861 251.22 181.298C250.926 180.734 250.778 180.093 250.778 179.374ZM256.81 179.387C256.81 178.849 256.702 178.381 256.485 177.983C256.269 177.584 255.974 177.281 255.601 177.073C255.237 176.856 254.834 176.748 254.392 176.748C253.95 176.748 253.547 176.852 253.183 177.06C252.819 177.268 252.529 177.571 252.312 177.97C252.096 178.368 251.987 178.836 251.987 179.374C251.987 179.92 252.096 180.396 252.312 180.804C252.529 181.202 252.819 181.51 253.183 181.727C253.547 181.935 253.95 182.039 254.392 182.039C254.834 182.039 255.237 181.935 255.601 181.727C255.974 181.51 256.269 181.202 256.485 180.804C256.702 180.396 256.81 179.924 256.81 179.387ZM259.563 179.387C259.563 178.65 259.711 178.009 260.005 177.463C260.3 176.908 260.707 176.479 261.227 176.176C261.756 175.872 262.358 175.721 263.034 175.721C263.91 175.721 264.629 175.933 265.192 176.358C265.764 176.782 266.141 177.372 266.323 178.126H265.049C264.928 177.692 264.69 177.35 264.334 177.099C263.988 176.847 263.554 176.722 263.034 176.722C262.358 176.722 261.812 176.956 261.396 177.424C260.98 177.883 260.772 178.537 260.772 179.387C260.772 180.245 260.98 180.908 261.396 181.376C261.812 181.844 262.358 182.078 263.034 182.078C263.554 182.078 263.988 181.956 264.334 181.714C264.681 181.471 264.919 181.124 265.049 180.674H266.323C266.133 181.402 265.751 181.987 265.179 182.429C264.607 182.862 263.892 183.079 263.034 183.079C262.358 183.079 261.756 182.927 261.227 182.624C260.707 182.32 260.3 181.891 260.005 181.337C259.711 180.782 259.563 180.132 259.563 179.387ZM274.402 179.127C274.402 179.352 274.389 179.59 274.363 179.842H268.669C268.712 180.544 268.951 181.094 269.384 181.493C269.826 181.883 270.359 182.078 270.983 182.078C271.494 182.078 271.919 181.961 272.257 181.727C272.604 181.484 272.846 181.163 272.985 180.765H274.259C274.068 181.449 273.687 182.008 273.115 182.442C272.543 182.866 271.832 183.079 270.983 183.079C270.307 183.079 269.7 182.927 269.163 182.624C268.634 182.32 268.218 181.891 267.915 181.337C267.612 180.773 267.46 180.123 267.46 179.387C267.46 178.65 267.607 178.004 267.902 177.45C268.197 176.895 268.608 176.47 269.137 176.176C269.674 175.872 270.29 175.721 270.983 175.721C271.659 175.721 272.257 175.868 272.777 176.163C273.297 176.457 273.696 176.865 273.973 177.385C274.259 177.896 274.402 178.477 274.402 179.127ZM273.18 178.88C273.18 178.429 273.08 178.043 272.881 177.723C272.682 177.393 272.409 177.146 272.062 176.982C271.724 176.808 271.347 176.722 270.931 176.722C270.333 176.722 269.822 176.912 269.397 177.294C268.981 177.675 268.743 178.204 268.682 178.88H273.18ZM38.4064 196.813V201.012C38.4064 201.358 38.4801 201.605 38.6274 201.753C38.7747 201.891 39.0304 201.961 39.3944 201.961H40.2654V202.962H39.1994C38.5407 202.962 38.0467 202.81 37.7174 202.507C37.3881 202.203 37.2234 201.705 37.2234 201.012V196.813H36.3004V195.838H37.2234V194.044H38.4064V195.838H40.2654V196.813H38.4064ZM45.2348 195.708C45.7721 195.708 46.2574 195.825 46.6908 196.059C47.1241 196.284 47.4621 196.626 47.7048 197.086C47.9561 197.545 48.0818 198.104 48.0818 198.763V202.962H46.9118V198.932C46.9118 198.221 46.7341 197.679 46.3788 197.307C46.0234 196.925 45.5381 196.735 44.9228 196.735C44.2988 196.735 43.8004 196.93 43.4278 197.32C43.0638 197.71 42.8818 198.277 42.8818 199.023V202.962H41.6988V193.342H42.8818V196.852C43.1158 196.488 43.4364 196.206 43.8438 196.007C44.2598 195.807 44.7234 195.708 45.2348 195.708ZM56.5142 199.127C56.5142 199.352 56.5012 199.59 56.4752 199.842H50.7812C50.8245 200.544 51.0629 201.094 51.4962 201.493C51.9382 201.883 52.4712 202.078 53.0952 202.078C53.6065 202.078 54.0312 201.961 54.3692 201.727C54.7159 201.484 54.9585 201.163 55.0972 200.765H56.3712C56.1805 201.449 55.7992 202.008 55.2272 202.442C54.6552 202.866 53.9445 203.079 53.0952 203.079C52.4192 203.079 51.8125 202.927 51.2752 202.624C50.7465 202.32 50.3305 201.891 50.0272 201.337C49.7239 200.773 49.5722 200.123 49.5722 199.387C49.5722 198.65 49.7195 198.004 50.0142 197.45C50.3089 196.895 50.7205 196.47 51.2492 196.176C51.7865 195.872 52.4019 195.721 53.0952 195.721C53.7712 195.721 54.3692 195.868 54.8892 196.163C55.4092 196.457 55.8079 196.865 56.0852 197.385C56.3712 197.896 56.5142 198.477 56.5142 199.127ZM55.2922 198.88C55.2922 198.429 55.1925 198.043 54.9932 197.723C54.7939 197.393 54.5209 197.146 54.1742 196.982C53.8362 196.808 53.4592 196.722 53.0432 196.722C52.4452 196.722 51.9339 196.912 51.5092 197.294C51.0932 197.675 50.8549 198.204 50.7942 198.88H55.2922ZM68.0415 199.127C68.0415 199.352 68.0285 199.59 68.0025 199.842H62.3085C62.3519 200.544 62.5902 201.094 63.0235 201.493C63.4655 201.883 63.9985 202.078 64.6225 202.078C65.1339 202.078 65.5585 201.961 65.8965 201.727C66.2432 201.484 66.4859 201.163 66.6245 200.765H67.8985C67.7079 201.449 67.3265 202.008 66.7545 202.442C66.1825 202.866 65.4719 203.079 64.6225 203.079C63.9465 203.079 63.3399 202.927 62.8025 202.624C62.2739 202.32 61.8579 201.891 61.5545 201.337C61.2512 200.773 61.0995 200.123 61.0995 199.387C61.0995 198.65 61.2469 198.004 61.5415 197.45C61.8362 196.895 62.2479 196.47 62.7765 196.176C63.3139 195.872 63.9292 195.721 64.6225 195.721C65.2985 195.721 65.8965 195.868 66.4165 196.163C66.9365 196.457 67.3352 196.865 67.6125 197.385C67.8985 197.896 68.0415 198.477 68.0415 199.127ZM66.8195 198.88C66.8195 198.429 66.7199 198.043 66.5205 197.723C66.3212 197.393 66.0482 197.146 65.7015 196.982C65.3635 196.808 64.9865 196.722 64.5705 196.722C63.9725 196.722 63.4612 196.912 63.0365 197.294C62.6205 197.675 62.3822 198.204 62.3215 198.88H66.8195ZM73.3211 202.962L71.6311 200.31L70.0061 202.962H68.7711L71.0721 199.426L68.7711 195.838H70.1101L71.8001 198.477L73.4121 195.838H74.6471L72.3591 199.361L74.6601 202.962H73.3211ZM75.3818 199.374C75.3818 198.646 75.5291 198.009 75.8238 197.463C76.1184 196.908 76.5214 196.479 77.0328 196.176C77.5528 195.872 78.1291 195.721 78.7618 195.721C79.3858 195.721 79.9274 195.855 80.3868 196.124C80.8461 196.392 81.1884 196.73 81.4138 197.138V195.838H82.6098V202.962H81.4138V201.636C81.1798 202.052 80.8288 202.398 80.3608 202.676C79.9014 202.944 79.3641 203.079 78.7488 203.079C78.1161 203.079 77.5441 202.923 77.0328 202.611C76.5214 202.299 76.1184 201.861 75.8238 201.298C75.5291 200.734 75.3818 200.093 75.3818 199.374ZM81.4138 199.387C81.4138 198.849 81.3054 198.381 81.0888 197.983C80.8721 197.584 80.5774 197.281 80.2048 197.073C79.8408 196.856 79.4378 196.748 78.9958 196.748C78.5538 196.748 78.1508 196.852 77.7868 197.06C77.4228 197.268 77.1324 197.571 76.9158 197.97C76.6991 198.368 76.5908 198.836 76.5908 199.374C76.5908 199.92 76.6991 200.396 76.9158 200.804C77.1324 201.202 77.4228 201.51 77.7868 201.727C78.1508 201.935 78.5538 202.039 78.9958 202.039C79.4378 202.039 79.8408 201.935 80.2048 201.727C80.5774 201.51 80.8721 201.202 81.0888 200.804C81.3054 200.396 81.4138 199.924 81.4138 199.387ZM93.1759 195.708C93.7306 195.708 94.2246 195.825 94.6579 196.059C95.0912 196.284 95.4336 196.626 95.6849 197.086C95.9362 197.545 96.0619 198.104 96.0619 198.763V202.962H94.8919V198.932C94.8919 198.221 94.7142 197.679 94.3589 197.307C94.0122 196.925 93.5399 196.735 92.9419 196.735C92.3266 196.735 91.8369 196.934 91.4729 197.333C91.1089 197.723 90.9269 198.29 90.9269 199.036V202.962H89.7569V198.932C89.7569 198.221 89.5792 197.679 89.2239 197.307C88.8772 196.925 88.4049 196.735 87.8069 196.735C87.1916 196.735 86.7019 196.934 86.3379 197.333C85.9739 197.723 85.7919 198.29 85.7919 199.036V202.962H84.6089V195.838H85.7919V196.865C86.0259 196.492 86.3379 196.206 86.7279 196.007C87.1266 195.807 87.5642 195.708 88.0409 195.708C88.6389 195.708 89.1676 195.842 89.6269 196.111C90.0862 196.379 90.4286 196.774 90.6539 197.294C90.8532 196.791 91.1826 196.401 91.6419 196.124C92.1012 195.846 92.6126 195.708 93.1759 195.708ZM103.99 203.079C103.444 203.079 102.955 202.988 102.521 202.806C102.088 202.615 101.746 202.355 101.494 202.026C101.243 201.688 101.104 201.302 101.078 200.869H102.3C102.335 201.224 102.5 201.514 102.794 201.74C103.098 201.965 103.492 202.078 103.977 202.078C104.428 202.078 104.783 201.978 105.043 201.779C105.303 201.579 105.433 201.328 105.433 201.025C105.433 200.713 105.295 200.483 105.017 200.336C104.74 200.18 104.311 200.028 103.73 199.881C103.202 199.742 102.768 199.603 102.43 199.465C102.101 199.317 101.815 199.105 101.572 198.828C101.338 198.542 101.221 198.169 101.221 197.71C101.221 197.346 101.33 197.012 101.546 196.709C101.763 196.405 102.071 196.167 102.469 195.994C102.868 195.812 103.323 195.721 103.834 195.721C104.623 195.721 105.26 195.92 105.745 196.319C106.231 196.717 106.491 197.263 106.525 197.957H105.342C105.316 197.584 105.165 197.285 104.887 197.06C104.619 196.834 104.255 196.722 103.795 196.722C103.371 196.722 103.033 196.813 102.781 196.995C102.53 197.177 102.404 197.415 102.404 197.71C102.404 197.944 102.478 198.139 102.625 198.295C102.781 198.442 102.972 198.563 103.197 198.659C103.431 198.745 103.752 198.845 104.159 198.958C104.671 199.096 105.087 199.235 105.407 199.374C105.728 199.504 106.001 199.703 106.226 199.972C106.46 200.24 106.582 200.591 106.59 201.025C106.59 201.415 106.482 201.766 106.265 202.078C106.049 202.39 105.741 202.637 105.342 202.819C104.952 202.992 104.502 203.079 103.99 203.079ZM114.578 195.838V202.962H113.395V201.909C113.17 202.273 112.854 202.559 112.446 202.767C112.048 202.966 111.606 203.066 111.12 203.066C110.566 203.066 110.067 202.953 109.625 202.728C109.183 202.494 108.832 202.147 108.572 201.688C108.321 201.228 108.195 200.669 108.195 200.011V195.838H109.365V199.855C109.365 200.557 109.543 201.098 109.898 201.48C110.254 201.852 110.739 202.039 111.354 202.039C111.987 202.039 112.485 201.844 112.849 201.454C113.213 201.064 113.395 200.496 113.395 199.751V195.838H114.578ZM116.134 199.387C116.134 198.65 116.281 198.009 116.576 197.463C116.87 196.908 117.278 196.479 117.798 196.176C118.326 195.872 118.929 195.721 119.605 195.721C120.48 195.721 121.199 195.933 121.763 196.358C122.335 196.782 122.712 197.372 122.894 198.126H121.62C121.498 197.692 121.26 197.35 120.905 197.099C120.558 196.847 120.125 196.722 119.605 196.722C118.929 196.722 118.383 196.956 117.967 197.424C117.551 197.883 117.343 198.537 117.343 199.387C117.343 200.245 117.551 200.908 117.967 201.376C118.383 201.844 118.929 202.078 119.605 202.078C120.125 202.078 120.558 201.956 120.905 201.714C121.251 201.471 121.49 201.124 121.62 200.674H122.894C122.703 201.402 122.322 201.987 121.75 202.429C121.178 202.862 120.463 203.079 119.605 203.079C118.929 203.079 118.326 202.927 117.798 202.624C117.278 202.32 116.87 201.891 116.576 201.337C116.281 200.782 116.134 200.132 116.134 199.387ZM124.03 199.387C124.03 198.65 124.178 198.009 124.472 197.463C124.767 196.908 125.174 196.479 125.694 196.176C126.223 195.872 126.825 195.721 127.501 195.721C128.377 195.721 129.096 195.933 129.659 196.358C130.231 196.782 130.608 197.372 130.79 198.126H129.516C129.395 197.692 129.157 197.35 128.801 197.099C128.455 196.847 128.021 196.722 127.501 196.722C126.825 196.722 126.279 196.956 125.863 197.424C125.447 197.883 125.239 198.537 125.239 199.387C125.239 200.245 125.447 200.908 125.863 201.376C126.279 201.844 126.825 202.078 127.501 202.078C128.021 202.078 128.455 201.956 128.801 201.714C129.148 201.471 129.386 201.124 129.516 200.674H130.79C130.6 201.402 130.218 201.987 129.646 202.429C129.074 202.862 128.359 203.079 127.501 203.079C126.825 203.079 126.223 202.927 125.694 202.624C125.174 202.32 124.767 201.891 124.472 201.337C124.178 200.782 124.03 200.132 124.03 199.387ZM138.869 199.127C138.869 199.352 138.856 199.59 138.83 199.842H133.136C133.179 200.544 133.417 201.094 133.851 201.493C134.293 201.883 134.826 202.078 135.45 202.078C135.961 202.078 136.386 201.961 136.724 201.727C137.07 201.484 137.313 201.163 137.452 200.765H138.726C138.535 201.449 138.154 202.008 137.582 202.442C137.01 202.866 136.299 203.079 135.45 203.079C134.774 203.079 134.167 202.927 133.63 202.624C133.101 202.32 132.685 201.891 132.382 201.337C132.078 200.773 131.927 200.123 131.927 199.387C131.927 198.65 132.074 198.004 132.369 197.45C132.663 196.895 133.075 196.47 133.604 196.176C134.141 195.872 134.756 195.721 135.45 195.721C136.126 195.721 136.724 195.868 137.244 196.163C137.764 196.457 138.162 196.865 138.44 197.385C138.726 197.896 138.869 198.477 138.869 199.127ZM137.647 198.88C137.647 198.429 137.547 198.043 137.348 197.723C137.148 197.393 136.875 197.146 136.529 196.982C136.191 196.808 135.814 196.722 135.398 196.722C134.8 196.722 134.288 196.912 133.864 197.294C133.448 197.675 133.209 198.204 133.149 198.88H137.647ZM142.952 203.079C142.406 203.079 141.917 202.988 141.483 202.806C141.05 202.615 140.708 202.355 140.456 202.026C140.205 201.688 140.066 201.302 140.04 200.869H141.262C141.297 201.224 141.462 201.514 141.756 201.74C142.06 201.965 142.454 202.078 142.939 202.078C143.39 202.078 143.745 201.978 144.005 201.779C144.265 201.579 144.395 201.328 144.395 201.025C144.395 200.713 144.257 200.483 143.979 200.336C143.702 200.18 143.273 200.028 142.692 199.881C142.164 199.742 141.73 199.603 141.392 199.465C141.063 199.317 140.777 199.105 140.534 198.828C140.3 198.542 140.183 198.169 140.183 197.71C140.183 197.346 140.292 197.012 140.508 196.709C140.725 196.405 141.033 196.167 141.431 195.994C141.83 195.812 142.285 195.721 142.796 195.721C143.585 195.721 144.222 195.92 144.707 196.319C145.193 196.717 145.453 197.263 145.487 197.957H144.304C144.278 197.584 144.127 197.285 143.849 197.06C143.581 196.834 143.217 196.722 142.757 196.722C142.333 196.722 141.995 196.813 141.743 196.995C141.492 197.177 141.366 197.415 141.366 197.71C141.366 197.944 141.44 198.139 141.587 198.295C141.743 198.442 141.934 198.563 142.159 198.659C142.393 198.745 142.714 198.845 143.121 198.958C143.633 199.096 144.049 199.235 144.369 199.374C144.69 199.504 144.963 199.703 145.188 199.972C145.422 200.24 145.544 200.591 145.552 201.025C145.552 201.415 145.444 201.766 145.227 202.078C145.011 202.39 144.703 202.637 144.304 202.819C143.914 202.992 143.464 203.079 142.952 203.079ZM149.744 203.079C149.198 203.079 148.709 202.988 148.275 202.806C147.842 202.615 147.5 202.355 147.248 202.026C146.997 201.688 146.858 201.302 146.832 200.869H148.054C148.089 201.224 148.254 201.514 148.548 201.74C148.852 201.965 149.246 202.078 149.731 202.078C150.182 202.078 150.537 201.978 150.797 201.779C151.057 201.579 151.187 201.328 151.187 201.025C151.187 200.713 151.049 200.483 150.771 200.336C150.494 200.18 150.065 200.028 149.484 199.881C148.956 199.742 148.522 199.603 148.184 199.465C147.855 199.317 147.569 199.105 147.326 198.828C147.092 198.542 146.975 198.169 146.975 197.71C146.975 197.346 147.084 197.012 147.3 196.709C147.517 196.405 147.825 196.167 148.223 195.994C148.622 195.812 149.077 195.721 149.588 195.721C150.377 195.721 151.014 195.92 151.499 196.319C151.985 196.717 152.245 197.263 152.279 197.957H151.096C151.07 197.584 150.919 197.285 150.641 197.06C150.373 196.834 150.009 196.722 149.549 196.722C149.125 196.722 148.787 196.813 148.535 196.995C148.284 197.177 148.158 197.415 148.158 197.71C148.158 197.944 148.232 198.139 148.379 198.295C148.535 198.442 148.726 198.563 148.951 198.659C149.185 198.745 149.506 198.845 149.913 198.958C150.425 199.096 150.841 199.235 151.161 199.374C151.482 199.504 151.755 199.703 151.98 199.972C152.214 200.24 152.336 200.591 152.344 201.025C152.344 201.415 152.236 201.766 152.019 202.078C151.803 202.39 151.495 202.637 151.096 202.819C150.706 202.992 150.256 203.079 149.744 203.079ZM156.913 196.813H155.418V202.962H154.235V196.813H153.312V195.838H154.235V195.331C154.235 194.533 154.439 193.953 154.846 193.589C155.262 193.216 155.925 193.03 156.835 193.03V194.018C156.315 194.018 155.947 194.122 155.73 194.33C155.522 194.529 155.418 194.863 155.418 195.331V195.838H156.913V196.813ZM164.611 195.838V202.962H163.428V201.909C163.202 202.273 162.886 202.559 162.479 202.767C162.08 202.966 161.638 203.066 161.153 203.066C160.598 203.066 160.1 202.953 159.658 202.728C159.216 202.494 158.865 202.147 158.605 201.688C158.353 201.228 158.228 200.669 158.228 200.011V195.838H159.398V199.855C159.398 200.557 159.575 201.098 159.931 201.48C160.286 201.852 160.771 202.039 161.387 202.039C162.019 202.039 162.518 201.844 162.882 201.454C163.246 201.064 163.428 200.496 163.428 199.751V195.838H164.611ZM167.791 193.342V202.962H166.608V193.342H167.791ZM170.99 193.342V202.962H169.807V193.342H170.99ZM179.142 195.838L174.852 206.316H173.63L175.034 202.884L172.161 195.838H173.474L175.71 201.61L177.92 195.838H179.142ZM180.709 203.04C180.483 203.04 180.293 202.962 180.137 202.806C179.981 202.65 179.903 202.459 179.903 202.234C179.903 202.008 179.981 201.818 180.137 201.662C180.293 201.506 180.483 201.428 180.709 201.428C180.925 201.428 181.107 201.506 181.255 201.662C181.411 201.818 181.489 202.008 181.489 202.234C181.489 202.459 181.411 202.65 181.255 202.806C181.107 202.962 180.925 203.04 180.709 203.04Z" fill="#505050"/>
<path d="M75.8092 105.173H71.9172L71.2732 107.035H69.2152L72.7292 97.2494H75.0112L78.5252 107.035H76.4532L75.8092 105.173ZM75.2772 103.605L73.8632 99.5174L72.4492 103.605H75.2772ZM79.3347 103.157C79.3347 102.355 79.498 101.655 79.8247 101.057C80.1513 100.451 80.604 99.9841 81.1827 99.6574C81.7613 99.3214 82.424 99.1534 83.1707 99.1534C84.132 99.1534 84.9253 99.3961 85.5507 99.8814C86.1853 100.357 86.61 101.029 86.8247 101.897H84.7107C84.5987 101.561 84.4073 101.3 84.1367 101.113C83.8753 100.917 83.5487 100.819 83.1567 100.819C82.5967 100.819 82.1533 101.025 81.8267 101.435C81.5 101.837 81.3367 102.411 81.3367 103.157C81.3367 103.895 81.5 104.469 81.8267 104.879C82.1533 105.281 82.5967 105.481 83.1567 105.481C83.95 105.481 84.468 105.127 84.7107 104.417H86.8247C86.61 105.257 86.1853 105.925 85.5507 106.419C84.916 106.914 84.1227 107.161 83.1707 107.161C82.424 107.161 81.7613 106.998 81.1827 106.671C80.604 106.335 80.1513 105.869 79.8247 105.271C79.498 104.665 79.3347 103.96 79.3347 103.157ZM90.5426 100.889V104.641C90.5426 104.903 90.6032 105.094 90.7246 105.215C90.8552 105.327 91.0699 105.383 91.3686 105.383H92.2786V107.035H91.0466C89.3946 107.035 88.5686 106.233 88.5686 104.627V100.889H87.6446V99.2794H88.5686V97.3614H90.5426V99.2794H92.2786V100.889H90.5426ZM101.01 99.2794V107.035H99.0363V106.055C98.7843 106.391 98.453 106.657 98.0423 106.853C97.641 107.04 97.2023 107.133 96.7263 107.133C96.1196 107.133 95.583 107.007 95.1163 106.755C94.6496 106.494 94.281 106.116 94.0103 105.621C93.749 105.117 93.6183 104.52 93.6183 103.829V99.2794H95.5783V103.549C95.5783 104.165 95.7323 104.641 96.0403 104.977C96.3483 105.304 96.7683 105.467 97.3003 105.467C97.8416 105.467 98.2663 105.304 98.5743 104.977C98.8823 104.641 99.0363 104.165 99.0363 103.549V99.2794H101.01ZM102.44 103.129C102.44 102.345 102.594 101.65 102.902 101.043C103.219 100.437 103.644 99.9701 104.176 99.6434C104.717 99.3167 105.319 99.1534 105.982 99.1534C106.561 99.1534 107.065 99.2701 107.494 99.5034C107.933 99.7367 108.283 100.031 108.544 100.385V99.2794H110.518V107.035H108.544V105.901C108.292 106.265 107.942 106.569 107.494 106.811C107.055 107.045 106.547 107.161 105.968 107.161C105.315 107.161 104.717 106.993 104.176 106.657C103.644 106.321 103.219 105.85 102.902 105.243C102.594 104.627 102.44 103.923 102.44 103.129ZM108.544 103.157C108.544 102.681 108.451 102.275 108.264 101.939C108.077 101.594 107.825 101.333 107.508 101.155C107.191 100.969 106.85 100.875 106.486 100.875C106.122 100.875 105.786 100.964 105.478 101.141C105.17 101.319 104.918 101.58 104.722 101.925C104.535 102.261 104.442 102.663 104.442 103.129C104.442 103.596 104.535 104.007 104.722 104.361C104.918 104.707 105.17 104.973 105.478 105.159C105.795 105.346 106.131 105.439 106.486 105.439C106.85 105.439 107.191 105.351 107.508 105.173C107.825 104.987 108.077 104.725 108.264 104.389C108.451 104.044 108.544 103.633 108.544 103.157ZM114.392 96.6754V107.035H112.432V96.6754H114.392ZM126.875 102.989C126.875 103.269 126.856 103.521 126.819 103.745H121.149C121.196 104.305 121.392 104.744 121.737 105.061C122.082 105.379 122.507 105.537 123.011 105.537C123.739 105.537 124.257 105.225 124.565 104.599H126.679C126.455 105.346 126.026 105.962 125.391 106.447C124.756 106.923 123.977 107.161 123.053 107.161C122.306 107.161 121.634 106.998 121.037 106.671C120.449 106.335 119.987 105.864 119.651 105.257C119.324 104.651 119.161 103.951 119.161 103.157C119.161 102.355 119.324 101.65 119.651 101.043C119.978 100.437 120.435 99.9701 121.023 99.6434C121.611 99.3167 122.288 99.1534 123.053 99.1534C123.79 99.1534 124.448 99.3121 125.027 99.6294C125.615 99.9467 126.068 100.399 126.385 100.987C126.712 101.566 126.875 102.233 126.875 102.989ZM124.845 102.429C124.836 101.925 124.654 101.524 124.299 101.225C123.944 100.917 123.51 100.763 122.997 100.763C122.512 100.763 122.101 100.913 121.765 101.211C121.438 101.501 121.238 101.907 121.163 102.429H124.845ZM132.589 107.035L130.993 104.627L129.579 107.035H127.479L130.013 103.143L127.451 99.2794H129.663L131.245 101.673L132.673 99.2794H134.773L132.225 103.143L134.801 107.035H132.589ZM135.362 103.129C135.362 102.345 135.516 101.65 135.824 101.043C136.141 100.437 136.566 99.9701 137.098 99.6434C137.639 99.3167 138.241 99.1534 138.904 99.1534C139.483 99.1534 139.987 99.2701 140.416 99.5034C140.855 99.7367 141.205 100.031 141.466 100.385V99.2794H143.44V107.035H141.466V105.901C141.214 106.265 140.864 106.569 140.416 106.811C139.977 107.045 139.469 107.161 138.89 107.161C138.237 107.161 137.639 106.993 137.098 106.657C136.566 106.321 136.141 105.85 135.824 105.243C135.516 104.627 135.362 103.923 135.362 103.129ZM141.466 103.157C141.466 102.681 141.373 102.275 141.186 101.939C140.999 101.594 140.747 101.333 140.43 101.155C140.113 100.969 139.772 100.875 139.408 100.875C139.044 100.875 138.708 100.964 138.4 101.141C138.092 101.319 137.84 101.58 137.644 101.925C137.457 102.261 137.364 102.663 137.364 103.129C137.364 103.596 137.457 104.007 137.644 104.361C137.84 104.707 138.092 104.973 138.4 105.159C138.717 105.346 139.053 105.439 139.408 105.439C139.772 105.439 140.113 105.351 140.43 105.173C140.747 104.987 140.999 104.725 141.186 104.389C141.373 104.044 141.466 103.633 141.466 103.157ZM154.986 99.1674C155.938 99.1674 156.704 99.4614 157.282 100.049C157.87 100.628 158.164 101.44 158.164 102.485V107.035H156.204V102.751C156.204 102.145 156.05 101.683 155.742 101.365C155.434 101.039 155.014 100.875 154.482 100.875C153.95 100.875 153.526 101.039 153.208 101.365C152.9 101.683 152.746 102.145 152.746 102.751V107.035H150.786V102.751C150.786 102.145 150.632 101.683 150.324 101.365C150.016 101.039 149.596 100.875 149.064 100.875C148.523 100.875 148.094 101.039 147.776 101.365C147.468 101.683 147.314 102.145 147.314 102.751V107.035H145.354V99.2794H147.314V100.217C147.566 99.8907 147.888 99.6341 148.28 99.4474C148.682 99.2607 149.12 99.1674 149.596 99.1674C150.203 99.1674 150.744 99.2981 151.22 99.5594C151.696 99.8114 152.065 100.175 152.326 100.651C152.578 100.203 152.942 99.8441 153.418 99.5734C153.904 99.3027 154.426 99.1674 154.986 99.1674ZM166.328 107.161C165.693 107.161 165.124 107.049 164.62 106.825C164.116 106.592 163.715 106.279 163.416 105.887C163.127 105.495 162.968 105.061 162.94 104.585H164.914C164.951 104.884 165.096 105.131 165.348 105.327C165.609 105.523 165.931 105.621 166.314 105.621C166.687 105.621 166.977 105.547 167.182 105.397C167.397 105.248 167.504 105.057 167.504 104.823C167.504 104.571 167.373 104.385 167.112 104.263C166.86 104.133 166.454 103.993 165.894 103.843C165.315 103.703 164.839 103.559 164.466 103.409C164.102 103.26 163.785 103.031 163.514 102.723C163.253 102.415 163.122 102 163.122 101.477C163.122 101.048 163.243 100.656 163.486 100.301C163.738 99.9467 164.093 99.6667 164.55 99.4614C165.017 99.2561 165.563 99.1534 166.188 99.1534C167.112 99.1534 167.849 99.3867 168.4 99.8534C168.951 100.311 169.254 100.931 169.31 101.715H167.434C167.406 101.407 167.275 101.165 167.042 100.987C166.818 100.801 166.515 100.707 166.132 100.707C165.777 100.707 165.502 100.773 165.306 100.903C165.119 101.034 165.026 101.216 165.026 101.449C165.026 101.711 165.157 101.911 165.418 102.051C165.679 102.182 166.085 102.317 166.636 102.457C167.196 102.597 167.658 102.742 168.022 102.891C168.386 103.041 168.699 103.274 168.96 103.591C169.231 103.899 169.371 104.31 169.38 104.823C169.38 105.271 169.254 105.673 169.002 106.027C168.759 106.382 168.405 106.662 167.938 106.867C167.481 107.063 166.944 107.161 166.328 107.161ZM171.983 98.3554C171.638 98.3554 171.348 98.2481 171.115 98.0334C170.891 97.8094 170.779 97.5341 170.779 97.2074C170.779 96.8807 170.891 96.6101 171.115 96.3954C171.348 96.1714 171.638 96.0594 171.983 96.0594C172.328 96.0594 172.613 96.1714 172.837 96.3954C173.07 96.6101 173.187 96.8807 173.187 97.2074C173.187 97.5341 173.07 97.8094 172.837 98.0334C172.613 98.2481 172.328 98.3554 171.983 98.3554ZM172.949 99.2794V107.035H170.989V99.2794H172.949ZM184.518 99.1674C185.47 99.1674 186.235 99.4614 186.814 100.049C187.402 100.628 187.696 101.44 187.696 102.485V107.035H185.736V102.751C185.736 102.145 185.582 101.683 185.274 101.365C184.966 101.039 184.546 100.875 184.014 100.875C183.482 100.875 183.057 101.039 182.74 101.365C182.432 101.683 182.278 102.145 182.278 102.751V107.035H180.318V102.751C180.318 102.145 180.164 101.683 179.856 101.365C179.548 101.039 179.128 100.875 178.596 100.875C178.054 100.875 177.625 101.039 177.308 101.365C177 101.683 176.846 102.145 176.846 102.751V107.035H174.886V99.2794H176.846V100.217C177.098 99.8907 177.42 99.6341 177.812 99.4474C178.213 99.2607 178.652 99.1674 179.128 99.1674C179.734 99.1674 180.276 99.2981 180.752 99.5594C181.228 99.8114 181.596 100.175 181.858 100.651C182.11 100.203 182.474 99.8441 182.95 99.5734C183.435 99.3027 183.958 99.1674 184.518 99.1674ZM196.877 99.2794V107.035H194.903V106.055C194.651 106.391 194.32 106.657 193.909 106.853C193.508 107.04 193.069 107.133 192.593 107.133C191.987 107.133 191.45 107.007 190.983 106.755C190.517 106.494 190.148 106.116 189.877 105.621C189.616 105.117 189.485 104.52 189.485 103.829V99.2794H191.445V103.549C191.445 104.165 191.599 104.641 191.907 104.977C192.215 105.304 192.635 105.467 193.167 105.467C193.709 105.467 194.133 105.304 194.441 104.977C194.749 104.641 194.903 104.165 194.903 103.549V99.2794H196.877ZM200.771 96.6754V107.035H198.811V96.6754H200.771ZM202.204 103.129C202.204 102.345 202.358 101.65 202.666 101.043C202.983 100.437 203.408 99.9701 203.94 99.6434C204.481 99.3167 205.083 99.1534 205.746 99.1534C206.324 99.1534 206.828 99.2701 207.258 99.5034C207.696 99.7367 208.046 100.031 208.308 100.385V99.2794H210.282V107.035H208.308V105.901C208.056 106.265 207.706 106.569 207.258 106.811C206.819 107.045 206.31 107.161 205.732 107.161C205.078 107.161 204.481 106.993 203.94 106.657C203.408 106.321 202.983 105.85 202.666 105.243C202.358 104.627 202.204 103.923 202.204 103.129ZM208.308 103.157C208.308 102.681 208.214 102.275 208.028 101.939C207.841 101.594 207.589 101.333 207.272 101.155C206.954 100.969 206.614 100.875 206.25 100.875C205.886 100.875 205.55 100.964 205.242 101.141C204.934 101.319 204.682 101.58 204.486 101.925C204.299 102.261 204.206 102.663 204.206 103.129C204.206 103.596 204.299 104.007 204.486 104.361C204.682 104.707 204.934 104.973 205.242 105.159C205.559 105.346 205.895 105.439 206.25 105.439C206.614 105.439 206.954 105.351 207.272 105.173C207.589 104.987 207.841 104.725 208.028 104.389C208.214 104.044 208.308 103.633 208.308 103.157ZM214.478 100.889V104.641C214.478 104.903 214.539 105.094 214.66 105.215C214.791 105.327 215.005 105.383 215.304 105.383H216.214V107.035H214.982C213.33 107.035 212.504 106.233 212.504 104.627V100.889H211.58V99.2794H212.504V97.3614H214.478V99.2794H216.214V100.889H214.478ZM218.618 98.3554C218.273 98.3554 217.983 98.2481 217.75 98.0334C217.526 97.8094 217.414 97.5341 217.414 97.2074C217.414 96.8807 217.526 96.6101 217.75 96.3954C217.983 96.1714 218.273 96.0594 218.618 96.0594C218.963 96.0594 219.248 96.1714 219.472 96.3954C219.705 96.6101 219.822 96.8807 219.822 97.2074C219.822 97.5341 219.705 97.8094 219.472 98.0334C219.248 98.2481 218.963 98.3554 218.618 98.3554ZM219.584 99.2794V107.035H217.624V99.2794H219.584ZM224.964 107.161C224.218 107.161 223.546 106.998 222.948 106.671C222.351 106.335 221.88 105.864 221.534 105.257C221.198 104.651 221.03 103.951 221.03 103.157C221.03 102.364 221.203 101.664 221.548 101.057C221.903 100.451 222.384 99.9841 222.99 99.6574C223.597 99.3214 224.274 99.1534 225.02 99.1534C225.767 99.1534 226.444 99.3214 227.05 99.6574C227.657 99.9841 228.133 100.451 228.478 101.057C228.833 101.664 229.01 102.364 229.01 103.157C229.01 103.951 228.828 104.651 228.464 105.257C228.11 105.864 227.624 106.335 227.008 106.671C226.402 106.998 225.72 107.161 224.964 107.161ZM224.964 105.453C225.319 105.453 225.65 105.369 225.958 105.201C226.276 105.024 226.528 104.763 226.714 104.417C226.901 104.072 226.994 103.652 226.994 103.157C226.994 102.42 226.798 101.855 226.406 101.463C226.024 101.062 225.552 100.861 224.992 100.861C224.432 100.861 223.961 101.062 223.578 101.463C223.205 101.855 223.018 102.42 223.018 103.157C223.018 103.895 223.2 104.464 223.564 104.865C223.938 105.257 224.404 105.453 224.964 105.453ZM234.746 99.1674C235.67 99.1674 236.417 99.4614 236.986 100.049C237.555 100.628 237.84 101.44 237.84 102.485V107.035H235.88V102.751C235.88 102.135 235.726 101.664 235.418 101.337C235.11 101.001 234.69 100.833 234.158 100.833C233.617 100.833 233.187 101.001 232.87 101.337C232.562 101.664 232.408 102.135 232.408 102.751V107.035H230.448V99.2794H232.408V100.245C232.669 99.9094 233.001 99.6481 233.402 99.4614C233.813 99.2654 234.261 99.1674 234.746 99.1674Z" fill="#30372F"/>
<defs>
<filter id="filter0_d_282_2" x="0.462402" y="0.824463" width="310" height="260" filterUnits="userSpaceOnUse" color-interpolation-filters="sRGB">
<feFlood flood-opacity="0" result="BackgroundImageFix"/>
<feColorMatrix in="SourceAlpha" type="matrix" values="0 0 0 0 0 0 0 0 0 0 0 0 0 0 0 0 0 0 127 0" result="hardAlpha"/>
<feOffset dy="6"/>
<feGaussianBlur stdDeviation="5"/>
<feComposite in2="hardAlpha" operator="out"/>
<feColorMatrix type="matrix" values="0 0 0 0 0.854902 0 0 0 0 0.862745 0 0 0 0 0.929412 0 0 0 0.5 0"/>
<feBlend mode="normal" in2="BackgroundImageFix" result="effect1_dropShadow_282_2"/>
<feBlend mode="normal" in="SourceGraphic" in2="effect1_dropShadow_282_2" result="shape"/>
</filter>
</defs>
</svg>
